<mxfile host="Electron" modified="2024-04-23T22:50:10.648Z" agent="Mozilla/5.0 (Windows NT 10.0; Win64; x64) AppleWebKit/537.36 (KHTML, like Gecko) draw.io/24.2.5 Chrome/120.0.6099.109 Electron/28.1.0 Safari/537.36" etag="1uqAej9g9ORvvYJ8mJ4v" version="24.2.5" type="device" pages="13">
  <diagram id="A9q9fzCC2AvF9mKqRFr5" name="Use Case Diagram">
    <mxGraphModel dx="954" dy="717" grid="1" gridSize="10" guides="1" tooltips="1" connect="1" arrows="1" fold="1" page="0" pageScale="1" pageWidth="1654" pageHeight="1169" math="0" shadow="0">
      <root>
        <mxCell id="0" />
        <mxCell id="1" parent="0" />
        <mxCell id="CGiG0dvOFa0ptm9QjiXp-1" value="Deepest Dungeon" style="rounded=0;whiteSpace=wrap;html=1;verticalAlign=top;fontStyle=1;strokeWidth=3;" parent="1" vertex="1">
          <mxGeometry x="160" y="80" width="600" height="890" as="geometry" />
        </mxCell>
        <mxCell id="CGiG0dvOFa0ptm9QjiXp-38" style="edgeStyle=none;rounded=0;orthogonalLoop=1;jettySize=auto;html=1;exitX=1;exitY=0.3333333333333333;exitDx=0;exitDy=0;exitPerimeter=0;entryX=0;entryY=0.5;entryDx=0;entryDy=0;fontSize=12;strokeWidth=3;endArrow=none;endFill=0;" parent="1" source="VR3sCPYYpVklqMOKaL7--1" target="CGiG0dvOFa0ptm9QjiXp-5" edge="1">
          <mxGeometry relative="1" as="geometry" />
        </mxCell>
        <mxCell id="CGiG0dvOFa0ptm9QjiXp-39" style="edgeStyle=none;rounded=0;orthogonalLoop=1;jettySize=auto;html=1;exitX=1;exitY=0.3333333333333333;exitDx=0;exitDy=0;exitPerimeter=0;entryX=0;entryY=0.5;entryDx=0;entryDy=0;fontSize=12;endArrow=none;endFill=0;strokeWidth=3;" parent="1" source="VR3sCPYYpVklqMOKaL7--1" target="CGiG0dvOFa0ptm9QjiXp-6" edge="1">
          <mxGeometry relative="1" as="geometry" />
        </mxCell>
        <mxCell id="CGiG0dvOFa0ptm9QjiXp-40" style="edgeStyle=none;rounded=0;orthogonalLoop=1;jettySize=auto;html=1;exitX=1;exitY=0.3333333333333333;exitDx=0;exitDy=0;exitPerimeter=0;entryX=0;entryY=0.5;entryDx=0;entryDy=0;fontSize=12;endArrow=none;endFill=0;strokeWidth=3;" parent="1" source="VR3sCPYYpVklqMOKaL7--1" target="CGiG0dvOFa0ptm9QjiXp-7" edge="1">
          <mxGeometry relative="1" as="geometry" />
        </mxCell>
        <mxCell id="CGiG0dvOFa0ptm9QjiXp-41" style="edgeStyle=none;rounded=0;orthogonalLoop=1;jettySize=auto;html=1;exitX=1;exitY=0.3333333333333333;exitDx=0;exitDy=0;exitPerimeter=0;entryX=0;entryY=0.5;entryDx=0;entryDy=0;fontSize=12;endArrow=none;endFill=0;strokeWidth=3;" parent="1" source="VR3sCPYYpVklqMOKaL7--1" target="CGiG0dvOFa0ptm9QjiXp-8" edge="1">
          <mxGeometry relative="1" as="geometry" />
        </mxCell>
        <mxCell id="CGiG0dvOFa0ptm9QjiXp-42" style="edgeStyle=none;rounded=0;orthogonalLoop=1;jettySize=auto;html=1;exitX=1;exitY=0.3333333333333333;exitDx=0;exitDy=0;exitPerimeter=0;entryX=0;entryY=0.5;entryDx=0;entryDy=0;fontSize=12;endArrow=none;endFill=0;strokeWidth=3;" parent="1" source="VR3sCPYYpVklqMOKaL7--1" target="CGiG0dvOFa0ptm9QjiXp-9" edge="1">
          <mxGeometry relative="1" as="geometry" />
        </mxCell>
        <mxCell id="CGiG0dvOFa0ptm9QjiXp-43" style="edgeStyle=none;rounded=0;orthogonalLoop=1;jettySize=auto;html=1;exitX=1;exitY=0.3333333333333333;exitDx=0;exitDy=0;exitPerimeter=0;entryX=0;entryY=0.5;entryDx=0;entryDy=0;fontSize=12;endArrow=none;endFill=0;strokeWidth=3;" parent="1" source="VR3sCPYYpVklqMOKaL7--1" target="CGiG0dvOFa0ptm9QjiXp-11" edge="1">
          <mxGeometry relative="1" as="geometry" />
        </mxCell>
        <mxCell id="AvyEbH20dgI_miEVNioC-3" style="rounded=0;orthogonalLoop=1;jettySize=auto;html=1;exitX=1;exitY=0.3333333333333333;exitDx=0;exitDy=0;exitPerimeter=0;entryX=0;entryY=0;entryDx=0;entryDy=0;endArrow=none;endFill=0;strokeWidth=3;" parent="1" source="VR3sCPYYpVklqMOKaL7--1" target="AvyEbH20dgI_miEVNioC-1" edge="1">
          <mxGeometry relative="1" as="geometry" />
        </mxCell>
        <mxCell id="AvyEbH20dgI_miEVNioC-4" style="edgeStyle=none;rounded=0;orthogonalLoop=1;jettySize=auto;html=1;exitX=1;exitY=0.3333333333333333;exitDx=0;exitDy=0;exitPerimeter=0;entryX=0;entryY=0.5;entryDx=0;entryDy=0;endArrow=none;endFill=0;strokeWidth=3;" parent="1" source="VR3sCPYYpVklqMOKaL7--1" target="AvyEbH20dgI_miEVNioC-2" edge="1">
          <mxGeometry relative="1" as="geometry">
            <Array as="points">
              <mxPoint x="160" y="530" />
            </Array>
          </mxGeometry>
        </mxCell>
        <mxCell id="VR3sCPYYpVklqMOKaL7--1" value="Player" style="shape=umlActor;verticalLabelPosition=bottom;verticalAlign=top;html=1;strokeWidth=3;" parent="1" vertex="1">
          <mxGeometry x="50" y="360" width="60" height="120" as="geometry" />
        </mxCell>
        <mxCell id="CGiG0dvOFa0ptm9QjiXp-13" value="&amp;lt;&amp;lt;include&amp;gt;&amp;gt;" style="rounded=0;orthogonalLoop=1;jettySize=auto;html=1;exitX=1;exitY=0.5;exitDx=0;exitDy=0;strokeWidth=3;fontSize=12;fontStyle=1;dashed=1;entryX=0.5;entryY=0;entryDx=0;entryDy=0;" parent="1" source="CGiG0dvOFa0ptm9QjiXp-5" target="CGiG0dvOFa0ptm9QjiXp-12" edge="1">
          <mxGeometry x="-0.3191" relative="1" as="geometry">
            <mxPoint x="490" y="310" as="targetPoint" />
            <Array as="points">
              <mxPoint x="640" y="150" />
            </Array>
            <mxPoint as="offset" />
          </mxGeometry>
        </mxCell>
        <mxCell id="CGiG0dvOFa0ptm9QjiXp-5" value="move rooms" style="ellipse;whiteSpace=wrap;html=1;verticalAlign=middle;fontSize=12;strokeWidth=3;fontStyle=1" parent="1" vertex="1">
          <mxGeometry x="210" y="120" width="90" height="60" as="geometry" />
        </mxCell>
        <mxCell id="CGiG0dvOFa0ptm9QjiXp-6" value="talk to &lt;br&gt;character" style="ellipse;whiteSpace=wrap;html=1;verticalAlign=middle;fontStyle=1;strokeWidth=3;" parent="1" vertex="1">
          <mxGeometry x="210" y="220" width="90" height="60" as="geometry" />
        </mxCell>
        <mxCell id="CGiG0dvOFa0ptm9QjiXp-7" value="hug character" style="ellipse;whiteSpace=wrap;html=1;verticalAlign=middle;fontStyle=1;strokeWidth=3;" parent="1" vertex="1">
          <mxGeometry x="210" y="330" width="90" height="60" as="geometry" />
        </mxCell>
        <mxCell id="CGiG0dvOFa0ptm9QjiXp-8" value="fight character" style="ellipse;whiteSpace=wrap;html=1;verticalAlign=middle;fontStyle=1;strokeWidth=3;" parent="1" vertex="1">
          <mxGeometry x="210" y="510" width="90" height="60" as="geometry" />
        </mxCell>
        <mxCell id="CGiG0dvOFa0ptm9QjiXp-9" value="take item" style="ellipse;whiteSpace=wrap;html=1;verticalAlign=middle;fontStyle=1;strokeWidth=3;" parent="1" vertex="1">
          <mxGeometry x="210" y="590" width="90" height="60" as="geometry" />
        </mxCell>
        <mxCell id="CGiG0dvOFa0ptm9QjiXp-11" value="check &lt;br&gt;backpack" style="ellipse;whiteSpace=wrap;html=1;verticalAlign=middle;fontStyle=1;strokeWidth=3;" parent="1" vertex="1">
          <mxGeometry x="230" y="700" width="90" height="60" as="geometry" />
        </mxCell>
        <mxCell id="CGiG0dvOFa0ptm9QjiXp-12" value="describe room" style="ellipse;whiteSpace=wrap;html=1;verticalAlign=middle;fontStyle=1;strokeWidth=3;" parent="1" vertex="1">
          <mxGeometry x="660" y="420" width="90" height="60" as="geometry" />
        </mxCell>
        <mxCell id="CGiG0dvOFa0ptm9QjiXp-22" value="&amp;lt;&amp;lt;include&amp;gt;&amp;gt;" style="rounded=0;orthogonalLoop=1;jettySize=auto;html=1;entryX=0;entryY=0;entryDx=0;entryDy=0;strokeWidth=3;fontSize=12;fontStyle=1;dashed=1;exitX=1;exitY=0.5;exitDx=0;exitDy=0;" parent="1" source="CGiG0dvOFa0ptm9QjiXp-29" target="CGiG0dvOFa0ptm9QjiXp-12" edge="1">
          <mxGeometry relative="1" as="geometry">
            <mxPoint x="470" y="340" as="sourcePoint" />
            <mxPoint x="496.3603896932109" y="557.5735931288073" as="targetPoint" />
          </mxGeometry>
        </mxCell>
        <mxCell id="CGiG0dvOFa0ptm9QjiXp-23" value="list items" style="ellipse;whiteSpace=wrap;html=1;verticalAlign=middle;strokeWidth=3;fontSize=12;fontStyle=1" parent="1" vertex="1">
          <mxGeometry x="430" y="700" width="90" height="60" as="geometry" />
        </mxCell>
        <mxCell id="CGiG0dvOFa0ptm9QjiXp-24" value="&amp;lt;&amp;lt;include&amp;gt;&amp;gt;" style="rounded=0;orthogonalLoop=1;jettySize=auto;html=1;exitX=1;exitY=0.5;exitDx=0;exitDy=0;entryX=0;entryY=0.5;entryDx=0;entryDy=0;strokeWidth=3;fontSize=12;fontStyle=1;dashed=1;" parent="1" source="CGiG0dvOFa0ptm9QjiXp-11" target="CGiG0dvOFa0ptm9QjiXp-23" edge="1">
          <mxGeometry relative="1" as="geometry">
            <mxPoint x="160" y="400" as="sourcePoint" />
            <mxPoint x="346.3603896932109" y="557.5735931288073" as="targetPoint" />
          </mxGeometry>
        </mxCell>
        <mxCell id="CGiG0dvOFa0ptm9QjiXp-25" value="&amp;lt;&amp;lt;include&amp;gt;&amp;gt;" style="rounded=0;orthogonalLoop=1;jettySize=auto;html=1;exitX=1;exitY=0.5;exitDx=0;exitDy=0;entryX=0.5;entryY=1;entryDx=0;entryDy=0;strokeWidth=3;fontSize=12;fontStyle=1;dashed=1;" parent="1" source="CGiG0dvOFa0ptm9QjiXp-23" target="CGiG0dvOFa0ptm9QjiXp-12" edge="1">
          <mxGeometry x="-0.5941" relative="1" as="geometry">
            <mxPoint x="160" y="400" as="sourcePoint" />
            <mxPoint x="346.3603896932109" y="557.5735931288073" as="targetPoint" />
            <Array as="points">
              <mxPoint x="680" y="730" />
            </Array>
            <mxPoint as="offset" />
          </mxGeometry>
        </mxCell>
        <mxCell id="CGiG0dvOFa0ptm9QjiXp-26" value="&amp;lt;&amp;lt;include&amp;gt;&amp;gt;" style="rounded=0;orthogonalLoop=1;jettySize=auto;html=1;exitX=1;exitY=1;exitDx=0;exitDy=0;entryX=0;entryY=1;entryDx=0;entryDy=0;strokeWidth=3;fontSize=12;fontStyle=1;dashed=1;" parent="1" source="CGiG0dvOFa0ptm9QjiXp-9" target="CGiG0dvOFa0ptm9QjiXp-12" edge="1">
          <mxGeometry x="-0.3105" relative="1" as="geometry">
            <mxPoint x="160" y="400" as="sourcePoint" />
            <mxPoint x="346.3603896932109" y="557.5735931288073" as="targetPoint" />
            <Array as="points">
              <mxPoint x="600" y="670" />
            </Array>
            <mxPoint as="offset" />
          </mxGeometry>
        </mxCell>
        <mxCell id="CGiG0dvOFa0ptm9QjiXp-28" value="&amp;lt;&amp;lt;include&amp;gt;&amp;gt;" style="rounded=0;orthogonalLoop=1;jettySize=auto;html=1;strokeWidth=3;fontSize=12;fontStyle=1;dashed=1;entryX=0;entryY=0.5;entryDx=0;entryDy=0;exitX=1;exitY=0.5;exitDx=0;exitDy=0;" parent="1" source="CGiG0dvOFa0ptm9QjiXp-32" target="CGiG0dvOFa0ptm9QjiXp-12" edge="1">
          <mxGeometry relative="1" as="geometry">
            <mxPoint x="300" y="410" as="sourcePoint" />
            <mxPoint x="570" y="380" as="targetPoint" />
          </mxGeometry>
        </mxCell>
        <mxCell id="CGiG0dvOFa0ptm9QjiXp-30" value="&amp;lt;&amp;lt;extend&amp;gt;&amp;gt;" style="edgeStyle=none;rounded=0;orthogonalLoop=1;jettySize=auto;html=1;exitX=0;exitY=0.5;exitDx=0;exitDy=0;entryX=1;entryY=0.5;entryDx=0;entryDy=0;dashed=1;fontSize=12;strokeWidth=3;fontStyle=1" parent="1" source="CGiG0dvOFa0ptm9QjiXp-29" target="CGiG0dvOFa0ptm9QjiXp-6" edge="1">
          <mxGeometry relative="1" as="geometry" />
        </mxCell>
        <mxCell id="CGiG0dvOFa0ptm9QjiXp-29" value="character talks" style="ellipse;whiteSpace=wrap;html=1;verticalAlign=middle;strokeWidth=3;fontSize=12;fontStyle=1" parent="1" vertex="1">
          <mxGeometry x="460" y="220" width="90" height="60" as="geometry" />
        </mxCell>
        <mxCell id="CGiG0dvOFa0ptm9QjiXp-31" value="choose &lt;br&gt;weapon" style="ellipse;whiteSpace=wrap;html=1;verticalAlign=middle;strokeWidth=3;fontSize=12;fontStyle=1" parent="1" vertex="1">
          <mxGeometry x="415" y="510" width="90" height="60" as="geometry" />
        </mxCell>
        <mxCell id="CGiG0dvOFa0ptm9QjiXp-32" value="character hugs" style="ellipse;whiteSpace=wrap;html=1;verticalAlign=middle;strokeWidth=3;fontSize=12;fontStyle=1" parent="1" vertex="1">
          <mxGeometry x="460" y="330" width="90" height="60" as="geometry" />
        </mxCell>
        <mxCell id="CGiG0dvOFa0ptm9QjiXp-33" value="&amp;lt;&amp;lt;extend&amp;gt;&amp;gt;" style="edgeStyle=none;rounded=0;orthogonalLoop=1;jettySize=auto;html=1;exitX=0;exitY=0.5;exitDx=0;exitDy=0;entryX=1;entryY=0.5;entryDx=0;entryDy=0;dashed=1;fontSize=12;strokeWidth=3;fontStyle=1" parent="1" source="CGiG0dvOFa0ptm9QjiXp-32" target="CGiG0dvOFa0ptm9QjiXp-7" edge="1">
          <mxGeometry relative="1" as="geometry">
            <mxPoint x="560" y="470" as="sourcePoint" />
            <mxPoint x="400" y="470" as="targetPoint" />
          </mxGeometry>
        </mxCell>
        <mxCell id="CGiG0dvOFa0ptm9QjiXp-34" value="&amp;lt;&amp;lt;extend&amp;gt;&amp;gt;" style="edgeStyle=none;rounded=0;orthogonalLoop=1;jettySize=auto;html=1;exitX=0;exitY=0.5;exitDx=0;exitDy=0;dashed=1;fontSize=12;strokeWidth=3;fontStyle=1;entryX=1;entryY=0.5;entryDx=0;entryDy=0;" parent="1" source="CGiG0dvOFa0ptm9QjiXp-31" target="CGiG0dvOFa0ptm9QjiXp-8" edge="1">
          <mxGeometry relative="1" as="geometry">
            <mxPoint x="560" y="460" as="sourcePoint" />
            <mxPoint x="300" y="540" as="targetPoint" />
          </mxGeometry>
        </mxCell>
        <mxCell id="CGiG0dvOFa0ptm9QjiXp-35" value="end game" style="ellipse;whiteSpace=wrap;html=1;verticalAlign=middle;strokeWidth=3;fontSize=12;fontStyle=1" parent="1" vertex="1">
          <mxGeometry x="480" y="410" width="90" height="60" as="geometry" />
        </mxCell>
        <mxCell id="CGiG0dvOFa0ptm9QjiXp-36" value="&amp;lt;&amp;lt;extend&amp;gt;&amp;gt;" style="edgeStyle=none;rounded=0;orthogonalLoop=1;jettySize=auto;html=1;exitX=0;exitY=0.5;exitDx=0;exitDy=0;entryX=1;entryY=0.5;entryDx=0;entryDy=0;dashed=1;fontSize=12;strokeWidth=3;fontStyle=1" parent="1" source="CGiG0dvOFa0ptm9QjiXp-12" target="CGiG0dvOFa0ptm9QjiXp-31" edge="1">
          <mxGeometry relative="1" as="geometry">
            <mxPoint x="560" y="460" as="sourcePoint" />
            <mxPoint x="400" y="460" as="targetPoint" />
          </mxGeometry>
        </mxCell>
        <mxCell id="CGiG0dvOFa0ptm9QjiXp-37" value="&amp;lt;&amp;lt;extend&amp;gt;&amp;gt;" style="edgeStyle=none;rounded=0;orthogonalLoop=1;jettySize=auto;html=1;exitX=0.5;exitY=1;exitDx=0;exitDy=0;entryX=1;entryY=0;entryDx=0;entryDy=0;dashed=1;fontSize=12;strokeWidth=3;fontStyle=1" parent="1" source="CGiG0dvOFa0ptm9QjiXp-35" target="CGiG0dvOFa0ptm9QjiXp-31" edge="1">
          <mxGeometry relative="1" as="geometry">
            <mxPoint x="560" y="460" as="sourcePoint" />
            <mxPoint x="400" y="460" as="targetPoint" />
          </mxGeometry>
        </mxCell>
        <mxCell id="AvyEbH20dgI_miEVNioC-1" value="help" style="ellipse;whiteSpace=wrap;html=1;verticalAlign=middle;fontStyle=1;strokeWidth=3;" parent="1" vertex="1">
          <mxGeometry x="210" y="800" width="90" height="60" as="geometry" />
        </mxCell>
        <mxCell id="AvyEbH20dgI_miEVNioC-2" value="quit" style="ellipse;whiteSpace=wrap;html=1;verticalAlign=middle;fontStyle=1;strokeWidth=3;" parent="1" vertex="1">
          <mxGeometry x="210" y="890" width="90" height="60" as="geometry" />
        </mxCell>
        <mxCell id="AvyEbH20dgI_miEVNioC-6" value="display help" style="ellipse;whiteSpace=wrap;html=1;verticalAlign=middle;strokeWidth=3;fontSize=12;fontStyle=1" parent="1" vertex="1">
          <mxGeometry x="420" y="800" width="90" height="60" as="geometry" />
        </mxCell>
        <mxCell id="AvyEbH20dgI_miEVNioC-7" value="&amp;lt;&amp;lt;include&amp;gt;&amp;gt;" style="rounded=0;orthogonalLoop=1;jettySize=auto;html=1;exitX=1;exitY=0.5;exitDx=0;exitDy=0;entryX=0;entryY=0.5;entryDx=0;entryDy=0;strokeWidth=3;fontSize=12;fontStyle=1;dashed=1;" parent="1" source="AvyEbH20dgI_miEVNioC-1" target="AvyEbH20dgI_miEVNioC-6" edge="1">
          <mxGeometry relative="1" as="geometry">
            <mxPoint x="310" y="860" as="sourcePoint" />
            <mxPoint x="440" y="870" as="targetPoint" />
          </mxGeometry>
        </mxCell>
      </root>
    </mxGraphModel>
  </diagram>
  <diagram id="X3NTnuLA7gw46JiD99y9" name="Activity Diagram">
    <mxGraphModel dx="1438" dy="641" grid="0" gridSize="10" guides="1" tooltips="1" connect="1" arrows="1" fold="1" page="0" pageScale="1" pageWidth="827" pageHeight="1169" math="0" shadow="0">
      <root>
        <mxCell id="Y7UqLpw3utIAM9Uj8pGx-0" />
        <mxCell id="Y7UqLpw3utIAM9Uj8pGx-1" parent="Y7UqLpw3utIAM9Uj8pGx-0" />
        <mxCell id="vqeTOH54tDhaye226nNE-4" style="edgeStyle=orthogonalEdgeStyle;rounded=0;orthogonalLoop=1;jettySize=auto;html=1;exitX=0.5;exitY=1;exitDx=0;exitDy=0;entryX=0.5;entryY=0;entryDx=0;entryDy=0;" parent="Y7UqLpw3utIAM9Uj8pGx-1" source="vqeTOH54tDhaye226nNE-0" target="vqeTOH54tDhaye226nNE-3" edge="1">
          <mxGeometry relative="1" as="geometry" />
        </mxCell>
        <mxCell id="vqeTOH54tDhaye226nNE-0" value="" style="ellipse;fillColor=#000000;strokeColor=none;" parent="Y7UqLpw3utIAM9Uj8pGx-1" vertex="1">
          <mxGeometry x="120" y="70" width="30" height="30" as="geometry" />
        </mxCell>
        <mxCell id="vqeTOH54tDhaye226nNE-2" style="edgeStyle=orthogonalEdgeStyle;rounded=0;orthogonalLoop=1;jettySize=auto;html=1;exitX=0;exitY=0.5;exitDx=0;exitDy=0;exitPerimeter=0;entryX=1;entryY=0.5;entryDx=0;entryDy=0;" parent="Y7UqLpw3utIAM9Uj8pGx-1" source="vqeTOH54tDhaye226nNE-1" target="vqeTOH54tDhaye226nNE-0" edge="1">
          <mxGeometry relative="1" as="geometry">
            <mxPoint x="160" y="85" as="targetPoint" />
          </mxGeometry>
        </mxCell>
        <mxCell id="vqeTOH54tDhaye226nNE-1" value="Game starts" style="shape=note2;boundedLbl=1;whiteSpace=wrap;html=1;size=25;verticalAlign=top;align=center;" parent="Y7UqLpw3utIAM9Uj8pGx-1" vertex="1">
          <mxGeometry x="250" y="55" width="120" height="60" as="geometry" />
        </mxCell>
        <mxCell id="vqeTOH54tDhaye226nNE-7" style="edgeStyle=orthogonalEdgeStyle;rounded=0;orthogonalLoop=1;jettySize=auto;html=1;exitX=0.5;exitY=1;exitDx=0;exitDy=0;entryX=0.5;entryY=0;entryDx=0;entryDy=0;" parent="Y7UqLpw3utIAM9Uj8pGx-1" source="vqeTOH54tDhaye226nNE-3" target="vqeTOH54tDhaye226nNE-5" edge="1">
          <mxGeometry relative="1" as="geometry" />
        </mxCell>
        <mxCell id="vqeTOH54tDhaye226nNE-3" value="Describe Room" style="html=1;align=center;verticalAlign=top;rounded=1;absoluteArcSize=1;arcSize=10;dashed=0;" parent="Y7UqLpw3utIAM9Uj8pGx-1" vertex="1">
          <mxGeometry x="65" y="160" width="140" height="40" as="geometry" />
        </mxCell>
        <mxCell id="vqeTOH54tDhaye226nNE-10" value="Yes" style="edgeStyle=orthogonalEdgeStyle;rounded=0;orthogonalLoop=1;jettySize=auto;html=1;exitX=1;exitY=0.5;exitDx=0;exitDy=0;entryX=0;entryY=0.5;entryDx=0;entryDy=0;" parent="Y7UqLpw3utIAM9Uj8pGx-1" source="vqeTOH54tDhaye226nNE-5" target="vqeTOH54tDhaye226nNE-9" edge="1">
          <mxGeometry relative="1" as="geometry" />
        </mxCell>
        <mxCell id="vqeTOH54tDhaye226nNE-12" value="No" style="edgeStyle=orthogonalEdgeStyle;rounded=0;orthogonalLoop=1;jettySize=auto;html=1;exitX=0.5;exitY=1;exitDx=0;exitDy=0;entryX=0.5;entryY=0;entryDx=0;entryDy=0;" parent="Y7UqLpw3utIAM9Uj8pGx-1" source="vqeTOH54tDhaye226nNE-5" target="vqeTOH54tDhaye226nNE-11" edge="1">
          <mxGeometry relative="1" as="geometry" />
        </mxCell>
        <mxCell id="vqeTOH54tDhaye226nNE-5" value="" style="rhombus;" parent="Y7UqLpw3utIAM9Uj8pGx-1" vertex="1">
          <mxGeometry x="120" y="230" width="30" height="30" as="geometry" />
        </mxCell>
        <mxCell id="vqeTOH54tDhaye226nNE-8" value="Character present" style="text;html=1;strokeColor=none;fillColor=none;align=center;verticalAlign=middle;whiteSpace=wrap;rounded=0;" parent="Y7UqLpw3utIAM9Uj8pGx-1" vertex="1">
          <mxGeometry x="50" y="235" width="40" height="20" as="geometry" />
        </mxCell>
        <mxCell id="vqeTOH54tDhaye226nNE-13" style="edgeStyle=orthogonalEdgeStyle;rounded=0;orthogonalLoop=1;jettySize=auto;html=1;exitX=0.5;exitY=1;exitDx=0;exitDy=0;entryX=1;entryY=0.5;entryDx=0;entryDy=0;" parent="Y7UqLpw3utIAM9Uj8pGx-1" source="vqeTOH54tDhaye226nNE-9" target="vqeTOH54tDhaye226nNE-11" edge="1">
          <mxGeometry relative="1" as="geometry" />
        </mxCell>
        <mxCell id="vqeTOH54tDhaye226nNE-9" value="Describe Character" style="html=1;align=center;verticalAlign=top;rounded=1;absoluteArcSize=1;arcSize=10;dashed=0;" parent="Y7UqLpw3utIAM9Uj8pGx-1" vertex="1">
          <mxGeometry x="239.9999999999999" y="225" width="140" height="40" as="geometry" />
        </mxCell>
        <mxCell id="vqeTOH54tDhaye226nNE-15" style="edgeStyle=orthogonalEdgeStyle;rounded=0;orthogonalLoop=1;jettySize=auto;html=1;exitX=0.5;exitY=1;exitDx=0;exitDy=0;entryX=0.5;entryY=0;entryDx=0;entryDy=0;" parent="Y7UqLpw3utIAM9Uj8pGx-1" source="vqeTOH54tDhaye226nNE-11" target="vqeTOH54tDhaye226nNE-14" edge="1">
          <mxGeometry relative="1" as="geometry" />
        </mxCell>
        <mxCell id="vqeTOH54tDhaye226nNE-11" value="" style="rhombus;" parent="Y7UqLpw3utIAM9Uj8pGx-1" vertex="1">
          <mxGeometry x="120" y="290" width="30" height="30" as="geometry" />
        </mxCell>
        <mxCell id="vqeTOH54tDhaye226nNE-18" value="Yes" style="edgeStyle=orthogonalEdgeStyle;rounded=0;orthogonalLoop=1;jettySize=auto;html=1;exitX=1;exitY=0.5;exitDx=0;exitDy=0;entryX=0;entryY=0.5;entryDx=0;entryDy=0;" parent="Y7UqLpw3utIAM9Uj8pGx-1" source="vqeTOH54tDhaye226nNE-14" target="vqeTOH54tDhaye226nNE-17" edge="1">
          <mxGeometry relative="1" as="geometry" />
        </mxCell>
        <mxCell id="vqeTOH54tDhaye226nNE-21" style="edgeStyle=orthogonalEdgeStyle;rounded=0;orthogonalLoop=1;jettySize=auto;html=1;exitX=0.5;exitY=1;exitDx=0;exitDy=0;entryX=0.5;entryY=0;entryDx=0;entryDy=0;" parent="Y7UqLpw3utIAM9Uj8pGx-1" source="vqeTOH54tDhaye226nNE-14" target="vqeTOH54tDhaye226nNE-20" edge="1">
          <mxGeometry relative="1" as="geometry" />
        </mxCell>
        <mxCell id="vqeTOH54tDhaye226nNE-14" value="" style="rhombus;" parent="Y7UqLpw3utIAM9Uj8pGx-1" vertex="1">
          <mxGeometry x="120" y="350" width="30" height="30" as="geometry" />
        </mxCell>
        <mxCell id="vqeTOH54tDhaye226nNE-16" value="Item present" style="text;html=1;strokeColor=none;fillColor=none;align=center;verticalAlign=middle;whiteSpace=wrap;rounded=0;" parent="Y7UqLpw3utIAM9Uj8pGx-1" vertex="1">
          <mxGeometry x="50" y="355" width="40" height="20" as="geometry" />
        </mxCell>
        <mxCell id="vqeTOH54tDhaye226nNE-22" value="No" style="edgeStyle=orthogonalEdgeStyle;rounded=0;orthogonalLoop=1;jettySize=auto;html=1;exitX=0.5;exitY=1;exitDx=0;exitDy=0;entryX=1;entryY=0.5;entryDx=0;entryDy=0;" parent="Y7UqLpw3utIAM9Uj8pGx-1" source="vqeTOH54tDhaye226nNE-17" target="vqeTOH54tDhaye226nNE-20" edge="1">
          <mxGeometry x="1" y="-36" relative="1" as="geometry">
            <mxPoint x="-15" y="3" as="offset" />
          </mxGeometry>
        </mxCell>
        <mxCell id="vqeTOH54tDhaye226nNE-17" value="Describe Item" style="html=1;align=center;verticalAlign=top;rounded=1;absoluteArcSize=1;arcSize=10;dashed=0;" parent="Y7UqLpw3utIAM9Uj8pGx-1" vertex="1">
          <mxGeometry x="239.9999999999999" y="345" width="140" height="40" as="geometry" />
        </mxCell>
        <mxCell id="vqeTOH54tDhaye226nNE-24" style="edgeStyle=orthogonalEdgeStyle;rounded=0;orthogonalLoop=1;jettySize=auto;html=1;exitX=0.5;exitY=1;exitDx=0;exitDy=0;entryX=0.5;entryY=0;entryDx=0;entryDy=0;" parent="Y7UqLpw3utIAM9Uj8pGx-1" source="vqeTOH54tDhaye226nNE-20" target="vqeTOH54tDhaye226nNE-23" edge="1">
          <mxGeometry relative="1" as="geometry" />
        </mxCell>
        <mxCell id="vqeTOH54tDhaye226nNE-20" value="" style="rhombus;" parent="Y7UqLpw3utIAM9Uj8pGx-1" vertex="1">
          <mxGeometry x="120" y="410" width="30" height="30" as="geometry" />
        </mxCell>
        <mxCell id="vqeTOH54tDhaye226nNE-26" style="edgeStyle=orthogonalEdgeStyle;rounded=0;orthogonalLoop=1;jettySize=auto;html=1;exitX=0;exitY=0.5;exitDx=0;exitDy=0;entryX=0.5;entryY=0;entryDx=0;entryDy=0;" parent="Y7UqLpw3utIAM9Uj8pGx-1" source="vqeTOH54tDhaye226nNE-23" target="vqeTOH54tDhaye226nNE-25" edge="1">
          <mxGeometry relative="1" as="geometry" />
        </mxCell>
        <mxCell id="vqeTOH54tDhaye226nNE-23" value="Describe exits" style="html=1;align=center;verticalAlign=top;rounded=1;absoluteArcSize=1;arcSize=10;dashed=0;" parent="Y7UqLpw3utIAM9Uj8pGx-1" vertex="1">
          <mxGeometry x="64.99999999999989" y="480" width="140" height="40" as="geometry" />
        </mxCell>
        <mxCell id="mRLxFHn9J3tTSSMxWUNd-38" style="edgeStyle=orthogonalEdgeStyle;rounded=0;orthogonalLoop=1;jettySize=auto;html=1;exitX=1;exitY=0.5;exitDx=0;exitDy=0;entryX=0.2;entryY=0.023;entryDx=0;entryDy=0;entryPerimeter=0;" parent="Y7UqLpw3utIAM9Uj8pGx-1" source="vqeTOH54tDhaye226nNE-25" target="vqeTOH54tDhaye226nNE-27" edge="1">
          <mxGeometry relative="1" as="geometry" />
        </mxCell>
        <mxCell id="vqeTOH54tDhaye226nNE-25" value="Enter command" style="html=1;align=center;verticalAlign=top;rounded=1;absoluteArcSize=1;arcSize=10;dashed=0;" parent="Y7UqLpw3utIAM9Uj8pGx-1" vertex="1">
          <mxGeometry x="-260.0000000000001" y="560" width="140" height="40" as="geometry" />
        </mxCell>
        <mxCell id="vqeTOH54tDhaye226nNE-27" value="" style="html=1;points=[];perimeter=orthogonalPerimeter;fillColor=#000000;strokeColor=none;" parent="Y7UqLpw3utIAM9Uj8pGx-1" vertex="1">
          <mxGeometry x="-20" y="560" width="5" height="840" as="geometry" />
        </mxCell>
        <mxCell id="vqeTOH54tDhaye226nNE-32" style="edgeStyle=orthogonalEdgeStyle;rounded=0;orthogonalLoop=1;jettySize=auto;html=1;exitX=1;exitY=0.5;exitDx=0;exitDy=0;entryX=0;entryY=0.5;entryDx=0;entryDy=0;" parent="Y7UqLpw3utIAM9Uj8pGx-1" source="vqeTOH54tDhaye226nNE-30" target="vqeTOH54tDhaye226nNE-31" edge="1">
          <mxGeometry relative="1" as="geometry" />
        </mxCell>
        <mxCell id="mRLxFHn9J3tTSSMxWUNd-46" style="edgeStyle=orthogonalEdgeStyle;rounded=0;orthogonalLoop=1;jettySize=auto;html=1;exitX=0;exitY=0.5;exitDx=0;exitDy=0;entryX=0.8;entryY=0.024;entryDx=0;entryDy=0;entryPerimeter=0;endArrow=none;endFill=0;startArrow=classic;startFill=1;" parent="Y7UqLpw3utIAM9Uj8pGx-1" source="vqeTOH54tDhaye226nNE-30" target="vqeTOH54tDhaye226nNE-27" edge="1">
          <mxGeometry relative="1" as="geometry" />
        </mxCell>
        <mxCell id="vqeTOH54tDhaye226nNE-30" value="Move in direction" style="html=1;align=center;verticalAlign=top;rounded=1;absoluteArcSize=1;arcSize=10;dashed=0;" parent="Y7UqLpw3utIAM9Uj8pGx-1" vertex="1">
          <mxGeometry x="64.99999999999989" y="560" width="140" height="40" as="geometry" />
        </mxCell>
        <mxCell id="vqeTOH54tDhaye226nNE-35" value="Yes" style="edgeStyle=orthogonalEdgeStyle;rounded=0;orthogonalLoop=1;jettySize=auto;html=1;exitX=0.5;exitY=1;exitDx=0;exitDy=0;entryX=0;entryY=0.5;entryDx=0;entryDy=0;" parent="Y7UqLpw3utIAM9Uj8pGx-1" source="vqeTOH54tDhaye226nNE-31" target="vqeTOH54tDhaye226nNE-34" edge="1">
          <mxGeometry relative="1" as="geometry" />
        </mxCell>
        <mxCell id="vqeTOH54tDhaye226nNE-38" value="No" style="edgeStyle=orthogonalEdgeStyle;rounded=0;orthogonalLoop=1;jettySize=auto;html=1;exitX=1;exitY=0.5;exitDx=0;exitDy=0;entryX=0;entryY=0.5;entryDx=0;entryDy=0;" parent="Y7UqLpw3utIAM9Uj8pGx-1" source="vqeTOH54tDhaye226nNE-31" target="vqeTOH54tDhaye226nNE-36" edge="1">
          <mxGeometry relative="1" as="geometry" />
        </mxCell>
        <mxCell id="vqeTOH54tDhaye226nNE-31" value="" style="rhombus;" parent="Y7UqLpw3utIAM9Uj8pGx-1" vertex="1">
          <mxGeometry x="260" y="565" width="30" height="30" as="geometry" />
        </mxCell>
        <mxCell id="vqeTOH54tDhaye226nNE-33" value="Valid direction" style="text;html=1;strokeColor=none;fillColor=none;align=center;verticalAlign=middle;whiteSpace=wrap;rounded=0;" parent="Y7UqLpw3utIAM9Uj8pGx-1" vertex="1">
          <mxGeometry x="255" y="530" width="40" height="20" as="geometry" />
        </mxCell>
        <mxCell id="vqeTOH54tDhaye226nNE-37" style="edgeStyle=orthogonalEdgeStyle;rounded=0;orthogonalLoop=1;jettySize=auto;html=1;exitX=0.5;exitY=0;exitDx=0;exitDy=0;entryX=0.5;entryY=1;entryDx=0;entryDy=0;" parent="Y7UqLpw3utIAM9Uj8pGx-1" source="vqeTOH54tDhaye226nNE-34" target="vqeTOH54tDhaye226nNE-36" edge="1">
          <mxGeometry relative="1" as="geometry" />
        </mxCell>
        <mxCell id="mRLxFHn9J3tTSSMxWUNd-37" style="edgeStyle=orthogonalEdgeStyle;rounded=0;orthogonalLoop=1;jettySize=auto;html=1;exitX=1;exitY=0.5;exitDx=0;exitDy=0;entryX=0.076;entryY=0.019;entryDx=0;entryDy=0;entryPerimeter=0;" parent="Y7UqLpw3utIAM9Uj8pGx-1" source="vqeTOH54tDhaye226nNE-36" target="vqeTOH54tDhaye226nNE-40" edge="1">
          <mxGeometry relative="1" as="geometry" />
        </mxCell>
        <mxCell id="vqeTOH54tDhaye226nNE-34" value="Change room" style="html=1;align=center;verticalAlign=top;rounded=1;absoluteArcSize=1;arcSize=10;dashed=0;" parent="Y7UqLpw3utIAM9Uj8pGx-1" vertex="1">
          <mxGeometry x="399.9999999999999" y="630" width="140" height="40" as="geometry" />
        </mxCell>
        <mxCell id="vqeTOH54tDhaye226nNE-36" value="" style="rhombus;" parent="Y7UqLpw3utIAM9Uj8pGx-1" vertex="1">
          <mxGeometry x="455" y="565" width="30" height="30" as="geometry" />
        </mxCell>
        <mxCell id="mRLxFHn9J3tTSSMxWUNd-31" style="edgeStyle=orthogonalEdgeStyle;rounded=0;orthogonalLoop=1;jettySize=auto;html=1;entryX=1;entryY=0.5;entryDx=0;entryDy=0;" parent="Y7UqLpw3utIAM9Uj8pGx-1" source="vqeTOH54tDhaye226nNE-40" target="vqeTOH54tDhaye226nNE-3" edge="1">
          <mxGeometry relative="1" as="geometry">
            <Array as="points">
              <mxPoint x="680" y="1105" />
              <mxPoint x="680" y="180" />
            </Array>
          </mxGeometry>
        </mxCell>
        <mxCell id="vqeTOH54tDhaye226nNE-40" value="" style="html=1;points=[];perimeter=orthogonalPerimeter;fillColor=#000000;strokeColor=none;" parent="Y7UqLpw3utIAM9Uj8pGx-1" vertex="1">
          <mxGeometry x="600" y="560" width="5" height="1090" as="geometry" />
        </mxCell>
        <mxCell id="vqeTOH54tDhaye226nNE-48" style="edgeStyle=orthogonalEdgeStyle;rounded=0;orthogonalLoop=1;jettySize=auto;html=1;exitX=1;exitY=0.5;exitDx=0;exitDy=0;entryX=0;entryY=0.5;entryDx=0;entryDy=0;" parent="Y7UqLpw3utIAM9Uj8pGx-1" source="vqeTOH54tDhaye226nNE-43" target="vqeTOH54tDhaye226nNE-44" edge="1">
          <mxGeometry relative="1" as="geometry" />
        </mxCell>
        <mxCell id="mRLxFHn9J3tTSSMxWUNd-44" style="edgeStyle=orthogonalEdgeStyle;rounded=0;orthogonalLoop=1;jettySize=auto;html=1;exitX=0;exitY=0.5;exitDx=0;exitDy=0;entryX=0.8;entryY=0.215;entryDx=0;entryDy=0;entryPerimeter=0;endArrow=none;endFill=0;startArrow=classic;startFill=1;" parent="Y7UqLpw3utIAM9Uj8pGx-1" source="vqeTOH54tDhaye226nNE-43" target="vqeTOH54tDhaye226nNE-27" edge="1">
          <mxGeometry relative="1" as="geometry" />
        </mxCell>
        <mxCell id="vqeTOH54tDhaye226nNE-43" value="Talk" style="html=1;align=center;verticalAlign=top;rounded=1;absoluteArcSize=1;arcSize=10;dashed=0;" parent="Y7UqLpw3utIAM9Uj8pGx-1" vertex="1">
          <mxGeometry x="64.99999999999989" y="720" width="140" height="40" as="geometry" />
        </mxCell>
        <mxCell id="vqeTOH54tDhaye226nNE-49" value="Yes" style="edgeStyle=orthogonalEdgeStyle;rounded=0;orthogonalLoop=1;jettySize=auto;html=1;exitX=0.5;exitY=1;exitDx=0;exitDy=0;entryX=0;entryY=0.5;entryDx=0;entryDy=0;" parent="Y7UqLpw3utIAM9Uj8pGx-1" source="vqeTOH54tDhaye226nNE-44" target="vqeTOH54tDhaye226nNE-46" edge="1">
          <mxGeometry relative="1" as="geometry" />
        </mxCell>
        <mxCell id="vqeTOH54tDhaye226nNE-50" value="No" style="edgeStyle=orthogonalEdgeStyle;rounded=0;orthogonalLoop=1;jettySize=auto;html=1;exitX=1;exitY=0.5;exitDx=0;exitDy=0;entryX=0;entryY=0.5;entryDx=0;entryDy=0;" parent="Y7UqLpw3utIAM9Uj8pGx-1" source="vqeTOH54tDhaye226nNE-44" target="vqeTOH54tDhaye226nNE-47" edge="1">
          <mxGeometry relative="1" as="geometry" />
        </mxCell>
        <mxCell id="vqeTOH54tDhaye226nNE-44" value="" style="rhombus;" parent="Y7UqLpw3utIAM9Uj8pGx-1" vertex="1">
          <mxGeometry x="260" y="725" width="30" height="30" as="geometry" />
        </mxCell>
        <mxCell id="vqeTOH54tDhaye226nNE-45" value="Character present" style="text;html=1;strokeColor=none;fillColor=none;align=center;verticalAlign=middle;whiteSpace=wrap;rounded=0;" parent="Y7UqLpw3utIAM9Uj8pGx-1" vertex="1">
          <mxGeometry x="255" y="690" width="40" height="20" as="geometry" />
        </mxCell>
        <mxCell id="vqeTOH54tDhaye226nNE-51" style="edgeStyle=orthogonalEdgeStyle;rounded=0;orthogonalLoop=1;jettySize=auto;html=1;exitX=0.5;exitY=0;exitDx=0;exitDy=0;entryX=0.5;entryY=1;entryDx=0;entryDy=0;" parent="Y7UqLpw3utIAM9Uj8pGx-1" source="vqeTOH54tDhaye226nNE-46" target="vqeTOH54tDhaye226nNE-47" edge="1">
          <mxGeometry relative="1" as="geometry" />
        </mxCell>
        <mxCell id="mRLxFHn9J3tTSSMxWUNd-36" style="edgeStyle=orthogonalEdgeStyle;rounded=0;orthogonalLoop=1;jettySize=auto;html=1;exitX=1;exitY=0.5;exitDx=0;exitDy=0;" parent="Y7UqLpw3utIAM9Uj8pGx-1" source="vqeTOH54tDhaye226nNE-47" edge="1">
          <mxGeometry relative="1" as="geometry">
            <mxPoint x="603" y="740" as="targetPoint" />
          </mxGeometry>
        </mxCell>
        <mxCell id="vqeTOH54tDhaye226nNE-46" value="Character responds" style="html=1;align=center;verticalAlign=top;rounded=1;absoluteArcSize=1;arcSize=10;dashed=0;" parent="Y7UqLpw3utIAM9Uj8pGx-1" vertex="1">
          <mxGeometry x="399.9999999999999" y="800" width="140" height="40" as="geometry" />
        </mxCell>
        <mxCell id="vqeTOH54tDhaye226nNE-47" value="" style="rhombus;" parent="Y7UqLpw3utIAM9Uj8pGx-1" vertex="1">
          <mxGeometry x="455" y="725" width="30" height="30" as="geometry" />
        </mxCell>
        <mxCell id="vqeTOH54tDhaye226nNE-64" style="edgeStyle=orthogonalEdgeStyle;rounded=0;orthogonalLoop=1;jettySize=auto;html=1;exitX=1;exitY=0.5;exitDx=0;exitDy=0;entryX=0;entryY=0.5;entryDx=0;entryDy=0;" parent="Y7UqLpw3utIAM9Uj8pGx-1" source="vqeTOH54tDhaye226nNE-53" target="vqeTOH54tDhaye226nNE-60" edge="1">
          <mxGeometry relative="1" as="geometry" />
        </mxCell>
        <mxCell id="mRLxFHn9J3tTSSMxWUNd-43" style="edgeStyle=orthogonalEdgeStyle;rounded=0;orthogonalLoop=1;jettySize=auto;html=1;exitX=0;exitY=0.5;exitDx=0;exitDy=0;entryX=1;entryY=0.405;entryDx=0;entryDy=0;entryPerimeter=0;endArrow=none;endFill=0;startArrow=classic;startFill=1;" parent="Y7UqLpw3utIAM9Uj8pGx-1" source="vqeTOH54tDhaye226nNE-53" target="vqeTOH54tDhaye226nNE-27" edge="1">
          <mxGeometry relative="1" as="geometry" />
        </mxCell>
        <mxCell id="vqeTOH54tDhaye226nNE-53" value="Hug" style="html=1;align=center;verticalAlign=top;rounded=1;absoluteArcSize=1;arcSize=10;dashed=0;" parent="Y7UqLpw3utIAM9Uj8pGx-1" vertex="1">
          <mxGeometry x="64.99999999999989" y="880" width="140" height="40" as="geometry" />
        </mxCell>
        <mxCell id="vqeTOH54tDhaye226nNE-58" value="Yes" style="edgeStyle=orthogonalEdgeStyle;rounded=0;orthogonalLoop=1;jettySize=auto;html=1;exitX=0.5;exitY=1;exitDx=0;exitDy=0;entryX=0;entryY=0.5;entryDx=0;entryDy=0;" parent="Y7UqLpw3utIAM9Uj8pGx-1" source="vqeTOH54tDhaye226nNE-60" target="vqeTOH54tDhaye226nNE-61" edge="1">
          <mxGeometry relative="1" as="geometry" />
        </mxCell>
        <mxCell id="vqeTOH54tDhaye226nNE-59" value="No" style="edgeStyle=orthogonalEdgeStyle;rounded=0;orthogonalLoop=1;jettySize=auto;html=1;exitX=1;exitY=0.5;exitDx=0;exitDy=0;entryX=0;entryY=0.5;entryDx=0;entryDy=0;" parent="Y7UqLpw3utIAM9Uj8pGx-1" source="vqeTOH54tDhaye226nNE-60" target="vqeTOH54tDhaye226nNE-62" edge="1">
          <mxGeometry relative="1" as="geometry" />
        </mxCell>
        <mxCell id="vqeTOH54tDhaye226nNE-60" value="" style="rhombus;" parent="Y7UqLpw3utIAM9Uj8pGx-1" vertex="1">
          <mxGeometry x="260" y="885" width="30" height="30" as="geometry" />
        </mxCell>
        <mxCell id="vqeTOH54tDhaye226nNE-66" style="edgeStyle=orthogonalEdgeStyle;rounded=0;orthogonalLoop=1;jettySize=auto;html=1;exitX=0.5;exitY=0;exitDx=0;exitDy=0;entryX=0.5;entryY=1;entryDx=0;entryDy=0;" parent="Y7UqLpw3utIAM9Uj8pGx-1" source="vqeTOH54tDhaye226nNE-61" target="vqeTOH54tDhaye226nNE-62" edge="1">
          <mxGeometry relative="1" as="geometry">
            <mxPoint x="470" y="920" as="targetPoint" />
          </mxGeometry>
        </mxCell>
        <mxCell id="mRLxFHn9J3tTSSMxWUNd-35" style="edgeStyle=orthogonalEdgeStyle;rounded=0;orthogonalLoop=1;jettySize=auto;html=1;exitX=1;exitY=0.5;exitDx=0;exitDy=0;entryX=0.517;entryY=0.312;entryDx=0;entryDy=0;entryPerimeter=0;" parent="Y7UqLpw3utIAM9Uj8pGx-1" source="vqeTOH54tDhaye226nNE-62" target="vqeTOH54tDhaye226nNE-40" edge="1">
          <mxGeometry relative="1" as="geometry" />
        </mxCell>
        <mxCell id="vqeTOH54tDhaye226nNE-61" value="Friend responds" style="html=1;align=center;verticalAlign=top;rounded=1;absoluteArcSize=1;arcSize=10;dashed=0;" parent="Y7UqLpw3utIAM9Uj8pGx-1" vertex="1">
          <mxGeometry x="399.9999999999999" y="960" width="140" height="40" as="geometry" />
        </mxCell>
        <mxCell id="vqeTOH54tDhaye226nNE-62" value="" style="rhombus;" parent="Y7UqLpw3utIAM9Uj8pGx-1" vertex="1">
          <mxGeometry x="455" y="885" width="30" height="30" as="geometry" />
        </mxCell>
        <mxCell id="vqeTOH54tDhaye226nNE-65" value="Friend present" style="text;html=1;strokeColor=none;fillColor=none;align=center;verticalAlign=middle;whiteSpace=wrap;rounded=0;" parent="Y7UqLpw3utIAM9Uj8pGx-1" vertex="1">
          <mxGeometry x="255" y="850" width="40" height="20" as="geometry" />
        </mxCell>
        <mxCell id="vqeTOH54tDhaye226nNE-70" style="edgeStyle=orthogonalEdgeStyle;rounded=0;orthogonalLoop=1;jettySize=auto;html=1;exitX=1;exitY=0.5;exitDx=0;exitDy=0;entryX=0;entryY=0.5;entryDx=0;entryDy=0;" parent="Y7UqLpw3utIAM9Uj8pGx-1" source="vqeTOH54tDhaye226nNE-67" target="vqeTOH54tDhaye226nNE-68" edge="1">
          <mxGeometry relative="1" as="geometry" />
        </mxCell>
        <mxCell id="mRLxFHn9J3tTSSMxWUNd-42" style="edgeStyle=orthogonalEdgeStyle;rounded=0;orthogonalLoop=1;jettySize=auto;html=1;exitX=0;exitY=0.5;exitDx=0;exitDy=0;entryX=0.8;entryY=0.595;entryDx=0;entryDy=0;entryPerimeter=0;endArrow=none;endFill=0;startArrow=classic;startFill=1;" parent="Y7UqLpw3utIAM9Uj8pGx-1" source="vqeTOH54tDhaye226nNE-67" target="vqeTOH54tDhaye226nNE-27" edge="1">
          <mxGeometry relative="1" as="geometry" />
        </mxCell>
        <mxCell id="vqeTOH54tDhaye226nNE-67" value="Take item" style="html=1;align=center;verticalAlign=top;rounded=1;absoluteArcSize=1;arcSize=10;dashed=0;" parent="Y7UqLpw3utIAM9Uj8pGx-1" vertex="1">
          <mxGeometry x="64.99999999999989" y="1040" width="140" height="40" as="geometry" />
        </mxCell>
        <mxCell id="vqeTOH54tDhaye226nNE-74" value="Yes" style="edgeStyle=orthogonalEdgeStyle;rounded=0;orthogonalLoop=1;jettySize=auto;html=1;exitX=0.5;exitY=1;exitDx=0;exitDy=0;entryX=0;entryY=0.5;entryDx=0;entryDy=0;" parent="Y7UqLpw3utIAM9Uj8pGx-1" source="vqeTOH54tDhaye226nNE-68" target="vqeTOH54tDhaye226nNE-72" edge="1">
          <mxGeometry relative="1" as="geometry" />
        </mxCell>
        <mxCell id="vqeTOH54tDhaye226nNE-75" value="No" style="edgeStyle=orthogonalEdgeStyle;rounded=0;orthogonalLoop=1;jettySize=auto;html=1;exitX=1;exitY=0.5;exitDx=0;exitDy=0;entryX=0.186;entryY=0.515;entryDx=0;entryDy=0;entryPerimeter=0;" parent="Y7UqLpw3utIAM9Uj8pGx-1" source="vqeTOH54tDhaye226nNE-68" target="vqeTOH54tDhaye226nNE-73" edge="1">
          <mxGeometry relative="1" as="geometry" />
        </mxCell>
        <mxCell id="vqeTOH54tDhaye226nNE-68" value="" style="rhombus;" parent="Y7UqLpw3utIAM9Uj8pGx-1" vertex="1">
          <mxGeometry x="260" y="1045" width="30" height="30" as="geometry" />
        </mxCell>
        <mxCell id="vqeTOH54tDhaye226nNE-69" value="Item present" style="text;html=1;strokeColor=none;fillColor=none;align=center;verticalAlign=middle;whiteSpace=wrap;rounded=0;" parent="Y7UqLpw3utIAM9Uj8pGx-1" vertex="1">
          <mxGeometry x="255" y="1010" width="40" height="20" as="geometry" />
        </mxCell>
        <mxCell id="mRLxFHn9J3tTSSMxWUNd-3" style="edgeStyle=orthogonalEdgeStyle;rounded=0;orthogonalLoop=1;jettySize=auto;html=1;exitX=1;exitY=0.5;exitDx=0;exitDy=0;entryX=0;entryY=0.5;entryDx=0;entryDy=0;" parent="Y7UqLpw3utIAM9Uj8pGx-1" source="vqeTOH54tDhaye226nNE-71" target="mRLxFHn9J3tTSSMxWUNd-2" edge="1">
          <mxGeometry relative="1" as="geometry" />
        </mxCell>
        <mxCell id="vqeTOH54tDhaye226nNE-71" value="Choose Weapon" style="html=1;align=center;verticalAlign=top;rounded=1;absoluteArcSize=1;arcSize=10;dashed=0;" parent="Y7UqLpw3utIAM9Uj8pGx-1" vertex="1">
          <mxGeometry x="-260.0000000000001" y="1520" width="140" height="40" as="geometry" />
        </mxCell>
        <mxCell id="vqeTOH54tDhaye226nNE-76" style="edgeStyle=orthogonalEdgeStyle;rounded=0;orthogonalLoop=1;jettySize=auto;html=1;exitX=0.5;exitY=0;exitDx=0;exitDy=0;entryX=0.5;entryY=1;entryDx=0;entryDy=0;" parent="Y7UqLpw3utIAM9Uj8pGx-1" source="vqeTOH54tDhaye226nNE-72" target="vqeTOH54tDhaye226nNE-73" edge="1">
          <mxGeometry relative="1" as="geometry" />
        </mxCell>
        <mxCell id="mRLxFHn9J3tTSSMxWUNd-34" style="edgeStyle=orthogonalEdgeStyle;rounded=0;orthogonalLoop=1;jettySize=auto;html=1;exitX=1;exitY=0.5;exitDx=0;exitDy=0;entryX=-0.255;entryY=0.459;entryDx=0;entryDy=0;entryPerimeter=0;" parent="Y7UqLpw3utIAM9Uj8pGx-1" source="vqeTOH54tDhaye226nNE-73" target="vqeTOH54tDhaye226nNE-40" edge="1">
          <mxGeometry relative="1" as="geometry" />
        </mxCell>
        <mxCell id="vqeTOH54tDhaye226nNE-72" value="Add to backpack" style="html=1;align=center;verticalAlign=top;rounded=1;absoluteArcSize=1;arcSize=10;dashed=0;" parent="Y7UqLpw3utIAM9Uj8pGx-1" vertex="1">
          <mxGeometry x="399.9999999999999" y="1120" width="140" height="40" as="geometry" />
        </mxCell>
        <mxCell id="vqeTOH54tDhaye226nNE-73" value="" style="rhombus;" parent="Y7UqLpw3utIAM9Uj8pGx-1" vertex="1">
          <mxGeometry x="455" y="1045" width="30" height="30" as="geometry" />
        </mxCell>
        <mxCell id="vqeTOH54tDhaye226nNE-80" style="edgeStyle=orthogonalEdgeStyle;rounded=0;orthogonalLoop=1;jettySize=auto;html=1;exitX=1;exitY=0.5;exitDx=0;exitDy=0;" parent="Y7UqLpw3utIAM9Uj8pGx-1" source="vqeTOH54tDhaye226nNE-77" target="vqeTOH54tDhaye226nNE-79" edge="1">
          <mxGeometry relative="1" as="geometry" />
        </mxCell>
        <mxCell id="mRLxFHn9J3tTSSMxWUNd-41" style="edgeStyle=orthogonalEdgeStyle;rounded=0;orthogonalLoop=1;jettySize=auto;html=1;exitX=0;exitY=0.5;exitDx=0;exitDy=0;entryX=1;entryY=0.786;entryDx=0;entryDy=0;entryPerimeter=0;endArrow=none;endFill=0;startArrow=classic;startFill=1;" parent="Y7UqLpw3utIAM9Uj8pGx-1" source="vqeTOH54tDhaye226nNE-77" target="vqeTOH54tDhaye226nNE-27" edge="1">
          <mxGeometry relative="1" as="geometry" />
        </mxCell>
        <mxCell id="vqeTOH54tDhaye226nNE-77" value="Check backpack" style="html=1;align=center;verticalAlign=top;rounded=1;absoluteArcSize=1;arcSize=10;dashed=0;" parent="Y7UqLpw3utIAM9Uj8pGx-1" vertex="1">
          <mxGeometry x="64.99999999999989" y="1200" width="140" height="40" as="geometry" />
        </mxCell>
        <mxCell id="mRLxFHn9J3tTSSMxWUNd-33" style="edgeStyle=orthogonalEdgeStyle;rounded=0;orthogonalLoop=1;jettySize=auto;html=1;exitX=1;exitY=0.5;exitDx=0;exitDy=0;entryX=0.2;entryY=0.606;entryDx=0;entryDy=0;entryPerimeter=0;" parent="Y7UqLpw3utIAM9Uj8pGx-1" source="vqeTOH54tDhaye226nNE-79" target="vqeTOH54tDhaye226nNE-40" edge="1">
          <mxGeometry relative="1" as="geometry" />
        </mxCell>
        <mxCell id="vqeTOH54tDhaye226nNE-79" value="List backpack items" style="html=1;align=center;verticalAlign=top;rounded=1;absoluteArcSize=1;arcSize=10;dashed=0;" parent="Y7UqLpw3utIAM9Uj8pGx-1" vertex="1">
          <mxGeometry x="399.9999999999999" y="1200" width="140" height="40" as="geometry" />
        </mxCell>
        <mxCell id="vqeTOH54tDhaye226nNE-83" style="edgeStyle=orthogonalEdgeStyle;rounded=0;orthogonalLoop=1;jettySize=auto;html=1;exitX=1;exitY=0.5;exitDx=0;exitDy=0;entryX=0;entryY=0.5;entryDx=0;entryDy=0;" parent="Y7UqLpw3utIAM9Uj8pGx-1" source="vqeTOH54tDhaye226nNE-81" target="vqeTOH54tDhaye226nNE-82" edge="1">
          <mxGeometry relative="1" as="geometry" />
        </mxCell>
        <mxCell id="mRLxFHn9J3tTSSMxWUNd-47" style="edgeStyle=orthogonalEdgeStyle;rounded=0;orthogonalLoop=1;jettySize=auto;html=1;exitX=0;exitY=0.5;exitDx=0;exitDy=0;entryX=0.8;entryY=0.881;entryDx=0;entryDy=0;entryPerimeter=0;endArrow=none;endFill=0;startArrow=classic;startFill=1;" parent="Y7UqLpw3utIAM9Uj8pGx-1" source="vqeTOH54tDhaye226nNE-81" target="vqeTOH54tDhaye226nNE-27" edge="1">
          <mxGeometry relative="1" as="geometry" />
        </mxCell>
        <mxCell id="vqeTOH54tDhaye226nNE-81" value="Help" style="html=1;align=center;verticalAlign=top;rounded=1;absoluteArcSize=1;arcSize=10;dashed=0;" parent="Y7UqLpw3utIAM9Uj8pGx-1" vertex="1">
          <mxGeometry x="64.99999999999989" y="1280" width="140" height="40" as="geometry" />
        </mxCell>
        <mxCell id="mRLxFHn9J3tTSSMxWUNd-32" style="edgeStyle=orthogonalEdgeStyle;rounded=0;orthogonalLoop=1;jettySize=auto;html=1;exitX=1;exitY=0.5;exitDx=0;exitDy=0;entryX=0;entryY=0.679;entryDx=0;entryDy=0;entryPerimeter=0;" parent="Y7UqLpw3utIAM9Uj8pGx-1" source="vqeTOH54tDhaye226nNE-82" target="vqeTOH54tDhaye226nNE-40" edge="1">
          <mxGeometry relative="1" as="geometry" />
        </mxCell>
        <mxCell id="vqeTOH54tDhaye226nNE-82" value="List commands" style="html=1;align=center;verticalAlign=top;rounded=1;absoluteArcSize=1;arcSize=10;dashed=0;" parent="Y7UqLpw3utIAM9Uj8pGx-1" vertex="1">
          <mxGeometry x="399.9999999999999" y="1280" width="140" height="40" as="geometry" />
        </mxCell>
        <mxCell id="mRLxFHn9J3tTSSMxWUNd-0" style="edgeStyle=orthogonalEdgeStyle;rounded=0;orthogonalLoop=1;jettySize=auto;html=1;exitX=0.5;exitY=1;exitDx=0;exitDy=0;entryX=0.5;entryY=0;entryDx=0;entryDy=0;" parent="Y7UqLpw3utIAM9Uj8pGx-1" source="vqeTOH54tDhaye226nNE-84" target="vqeTOH54tDhaye226nNE-71" edge="1">
          <mxGeometry relative="1" as="geometry">
            <Array as="points">
              <mxPoint x="135" y="1473" />
              <mxPoint x="-190" y="1473" />
            </Array>
          </mxGeometry>
        </mxCell>
        <mxCell id="mRLxFHn9J3tTSSMxWUNd-39" style="edgeStyle=orthogonalEdgeStyle;rounded=0;orthogonalLoop=1;jettySize=auto;html=1;exitX=0;exitY=0.5;exitDx=0;exitDy=0;entryX=1;entryY=0.977;entryDx=0;entryDy=0;entryPerimeter=0;endArrow=none;endFill=0;startArrow=classic;startFill=1;" parent="Y7UqLpw3utIAM9Uj8pGx-1" source="vqeTOH54tDhaye226nNE-84" target="vqeTOH54tDhaye226nNE-27" edge="1">
          <mxGeometry relative="1" as="geometry" />
        </mxCell>
        <mxCell id="vqeTOH54tDhaye226nNE-84" value="Fight" style="html=1;align=center;verticalAlign=top;rounded=1;absoluteArcSize=1;arcSize=10;dashed=0;" parent="Y7UqLpw3utIAM9Uj8pGx-1" vertex="1">
          <mxGeometry x="64.99999999999989" y="1360" width="140" height="40" as="geometry" />
        </mxCell>
        <mxCell id="mRLxFHn9J3tTSSMxWUNd-8" value="No" style="edgeStyle=orthogonalEdgeStyle;rounded=0;orthogonalLoop=1;jettySize=auto;html=1;exitX=0.5;exitY=1;exitDx=0;exitDy=0;entryX=0.2;entryY=0.895;entryDx=0;entryDy=0;entryPerimeter=0;" parent="Y7UqLpw3utIAM9Uj8pGx-1" source="mRLxFHn9J3tTSSMxWUNd-2" target="mRLxFHn9J3tTSSMxWUNd-9" edge="1">
          <mxGeometry relative="1" as="geometry">
            <mxPoint x="135" y="1630" as="targetPoint" />
          </mxGeometry>
        </mxCell>
        <mxCell id="mRLxFHn9J3tTSSMxWUNd-11" value="Yes" style="edgeStyle=orthogonalEdgeStyle;rounded=0;orthogonalLoop=1;jettySize=auto;html=1;exitX=1;exitY=0.5;exitDx=0;exitDy=0;entryX=0;entryY=0.5;entryDx=0;entryDy=0;" parent="Y7UqLpw3utIAM9Uj8pGx-1" source="mRLxFHn9J3tTSSMxWUNd-2" target="mRLxFHn9J3tTSSMxWUNd-10" edge="1">
          <mxGeometry relative="1" as="geometry" />
        </mxCell>
        <mxCell id="mRLxFHn9J3tTSSMxWUNd-2" value="" style="rhombus;" parent="Y7UqLpw3utIAM9Uj8pGx-1" vertex="1">
          <mxGeometry x="120" y="1525" width="30" height="30" as="geometry" />
        </mxCell>
        <mxCell id="mRLxFHn9J3tTSSMxWUNd-4" value="Item in backpack" style="text;html=1;strokeColor=none;fillColor=none;align=center;verticalAlign=middle;whiteSpace=wrap;rounded=0;" parent="Y7UqLpw3utIAM9Uj8pGx-1" vertex="1">
          <mxGeometry x="115" y="1490" width="40" height="20" as="geometry" />
        </mxCell>
        <mxCell id="mRLxFHn9J3tTSSMxWUNd-6" value="" style="ellipse;html=1;shape=endState;fillColor=#000000;strokeColor=#000000;" parent="Y7UqLpw3utIAM9Uj8pGx-1" vertex="1">
          <mxGeometry x="175" y="1820" width="30" height="30" as="geometry" />
        </mxCell>
        <mxCell id="mRLxFHn9J3tTSSMxWUNd-16" style="edgeStyle=orthogonalEdgeStyle;rounded=0;orthogonalLoop=1;jettySize=auto;html=1;entryX=0.5;entryY=0;entryDx=0;entryDy=0;" parent="Y7UqLpw3utIAM9Uj8pGx-1" source="mRLxFHn9J3tTSSMxWUNd-9" target="mRLxFHn9J3tTSSMxWUNd-15" edge="1">
          <mxGeometry relative="1" as="geometry" />
        </mxCell>
        <mxCell id="mRLxFHn9J3tTSSMxWUNd-9" value="" style="html=1;points=[];perimeter=orthogonalPerimeter;fillColor=#000000;strokeColor=none;rotation=90;" parent="Y7UqLpw3utIAM9Uj8pGx-1" vertex="1">
          <mxGeometry x="187.5" y="1560" width="5" height="155" as="geometry" />
        </mxCell>
        <mxCell id="mRLxFHn9J3tTSSMxWUNd-13" value="No" style="edgeStyle=orthogonalEdgeStyle;rounded=0;orthogonalLoop=1;jettySize=auto;html=1;exitX=0.5;exitY=1;exitDx=0;exitDy=0;entryX=0;entryY=0.086;entryDx=0;entryDy=0;entryPerimeter=0;" parent="Y7UqLpw3utIAM9Uj8pGx-1" source="mRLxFHn9J3tTSSMxWUNd-10" target="mRLxFHn9J3tTSSMxWUNd-9" edge="1">
          <mxGeometry relative="1" as="geometry" />
        </mxCell>
        <mxCell id="mRLxFHn9J3tTSSMxWUNd-20" value="Yes" style="edgeStyle=orthogonalEdgeStyle;rounded=0;orthogonalLoop=1;jettySize=auto;html=1;exitX=1;exitY=0.5;exitDx=0;exitDy=0;entryX=0;entryY=0.5;entryDx=0;entryDy=0;" parent="Y7UqLpw3utIAM9Uj8pGx-1" source="mRLxFHn9J3tTSSMxWUNd-10" target="mRLxFHn9J3tTSSMxWUNd-22" edge="1">
          <mxGeometry relative="1" as="geometry">
            <mxPoint x="390" y="1540" as="targetPoint" />
          </mxGeometry>
        </mxCell>
        <mxCell id="mRLxFHn9J3tTSSMxWUNd-10" value="" style="rhombus;" parent="Y7UqLpw3utIAM9Uj8pGx-1" vertex="1">
          <mxGeometry x="240" y="1525" width="30" height="30" as="geometry" />
        </mxCell>
        <mxCell id="mRLxFHn9J3tTSSMxWUNd-12" value="Item is weakness" style="text;html=1;strokeColor=none;fillColor=none;align=center;verticalAlign=middle;whiteSpace=wrap;rounded=0;" parent="Y7UqLpw3utIAM9Uj8pGx-1" vertex="1">
          <mxGeometry x="235" y="1490" width="40" height="20" as="geometry" />
        </mxCell>
        <mxCell id="mRLxFHn9J3tTSSMxWUNd-17" style="edgeStyle=orthogonalEdgeStyle;rounded=0;orthogonalLoop=1;jettySize=auto;html=1;exitX=0.5;exitY=1;exitDx=0;exitDy=0;" parent="Y7UqLpw3utIAM9Uj8pGx-1" source="mRLxFHn9J3tTSSMxWUNd-15" target="mRLxFHn9J3tTSSMxWUNd-6" edge="1">
          <mxGeometry relative="1" as="geometry" />
        </mxCell>
        <mxCell id="mRLxFHn9J3tTSSMxWUNd-15" value="Death message" style="html=1;align=center;verticalAlign=top;rounded=1;absoluteArcSize=1;arcSize=10;dashed=0;" parent="Y7UqLpw3utIAM9Uj8pGx-1" vertex="1">
          <mxGeometry x="120" y="1720" width="140" height="40" as="geometry" />
        </mxCell>
        <mxCell id="mRLxFHn9J3tTSSMxWUNd-25" style="edgeStyle=orthogonalEdgeStyle;rounded=0;orthogonalLoop=1;jettySize=auto;html=1;exitX=0.5;exitY=1;exitDx=0;exitDy=0;entryX=0.5;entryY=0;entryDx=0;entryDy=0;" parent="Y7UqLpw3utIAM9Uj8pGx-1" source="mRLxFHn9J3tTSSMxWUNd-22" target="mRLxFHn9J3tTSSMxWUNd-23" edge="1">
          <mxGeometry relative="1" as="geometry" />
        </mxCell>
        <mxCell id="mRLxFHn9J3tTSSMxWUNd-22" value="Fight victory" style="html=1;align=center;verticalAlign=top;rounded=1;absoluteArcSize=1;arcSize=10;dashed=0;" parent="Y7UqLpw3utIAM9Uj8pGx-1" vertex="1">
          <mxGeometry x="399.9999999999999" y="1520" width="140" height="40" as="geometry" />
        </mxCell>
        <mxCell id="mRLxFHn9J3tTSSMxWUNd-29" value="No" style="edgeStyle=orthogonalEdgeStyle;rounded=0;orthogonalLoop=1;jettySize=auto;html=1;exitX=0.5;exitY=1;exitDx=0;exitDy=0;entryX=0.5;entryY=0;entryDx=0;entryDy=0;" parent="Y7UqLpw3utIAM9Uj8pGx-1" source="mRLxFHn9J3tTSSMxWUNd-23" target="mRLxFHn9J3tTSSMxWUNd-27" edge="1">
          <mxGeometry relative="1" as="geometry" />
        </mxCell>
        <mxCell id="mRLxFHn9J3tTSSMxWUNd-30" value="Yes" style="edgeStyle=orthogonalEdgeStyle;rounded=0;orthogonalLoop=1;jettySize=auto;html=1;exitX=1;exitY=0.5;exitDx=0;exitDy=0;entryX=0.4;entryY=0.989;entryDx=0;entryDy=0;entryPerimeter=0;" parent="Y7UqLpw3utIAM9Uj8pGx-1" source="mRLxFHn9J3tTSSMxWUNd-23" target="vqeTOH54tDhaye226nNE-40" edge="1">
          <mxGeometry relative="1" as="geometry" />
        </mxCell>
        <mxCell id="mRLxFHn9J3tTSSMxWUNd-23" value="" style="rhombus;" parent="Y7UqLpw3utIAM9Uj8pGx-1" vertex="1">
          <mxGeometry x="455" y="1622.5" width="30" height="30" as="geometry" />
        </mxCell>
        <mxCell id="mRLxFHn9J3tTSSMxWUNd-26" value="Enemies left" style="text;html=1;strokeColor=none;fillColor=none;align=center;verticalAlign=middle;whiteSpace=wrap;rounded=0;" parent="Y7UqLpw3utIAM9Uj8pGx-1" vertex="1">
          <mxGeometry x="400" y="1627.5" width="40" height="20" as="geometry" />
        </mxCell>
        <mxCell id="mRLxFHn9J3tTSSMxWUNd-28" style="edgeStyle=orthogonalEdgeStyle;rounded=0;orthogonalLoop=1;jettySize=auto;html=1;exitX=0.5;exitY=1;exitDx=0;exitDy=0;entryX=1;entryY=0.5;entryDx=0;entryDy=0;" parent="Y7UqLpw3utIAM9Uj8pGx-1" source="mRLxFHn9J3tTSSMxWUNd-27" target="mRLxFHn9J3tTSSMxWUNd-6" edge="1">
          <mxGeometry relative="1" as="geometry" />
        </mxCell>
        <mxCell id="mRLxFHn9J3tTSSMxWUNd-27" value="Victory message" style="html=1;align=center;verticalAlign=top;rounded=1;absoluteArcSize=1;arcSize=10;dashed=0;" parent="Y7UqLpw3utIAM9Uj8pGx-1" vertex="1">
          <mxGeometry x="400" y="1720" width="140" height="40" as="geometry" />
        </mxCell>
        <mxCell id="j9laDUeChTYV3nkhDXTl-0" value="Pool" style="swimlane;childLayout=stackLayout;resizeParent=1;resizeParentMax=0;startSize=20;" parent="Y7UqLpw3utIAM9Uj8pGx-1" vertex="1">
          <mxGeometry x="-320" width="1040" height="1920" as="geometry" />
        </mxCell>
        <mxCell id="j9laDUeChTYV3nkhDXTl-1" value="User" style="swimlane;startSize=20;" parent="j9laDUeChTYV3nkhDXTl-0" vertex="1">
          <mxGeometry y="20" width="260" height="1900" as="geometry" />
        </mxCell>
        <mxCell id="j9laDUeChTYV3nkhDXTl-2" value="System" style="swimlane;startSize=20;" parent="j9laDUeChTYV3nkhDXTl-0" vertex="1">
          <mxGeometry x="260" y="20" width="780" height="1900" as="geometry" />
        </mxCell>
      </root>
    </mxGraphModel>
  </diagram>
  <diagram id="V3Jb3eWFrxy3if2DLyJV" name="Class Diagram">
    <mxGraphModel dx="1038" dy="641" grid="1" gridSize="10" guides="1" tooltips="1" connect="1" arrows="1" fold="1" page="0" pageScale="1" pageWidth="850" pageHeight="1100" math="0" shadow="0">
      <root>
        <mxCell id="WwfHahmjMYo7YAKEdt79-0" />
        <mxCell id="WwfHahmjMYo7YAKEdt79-1" parent="WwfHahmjMYo7YAKEdt79-0" />
        <mxCell id="oyIvjw0VSTPey54NWwhw-0" value="Room" style="swimlane;fontStyle=1;align=center;verticalAlign=top;childLayout=stackLayout;horizontal=1;startSize=26;horizontalStack=0;resizeParent=1;resizeParentMax=0;resizeLast=0;collapsible=1;marginBottom=0;" parent="WwfHahmjMYo7YAKEdt79-1" vertex="1">
          <mxGeometry x="480" y="200" width="220" height="242" as="geometry" />
        </mxCell>
        <mxCell id="oyIvjw0VSTPey54NWwhw-1" value="- name: string" style="text;strokeColor=none;fillColor=none;align=left;verticalAlign=top;spacingLeft=4;spacingRight=4;overflow=hidden;rotatable=0;points=[[0,0.5],[1,0.5]];portConstraint=eastwest;" parent="oyIvjw0VSTPey54NWwhw-0" vertex="1">
          <mxGeometry y="26" width="220" height="26" as="geometry" />
        </mxCell>
        <mxCell id="L6i-tdebfPprP6MRGZE7-16" value="- description: string" style="text;strokeColor=none;fillColor=none;align=left;verticalAlign=top;spacingLeft=4;spacingRight=4;overflow=hidden;rotatable=0;points=[[0,0.5],[1,0.5]];portConstraint=eastwest;" parent="oyIvjw0VSTPey54NWwhw-0" vertex="1">
          <mxGeometry y="52" width="220" height="26" as="geometry" />
        </mxCell>
        <mxCell id="L6i-tdebfPprP6MRGZE7-17" value="- linked_rooms: dict [str: Room]" style="text;strokeColor=none;fillColor=none;align=left;verticalAlign=top;spacingLeft=4;spacingRight=4;overflow=hidden;rotatable=0;points=[[0,0.5],[1,0.5]];portConstraint=eastwest;" parent="oyIvjw0VSTPey54NWwhw-0" vertex="1">
          <mxGeometry y="78" width="220" height="26" as="geometry" />
        </mxCell>
        <mxCell id="L6i-tdebfPprP6MRGZE7-18" value="- inhabitant: Character " style="text;strokeColor=none;fillColor=none;align=left;verticalAlign=top;spacingLeft=4;spacingRight=4;overflow=hidden;rotatable=0;points=[[0,0.5],[1,0.5]];portConstraint=eastwest;" parent="oyIvjw0VSTPey54NWwhw-0" vertex="1">
          <mxGeometry y="104" width="220" height="26" as="geometry" />
        </mxCell>
        <mxCell id="L6i-tdebfPprP6MRGZE7-19" value="- item: Item" style="text;strokeColor=none;fillColor=none;align=left;verticalAlign=top;spacingLeft=4;spacingRight=4;overflow=hidden;rotatable=0;points=[[0,0.5],[1,0.5]];portConstraint=eastwest;" parent="oyIvjw0VSTPey54NWwhw-0" vertex="1">
          <mxGeometry y="130" width="220" height="26" as="geometry" />
        </mxCell>
        <mxCell id="oyIvjw0VSTPey54NWwhw-2" value="" style="line;strokeWidth=1;fillColor=none;align=left;verticalAlign=middle;spacingTop=-1;spacingLeft=3;spacingRight=3;rotatable=0;labelPosition=right;points=[];portConstraint=eastwest;" parent="oyIvjw0VSTPey54NWwhw-0" vertex="1">
          <mxGeometry y="156" width="220" height="8" as="geometry" />
        </mxCell>
        <mxCell id="oyIvjw0VSTPey54NWwhw-3" value="+ describe(): " style="text;strokeColor=none;fillColor=none;align=left;verticalAlign=top;spacingLeft=4;spacingRight=4;overflow=hidden;rotatable=0;points=[[0,0.5],[1,0.5]];portConstraint=eastwest;" parent="oyIvjw0VSTPey54NWwhw-0" vertex="1">
          <mxGeometry y="164" width="220" height="26" as="geometry" />
        </mxCell>
        <mxCell id="L6i-tdebfPprP6MRGZE7-20" value="+ link_rooms(Room,string): " style="text;strokeColor=none;fillColor=none;align=left;verticalAlign=top;spacingLeft=4;spacingRight=4;overflow=hidden;rotatable=0;points=[[0,0.5],[1,0.5]];portConstraint=eastwest;" parent="oyIvjw0VSTPey54NWwhw-0" vertex="1">
          <mxGeometry y="190" width="220" height="26" as="geometry" />
        </mxCell>
        <mxCell id="L6i-tdebfPprP6MRGZE7-21" value="+ move(string): Room" style="text;strokeColor=none;fillColor=none;align=left;verticalAlign=top;spacingLeft=4;spacingRight=4;overflow=hidden;rotatable=0;points=[[0,0.5],[1,0.5]];portConstraint=eastwest;" parent="oyIvjw0VSTPey54NWwhw-0" vertex="1">
          <mxGeometry y="216" width="220" height="26" as="geometry" />
        </mxCell>
        <mxCell id="oyIvjw0VSTPey54NWwhw-4" value="Character" style="swimlane;fontStyle=3;align=center;verticalAlign=top;childLayout=stackLayout;horizontal=1;startSize=26;horizontalStack=0;resizeParent=1;resizeParentMax=0;resizeLast=0;collapsible=1;marginBottom=0;" parent="WwfHahmjMYo7YAKEdt79-1" vertex="1">
          <mxGeometry x="200" y="200" width="160" height="216" as="geometry" />
        </mxCell>
        <mxCell id="oyIvjw0VSTPey54NWwhw-5" value="- name: string    " style="text;strokeColor=none;fillColor=none;align=left;verticalAlign=top;spacingLeft=4;spacingRight=4;overflow=hidden;rotatable=0;points=[[0,0.5],[1,0.5]];portConstraint=eastwest;" parent="oyIvjw0VSTPey54NWwhw-4" vertex="1">
          <mxGeometry y="26" width="160" height="26" as="geometry" />
        </mxCell>
        <mxCell id="L6i-tdebfPprP6MRGZE7-0" value="- description: string    " style="text;strokeColor=none;fillColor=none;align=left;verticalAlign=top;spacingLeft=4;spacingRight=4;overflow=hidden;rotatable=0;points=[[0,0.5],[1,0.5]];portConstraint=eastwest;" parent="oyIvjw0VSTPey54NWwhw-4" vertex="1">
          <mxGeometry y="52" width="160" height="26" as="geometry" />
        </mxCell>
        <mxCell id="L6i-tdebfPprP6MRGZE7-1" value="- conversation: string    " style="text;strokeColor=none;fillColor=none;align=left;verticalAlign=top;spacingLeft=4;spacingRight=4;overflow=hidden;rotatable=0;points=[[0,0.5],[1,0.5]];portConstraint=eastwest;" parent="oyIvjw0VSTPey54NWwhw-4" vertex="1">
          <mxGeometry y="78" width="160" height="26" as="geometry" />
        </mxCell>
        <mxCell id="oyIvjw0VSTPey54NWwhw-6" value="" style="line;strokeWidth=1;fillColor=none;align=left;verticalAlign=middle;spacingTop=-1;spacingLeft=3;spacingRight=3;rotatable=0;labelPosition=right;points=[];portConstraint=eastwest;" parent="oyIvjw0VSTPey54NWwhw-4" vertex="1">
          <mxGeometry y="104" width="160" height="8" as="geometry" />
        </mxCell>
        <mxCell id="oyIvjw0VSTPey54NWwhw-7" value="+ decribe(): " style="text;strokeColor=none;fillColor=none;align=left;verticalAlign=top;spacingLeft=4;spacingRight=4;overflow=hidden;rotatable=0;points=[[0,0.5],[1,0.5]];portConstraint=eastwest;" parent="oyIvjw0VSTPey54NWwhw-4" vertex="1">
          <mxGeometry y="112" width="160" height="26" as="geometry" />
        </mxCell>
        <mxCell id="L6i-tdebfPprP6MRGZE7-2" value="+ talk(): " style="text;strokeColor=none;fillColor=none;align=left;verticalAlign=top;spacingLeft=4;spacingRight=4;overflow=hidden;rotatable=0;points=[[0,0.5],[1,0.5]];portConstraint=eastwest;" parent="oyIvjw0VSTPey54NWwhw-4" vertex="1">
          <mxGeometry y="138" width="160" height="26" as="geometry" />
        </mxCell>
        <mxCell id="L6i-tdebfPprP6MRGZE7-3" value="+ hug(): " style="text;strokeColor=none;fillColor=none;align=left;verticalAlign=top;spacingLeft=4;spacingRight=4;overflow=hidden;rotatable=0;points=[[0,0.5],[1,0.5]];portConstraint=eastwest;" parent="oyIvjw0VSTPey54NWwhw-4" vertex="1">
          <mxGeometry y="164" width="160" height="26" as="geometry" />
        </mxCell>
        <mxCell id="L6i-tdebfPprP6MRGZE7-4" value="+ fight(Item): " style="text;strokeColor=none;fillColor=none;align=left;verticalAlign=top;spacingLeft=4;spacingRight=4;overflow=hidden;rotatable=0;points=[[0,0.5],[1,0.5]];portConstraint=eastwest;" parent="oyIvjw0VSTPey54NWwhw-4" vertex="1">
          <mxGeometry y="190" width="160" height="26" as="geometry" />
        </mxCell>
        <mxCell id="TS8DaK7s8F6NgAbnwows-0" value="Item" style="swimlane;fontStyle=1;align=center;verticalAlign=top;childLayout=stackLayout;horizontal=1;startSize=26;horizontalStack=0;resizeParent=1;resizeParentMax=0;resizeLast=0;collapsible=1;marginBottom=0;" parent="WwfHahmjMYo7YAKEdt79-1" vertex="1">
          <mxGeometry x="800" y="200" width="160" height="112" as="geometry" />
        </mxCell>
        <mxCell id="TS8DaK7s8F6NgAbnwows-1" value="- name: string" style="text;strokeColor=none;fillColor=none;align=left;verticalAlign=top;spacingLeft=4;spacingRight=4;overflow=hidden;rotatable=0;points=[[0,0.5],[1,0.5]];portConstraint=eastwest;" parent="TS8DaK7s8F6NgAbnwows-0" vertex="1">
          <mxGeometry y="26" width="160" height="26" as="geometry" />
        </mxCell>
        <mxCell id="L6i-tdebfPprP6MRGZE7-23" value="- description: string" style="text;strokeColor=none;fillColor=none;align=left;verticalAlign=top;spacingLeft=4;spacingRight=4;overflow=hidden;rotatable=0;points=[[0,0.5],[1,0.5]];portConstraint=eastwest;" parent="TS8DaK7s8F6NgAbnwows-0" vertex="1">
          <mxGeometry y="52" width="160" height="26" as="geometry" />
        </mxCell>
        <mxCell id="TS8DaK7s8F6NgAbnwows-2" value="" style="line;strokeWidth=1;fillColor=none;align=left;verticalAlign=middle;spacingTop=-1;spacingLeft=3;spacingRight=3;rotatable=0;labelPosition=right;points=[];portConstraint=eastwest;" parent="TS8DaK7s8F6NgAbnwows-0" vertex="1">
          <mxGeometry y="78" width="160" height="8" as="geometry" />
        </mxCell>
        <mxCell id="TS8DaK7s8F6NgAbnwows-3" value="+ describe(): " style="text;strokeColor=none;fillColor=none;align=left;verticalAlign=top;spacingLeft=4;spacingRight=4;overflow=hidden;rotatable=0;points=[[0,0.5],[1,0.5]];portConstraint=eastwest;" parent="TS8DaK7s8F6NgAbnwows-0" vertex="1">
          <mxGeometry y="86" width="160" height="26" as="geometry" />
        </mxCell>
        <mxCell id="lQ_xlSajlMmGC4Gu1-Oo-0" style="edgeStyle=orthogonalEdgeStyle;rounded=0;orthogonalLoop=1;jettySize=auto;html=1;exitX=0.5;exitY=0;exitDx=0;exitDy=0;entryX=0.244;entryY=1;entryDx=0;entryDy=0;entryPerimeter=0;endArrow=block;endFill=0;endSize=16;" parent="WwfHahmjMYo7YAKEdt79-1" source="L6i-tdebfPprP6MRGZE7-7" target="L6i-tdebfPprP6MRGZE7-4" edge="1">
          <mxGeometry relative="1" as="geometry" />
        </mxCell>
        <mxCell id="L6i-tdebfPprP6MRGZE7-7" value="Friend" style="swimlane;fontStyle=1;align=center;verticalAlign=top;childLayout=stackLayout;horizontal=1;startSize=26;horizontalStack=0;resizeParent=1;resizeParentMax=0;resizeLast=0;collapsible=1;marginBottom=0;" parent="WwfHahmjMYo7YAKEdt79-1" vertex="1">
          <mxGeometry x="70" y="550" width="160" height="86" as="geometry" />
        </mxCell>
        <mxCell id="L6i-tdebfPprP6MRGZE7-8" value=" " style="text;strokeColor=none;fillColor=none;align=left;verticalAlign=top;spacingLeft=4;spacingRight=4;overflow=hidden;rotatable=0;points=[[0,0.5],[1,0.5]];portConstraint=eastwest;" parent="L6i-tdebfPprP6MRGZE7-7" vertex="1">
          <mxGeometry y="26" width="160" height="26" as="geometry" />
        </mxCell>
        <mxCell id="L6i-tdebfPprP6MRGZE7-9" value="" style="line;strokeWidth=1;fillColor=none;align=left;verticalAlign=middle;spacingTop=-1;spacingLeft=3;spacingRight=3;rotatable=0;labelPosition=right;points=[];portConstraint=eastwest;" parent="L6i-tdebfPprP6MRGZE7-7" vertex="1">
          <mxGeometry y="52" width="160" height="8" as="geometry" />
        </mxCell>
        <mxCell id="L6i-tdebfPprP6MRGZE7-10" value="+ hug(): " style="text;strokeColor=none;fillColor=none;align=left;verticalAlign=top;spacingLeft=4;spacingRight=4;overflow=hidden;rotatable=0;points=[[0,0.5],[1,0.5]];portConstraint=eastwest;" parent="L6i-tdebfPprP6MRGZE7-7" vertex="1">
          <mxGeometry y="60" width="160" height="26" as="geometry" />
        </mxCell>
        <mxCell id="lQ_xlSajlMmGC4Gu1-Oo-1" style="edgeStyle=orthogonalEdgeStyle;rounded=0;orthogonalLoop=1;jettySize=auto;html=1;exitX=0.5;exitY=0;exitDx=0;exitDy=0;entryX=0.756;entryY=1;entryDx=0;entryDy=0;entryPerimeter=0;endArrow=block;endFill=0;endSize=16;" parent="WwfHahmjMYo7YAKEdt79-1" source="L6i-tdebfPprP6MRGZE7-11" target="L6i-tdebfPprP6MRGZE7-4" edge="1">
          <mxGeometry relative="1" as="geometry" />
        </mxCell>
        <mxCell id="L6i-tdebfPprP6MRGZE7-11" value="Enemy" style="swimlane;fontStyle=1;align=center;verticalAlign=top;childLayout=stackLayout;horizontal=1;startSize=26;horizontalStack=0;resizeParent=1;resizeParentMax=0;resizeLast=0;collapsible=1;marginBottom=0;" parent="WwfHahmjMYo7YAKEdt79-1" vertex="1">
          <mxGeometry x="340" y="550" width="160" height="112" as="geometry" />
        </mxCell>
        <mxCell id="L6i-tdebfPprP6MRGZE7-12" value="- num_of_enemy: int" style="text;strokeColor=none;fillColor=none;align=left;verticalAlign=top;spacingLeft=4;spacingRight=4;overflow=hidden;rotatable=0;points=[[0,0.5],[1,0.5]];portConstraint=eastwest;fontStyle=4" parent="L6i-tdebfPprP6MRGZE7-11" vertex="1">
          <mxGeometry y="26" width="160" height="26" as="geometry" />
        </mxCell>
        <mxCell id="L6i-tdebfPprP6MRGZE7-15" value="- weakness: Item" style="text;strokeColor=none;fillColor=none;align=left;verticalAlign=top;spacingLeft=4;spacingRight=4;overflow=hidden;rotatable=0;points=[[0,0.5],[1,0.5]];portConstraint=eastwest;fontStyle=0" parent="L6i-tdebfPprP6MRGZE7-11" vertex="1">
          <mxGeometry y="52" width="160" height="26" as="geometry" />
        </mxCell>
        <mxCell id="L6i-tdebfPprP6MRGZE7-13" value="" style="line;strokeWidth=1;fillColor=none;align=left;verticalAlign=middle;spacingTop=-1;spacingLeft=3;spacingRight=3;rotatable=0;labelPosition=right;points=[];portConstraint=eastwest;" parent="L6i-tdebfPprP6MRGZE7-11" vertex="1">
          <mxGeometry y="78" width="160" height="8" as="geometry" />
        </mxCell>
        <mxCell id="L6i-tdebfPprP6MRGZE7-14" value="+ fight(Item): Boolean" style="text;strokeColor=none;fillColor=none;align=left;verticalAlign=top;spacingLeft=4;spacingRight=4;overflow=hidden;rotatable=0;points=[[0,0.5],[1,0.5]];portConstraint=eastwest;" parent="L6i-tdebfPprP6MRGZE7-11" vertex="1">
          <mxGeometry y="86" width="160" height="26" as="geometry" />
        </mxCell>
        <mxCell id="lQ_xlSajlMmGC4Gu1-Oo-2" style="edgeStyle=orthogonalEdgeStyle;rounded=0;orthogonalLoop=1;jettySize=auto;html=1;exitX=1;exitY=0.5;exitDx=0;exitDy=0;entryX=0;entryY=0.5;entryDx=0;entryDy=0;endArrow=diamond;endFill=1;endSize=16;" parent="WwfHahmjMYo7YAKEdt79-1" source="L6i-tdebfPprP6MRGZE7-0" target="L6i-tdebfPprP6MRGZE7-16" edge="1">
          <mxGeometry relative="1" as="geometry" />
        </mxCell>
        <mxCell id="lQ_xlSajlMmGC4Gu1-Oo-4" value="1" style="edgeLabel;html=1;align=center;verticalAlign=middle;resizable=0;points=[];" parent="lQ_xlSajlMmGC4Gu1-Oo-2" vertex="1" connectable="0">
          <mxGeometry x="-0.7125" y="1" relative="1" as="geometry">
            <mxPoint as="offset" />
          </mxGeometry>
        </mxCell>
        <mxCell id="lQ_xlSajlMmGC4Gu1-Oo-8" value="1" style="edgeLabel;html=1;align=center;verticalAlign=middle;resizable=0;points=[];" parent="lQ_xlSajlMmGC4Gu1-Oo-2" vertex="1" connectable="0">
          <mxGeometry x="0.6042" y="1" relative="1" as="geometry">
            <mxPoint as="offset" />
          </mxGeometry>
        </mxCell>
        <mxCell id="lQ_xlSajlMmGC4Gu1-Oo-3" style="edgeStyle=orthogonalEdgeStyle;rounded=0;orthogonalLoop=1;jettySize=auto;html=1;exitX=0;exitY=0.5;exitDx=0;exitDy=0;entryX=1;entryY=0.5;entryDx=0;entryDy=0;endArrow=diamond;endFill=1;endSize=16;" parent="WwfHahmjMYo7YAKEdt79-1" source="L6i-tdebfPprP6MRGZE7-23" target="L6i-tdebfPprP6MRGZE7-16" edge="1">
          <mxGeometry relative="1" as="geometry" />
        </mxCell>
        <mxCell id="lQ_xlSajlMmGC4Gu1-Oo-6" value="1" style="edgeLabel;html=1;align=center;verticalAlign=middle;resizable=0;points=[];" parent="lQ_xlSajlMmGC4Gu1-Oo-3" vertex="1" connectable="0">
          <mxGeometry x="-0.7833" relative="1" as="geometry">
            <mxPoint as="offset" />
          </mxGeometry>
        </mxCell>
        <mxCell id="lQ_xlSajlMmGC4Gu1-Oo-9" value="1" style="edgeLabel;html=1;align=center;verticalAlign=middle;resizable=0;points=[];" parent="lQ_xlSajlMmGC4Gu1-Oo-3" vertex="1" connectable="0">
          <mxGeometry x="0.5611" relative="1" as="geometry">
            <mxPoint as="offset" />
          </mxGeometry>
        </mxCell>
      </root>
    </mxGraphModel>
  </diagram>
  <diagram id="AFbzr-vDVSvBVGxdJr4p" name="Map">
    <mxGraphModel dx="2775" dy="1535" grid="1" gridSize="10" guides="1" tooltips="1" connect="1" arrows="1" fold="1" page="0" pageScale="1" pageWidth="827" pageHeight="1169" math="0" shadow="0">
      <root>
        <mxCell id="OVYk0NNAAnW395-H4FSy-0" />
        <mxCell id="OVYk0NNAAnW395-H4FSy-1" parent="OVYk0NNAAnW395-H4FSy-0" />
        <mxCell id="OVYk0NNAAnW395-H4FSy-2" value="Cavern" style="rounded=0;whiteSpace=wrap;html=1;fillColor=#fff2cc;strokeColor=#d6b656;comic=1;sketch=1;sketchStyle=comic;fontFamily=Comic Sans MS;fontStyle=1;fontSize=25;" vertex="1" parent="OVYk0NNAAnW395-H4FSy-1">
          <mxGeometry x="-240" y="520" width="360" height="240" as="geometry" />
        </mxCell>
        <mxCell id="OVYk0NNAAnW395-H4FSy-5" value="Armoury" style="rounded=0;whiteSpace=wrap;html=1;fillColor=#fff2cc;strokeColor=#d6b656;comic=1;sketch=1;sketchStyle=comic;fontFamily=Comic Sans MS;fontStyle=1;fontSize=25;" vertex="1" parent="OVYk0NNAAnW395-H4FSy-1">
          <mxGeometry x="-240" y="800" width="360" height="240" as="geometry" />
        </mxCell>
        <mxCell id="OVYk0NNAAnW395-H4FSy-6" value="Lab" style="rounded=0;whiteSpace=wrap;html=1;fillColor=#fff2cc;strokeColor=#d6b656;comic=1;sketch=1;sketchStyle=comic;fontFamily=Comic Sans MS;fontStyle=1;fontSize=25;" vertex="1" parent="OVYk0NNAAnW395-H4FSy-1">
          <mxGeometry x="160" y="800" width="360" height="240" as="geometry" />
        </mxCell>
        <mxCell id="OVYk0NNAAnW395-H4FSy-7" value="" style="rounded=0;whiteSpace=wrap;html=1;comic=1;sketch=1;sketchStyle=comic;fontFamily=Comic Sans MS;fontSize=25;fillColor=#fff2cc;strokeColor=none;" vertex="1" parent="OVYk0NNAAnW395-H4FSy-1">
          <mxGeometry x="-80" y="740" width="40" height="80" as="geometry" />
        </mxCell>
        <mxCell id="OVYk0NNAAnW395-H4FSy-8" value="" style="rounded=0;whiteSpace=wrap;html=1;comic=1;sketch=1;sketchStyle=comic;fontFamily=Comic Sans MS;fontSize=25;fillColor=#fff2cc;strokeColor=none;" vertex="1" parent="OVYk0NNAAnW395-H4FSy-1">
          <mxGeometry x="100" y="900" width="80" height="40" as="geometry" />
        </mxCell>
        <mxCell id="OVYk0NNAAnW395-H4FSy-12" value="" style="endArrow=classic;startArrow=classic;html=1;rounded=0;sketch=1;sketchStyle=comic;fontFamily=Comic Sans MS;fontSize=25;fillColor=#000000;strokeWidth=6;" edge="1" parent="OVYk0NNAAnW395-H4FSy-1">
          <mxGeometry width="50" height="50" relative="1" as="geometry">
            <mxPoint x="340" y="720" as="sourcePoint" />
            <mxPoint x="340" y="560" as="targetPoint" />
          </mxGeometry>
        </mxCell>
        <mxCell id="OVYk0NNAAnW395-H4FSy-13" value="" style="endArrow=classic;startArrow=classic;html=1;rounded=0;sketch=1;sketchStyle=comic;fontFamily=Comic Sans MS;fontSize=25;fillColor=#000000;strokeWidth=6;" edge="1" parent="OVYk0NNAAnW395-H4FSy-1">
          <mxGeometry width="50" height="50" relative="1" as="geometry">
            <mxPoint x="260" y="639.5" as="sourcePoint" />
            <mxPoint x="420" y="639.5" as="targetPoint" />
          </mxGeometry>
        </mxCell>
        <mxCell id="OVYk0NNAAnW395-H4FSy-14" value="N" style="text;html=1;strokeColor=none;fillColor=none;align=center;verticalAlign=middle;whiteSpace=wrap;rounded=0;comic=1;sketch=1;sketchStyle=comic;fontFamily=Comic Sans MS;fontSize=25;fontStyle=1" vertex="1" parent="OVYk0NNAAnW395-H4FSy-1">
          <mxGeometry x="310" y="520" width="60" height="30" as="geometry" />
        </mxCell>
        <mxCell id="OVYk0NNAAnW395-H4FSy-15" value="W" style="text;html=1;strokeColor=none;fillColor=none;align=center;verticalAlign=middle;whiteSpace=wrap;rounded=0;comic=1;sketch=1;sketchStyle=comic;fontFamily=Comic Sans MS;fontSize=25;fontStyle=1" vertex="1" parent="OVYk0NNAAnW395-H4FSy-1">
          <mxGeometry x="220" y="625" width="60" height="30" as="geometry" />
        </mxCell>
        <mxCell id="OVYk0NNAAnW395-H4FSy-16" value="E" style="text;html=1;strokeColor=none;fillColor=none;align=center;verticalAlign=middle;whiteSpace=wrap;rounded=0;comic=1;sketch=1;sketchStyle=comic;fontFamily=Comic Sans MS;fontSize=25;fontStyle=1" vertex="1" parent="OVYk0NNAAnW395-H4FSy-1">
          <mxGeometry x="400" y="625" width="60" height="30" as="geometry" />
        </mxCell>
        <mxCell id="OVYk0NNAAnW395-H4FSy-17" value="S" style="text;html=1;strokeColor=none;fillColor=none;align=center;verticalAlign=middle;whiteSpace=wrap;rounded=0;comic=1;sketch=1;sketchStyle=comic;fontFamily=Comic Sans MS;fontSize=25;fontStyle=1" vertex="1" parent="OVYk0NNAAnW395-H4FSy-1">
          <mxGeometry x="310" y="720" width="60" height="30" as="geometry" />
        </mxCell>
      </root>
    </mxGraphModel>
  </diagram>
  <diagram id="ffKf7ePZHnewK1lnFlCh" name="lesson_1_class_diagram">
    <mxGraphModel dx="2375" dy="1535" grid="1" gridSize="10" guides="1" tooltips="1" connect="1" arrows="1" fold="1" page="0" pageScale="1" pageWidth="827" pageHeight="1169" math="0" shadow="0">
      <root>
        <mxCell id="CUKdeesfkfkw71Fh_q-b-0" />
        <mxCell id="CUKdeesfkfkw71Fh_q-b-1" parent="CUKdeesfkfkw71Fh_q-b-0" />
        <mxCell id="CUKdeesfkfkw71Fh_q-b-4" value="Room" style="swimlane;fontStyle=1;align=center;verticalAlign=top;childLayout=stackLayout;horizontal=1;startSize=26;horizontalStack=0;resizeParent=1;resizeParentMax=0;resizeLast=0;collapsible=1;marginBottom=0;comic=1;sketch=1;sketchStyle=comic;fontFamily=Comic Sans MS;fontSize=14;fillColor=#d5e8d4;strokeColor=#82b366;" parent="CUKdeesfkfkw71Fh_q-b-1" vertex="1">
          <mxGeometry x="120" y="540" width="200" height="164" as="geometry" />
        </mxCell>
        <mxCell id="CUKdeesfkfkw71Fh_q-b-5" value="+ name: str" style="text;strokeColor=none;fillColor=none;align=left;verticalAlign=top;spacingLeft=4;spacingRight=4;overflow=hidden;rotatable=0;points=[[0,0.5],[1,0.5]];portConstraint=eastwest;comic=1;sketch=1;sketchStyle=comic;fontFamily=Comic Sans MS;fontSize=14;" parent="CUKdeesfkfkw71Fh_q-b-4" vertex="1">
          <mxGeometry y="26" width="200" height="26" as="geometry" />
        </mxCell>
        <mxCell id="CUKdeesfkfkw71Fh_q-b-8" value="+ description: str" style="text;strokeColor=none;fillColor=none;align=left;verticalAlign=top;spacingLeft=4;spacingRight=4;overflow=hidden;rotatable=0;points=[[0,0.5],[1,0.5]];portConstraint=eastwest;comic=1;sketch=1;sketchStyle=comic;fontFamily=Comic Sans MS;fontSize=14;" parent="CUKdeesfkfkw71Fh_q-b-4" vertex="1">
          <mxGeometry y="52" width="200" height="26" as="geometry" />
        </mxCell>
        <mxCell id="CUKdeesfkfkw71Fh_q-b-9" value="+ linked_rooms: dict" style="text;strokeColor=none;fillColor=none;align=left;verticalAlign=top;spacingLeft=4;spacingRight=4;overflow=hidden;rotatable=0;points=[[0,0.5],[1,0.5]];portConstraint=eastwest;comic=1;sketch=1;sketchStyle=comic;fontFamily=Comic Sans MS;fontSize=14;" parent="CUKdeesfkfkw71Fh_q-b-4" vertex="1">
          <mxGeometry y="78" width="200" height="26" as="geometry" />
        </mxCell>
        <mxCell id="CUKdeesfkfkw71Fh_q-b-6" value="" style="line;strokeWidth=1;fillColor=none;align=left;verticalAlign=middle;spacingTop=-1;spacingLeft=3;spacingRight=3;rotatable=0;labelPosition=right;points=[];portConstraint=eastwest;comic=1;sketch=1;sketchStyle=comic;fontFamily=Comic Sans MS;fontSize=14;" parent="CUKdeesfkfkw71Fh_q-b-4" vertex="1">
          <mxGeometry y="104" width="200" height="8" as="geometry" />
        </mxCell>
        <mxCell id="CUKdeesfkfkw71Fh_q-b-7" value="+ describe()" style="text;strokeColor=none;fillColor=none;align=left;verticalAlign=top;spacingLeft=4;spacingRight=4;overflow=hidden;rotatable=0;points=[[0,0.5],[1,0.5]];portConstraint=eastwest;comic=1;sketch=1;sketchStyle=comic;fontFamily=Comic Sans MS;fontSize=14;" parent="CUKdeesfkfkw71Fh_q-b-4" vertex="1">
          <mxGeometry y="112" width="200" height="26" as="geometry" />
        </mxCell>
        <mxCell id="CUKdeesfkfkw71Fh_q-b-10" value="+ link_room(room, direction)" style="text;strokeColor=none;fillColor=none;align=left;verticalAlign=top;spacingLeft=4;spacingRight=4;overflow=hidden;rotatable=0;points=[[0,0.5],[1,0.5]];portConstraint=eastwest;comic=1;sketch=1;sketchStyle=comic;fontFamily=Comic Sans MS;fontSize=14;" parent="CUKdeesfkfkw71Fh_q-b-4" vertex="1">
          <mxGeometry y="138" width="200" height="26" as="geometry" />
        </mxCell>
      </root>
    </mxGraphModel>
  </diagram>
  <diagram name="lesson_2_class_diagram" id="NDH66hn2-X5_fwaWx5NG">
    <mxGraphModel dx="1418" dy="1535" grid="1" gridSize="10" guides="1" tooltips="1" connect="1" arrows="1" fold="1" page="0" pageScale="1" pageWidth="827" pageHeight="1169" math="0" shadow="0">
      <root>
        <mxCell id="uk3yn7uNW20EeWOsDely-0" />
        <mxCell id="uk3yn7uNW20EeWOsDely-1" parent="uk3yn7uNW20EeWOsDely-0" />
        <mxCell id="uk3yn7uNW20EeWOsDely-2" value="Room" style="swimlane;fontStyle=1;align=center;verticalAlign=top;childLayout=stackLayout;horizontal=1;startSize=26;horizontalStack=0;resizeParent=1;resizeParentMax=0;resizeLast=0;collapsible=1;marginBottom=0;comic=1;sketch=1;sketchStyle=comic;fontFamily=Comic Sans MS;fontSize=14;fillColor=#d5e8d4;strokeColor=#82b366;" parent="uk3yn7uNW20EeWOsDely-1" vertex="1">
          <mxGeometry x="120" y="540" width="200" height="190" as="geometry" />
        </mxCell>
        <mxCell id="uk3yn7uNW20EeWOsDely-3" value="+ name: str" style="text;strokeColor=none;fillColor=none;align=left;verticalAlign=top;spacingLeft=4;spacingRight=4;overflow=hidden;rotatable=0;points=[[0,0.5],[1,0.5]];portConstraint=eastwest;comic=1;sketch=1;sketchStyle=comic;fontFamily=Comic Sans MS;fontSize=14;" parent="uk3yn7uNW20EeWOsDely-2" vertex="1">
          <mxGeometry y="26" width="200" height="26" as="geometry" />
        </mxCell>
        <mxCell id="uk3yn7uNW20EeWOsDely-4" value="+ description: str" style="text;strokeColor=none;fillColor=none;align=left;verticalAlign=top;spacingLeft=4;spacingRight=4;overflow=hidden;rotatable=0;points=[[0,0.5],[1,0.5]];portConstraint=eastwest;comic=1;sketch=1;sketchStyle=comic;fontFamily=Comic Sans MS;fontSize=14;" parent="uk3yn7uNW20EeWOsDely-2" vertex="1">
          <mxGeometry y="52" width="200" height="26" as="geometry" />
        </mxCell>
        <mxCell id="uk3yn7uNW20EeWOsDely-5" value="+ linked_rooms: dict" style="text;strokeColor=none;fillColor=none;align=left;verticalAlign=top;spacingLeft=4;spacingRight=4;overflow=hidden;rotatable=0;points=[[0,0.5],[1,0.5]];portConstraint=eastwest;comic=1;sketch=1;sketchStyle=comic;fontFamily=Comic Sans MS;fontSize=14;" parent="uk3yn7uNW20EeWOsDely-2" vertex="1">
          <mxGeometry y="78" width="200" height="26" as="geometry" />
        </mxCell>
        <mxCell id="uk3yn7uNW20EeWOsDely-6" value="" style="line;strokeWidth=1;fillColor=none;align=left;verticalAlign=middle;spacingTop=-1;spacingLeft=3;spacingRight=3;rotatable=0;labelPosition=right;points=[];portConstraint=eastwest;comic=1;sketch=1;sketchStyle=comic;fontFamily=Comic Sans MS;fontSize=14;" parent="uk3yn7uNW20EeWOsDely-2" vertex="1">
          <mxGeometry y="104" width="200" height="8" as="geometry" />
        </mxCell>
        <mxCell id="uk3yn7uNW20EeWOsDely-7" value="+ describe()" style="text;strokeColor=none;fillColor=none;align=left;verticalAlign=top;spacingLeft=4;spacingRight=4;overflow=hidden;rotatable=0;points=[[0,0.5],[1,0.5]];portConstraint=eastwest;comic=1;sketch=1;sketchStyle=comic;fontFamily=Comic Sans MS;fontSize=14;" parent="uk3yn7uNW20EeWOsDely-2" vertex="1">
          <mxGeometry y="112" width="200" height="26" as="geometry" />
        </mxCell>
        <mxCell id="uk3yn7uNW20EeWOsDely-8" value="+ link_room(room, direction)" style="text;strokeColor=none;fillColor=none;align=left;verticalAlign=top;spacingLeft=4;spacingRight=4;overflow=hidden;rotatable=0;points=[[0,0.5],[1,0.5]];portConstraint=eastwest;comic=1;sketch=1;sketchStyle=comic;fontFamily=Comic Sans MS;fontSize=14;" parent="uk3yn7uNW20EeWOsDely-2" vertex="1">
          <mxGeometry y="138" width="200" height="26" as="geometry" />
        </mxCell>
        <mxCell id="uk3yn7uNW20EeWOsDely-9" value="+ move(direction): Room" style="text;strokeColor=none;fillColor=none;align=left;verticalAlign=top;spacingLeft=4;spacingRight=4;overflow=hidden;rotatable=0;points=[[0,0.5],[1,0.5]];portConstraint=eastwest;comic=1;sketch=1;sketchStyle=comic;fontFamily=Comic Sans MS;fontSize=14;" parent="uk3yn7uNW20EeWOsDely-2" vertex="1">
          <mxGeometry y="164" width="200" height="26" as="geometry" />
        </mxCell>
      </root>
    </mxGraphModel>
  </diagram>
  <diagram name="lesson_3_class_diagram" id="g3rr8ksLV0eS8n23cyxM">
    <mxGraphModel dx="954" dy="317" grid="1" gridSize="10" guides="1" tooltips="1" connect="1" arrows="1" fold="1" page="0" pageScale="1" pageWidth="827" pageHeight="1169" math="0" shadow="0">
      <root>
        <mxCell id="YAkOCXov_fQmgBedK5I4-0" />
        <mxCell id="YAkOCXov_fQmgBedK5I4-1" parent="YAkOCXov_fQmgBedK5I4-0" />
        <mxCell id="YAkOCXov_fQmgBedK5I4-2" value="Room" style="swimlane;fontStyle=1;align=center;verticalAlign=top;childLayout=stackLayout;horizontal=1;startSize=26;horizontalStack=0;resizeParent=1;resizeParentMax=0;resizeLast=0;collapsible=1;marginBottom=0;comic=1;sketch=1;sketchStyle=comic;fontFamily=Comic Sans MS;fontSize=14;fillColor=#d5e8d4;strokeColor=#82b366;" parent="YAkOCXov_fQmgBedK5I4-1" vertex="1">
          <mxGeometry x="120" y="520" width="200" height="216" as="geometry" />
        </mxCell>
        <mxCell id="YAkOCXov_fQmgBedK5I4-3" value="+ name: str" style="text;strokeColor=none;fillColor=none;align=left;verticalAlign=top;spacingLeft=4;spacingRight=4;overflow=hidden;rotatable=0;points=[[0,0.5],[1,0.5]];portConstraint=eastwest;comic=1;sketch=1;sketchStyle=comic;fontFamily=Comic Sans MS;fontSize=14;" parent="YAkOCXov_fQmgBedK5I4-2" vertex="1">
          <mxGeometry y="26" width="200" height="26" as="geometry" />
        </mxCell>
        <mxCell id="YAkOCXov_fQmgBedK5I4-4" value="+ description: str" style="text;strokeColor=none;fillColor=none;align=left;verticalAlign=top;spacingLeft=4;spacingRight=4;overflow=hidden;rotatable=0;points=[[0,0.5],[1,0.5]];portConstraint=eastwest;comic=1;sketch=1;sketchStyle=comic;fontFamily=Comic Sans MS;fontSize=14;" parent="YAkOCXov_fQmgBedK5I4-2" vertex="1">
          <mxGeometry y="52" width="200" height="26" as="geometry" />
        </mxCell>
        <mxCell id="YAkOCXov_fQmgBedK5I4-5" value="+ linked_rooms: dict" style="text;strokeColor=none;fillColor=none;align=left;verticalAlign=top;spacingLeft=4;spacingRight=4;overflow=hidden;rotatable=0;points=[[0,0.5],[1,0.5]];portConstraint=eastwest;comic=1;sketch=1;sketchStyle=comic;fontFamily=Comic Sans MS;fontSize=14;" parent="YAkOCXov_fQmgBedK5I4-2" vertex="1">
          <mxGeometry y="78" width="200" height="26" as="geometry" />
        </mxCell>
        <mxCell id="YAkOCXov_fQmgBedK5I4-20" value="+ character: Character" style="text;strokeColor=none;fillColor=none;align=left;verticalAlign=top;spacingLeft=4;spacingRight=4;overflow=hidden;rotatable=0;points=[[0,0.5],[1,0.5]];portConstraint=eastwest;comic=1;sketch=1;sketchStyle=comic;fontFamily=Comic Sans MS;fontSize=14;" parent="YAkOCXov_fQmgBedK5I4-2" vertex="1">
          <mxGeometry y="104" width="200" height="26" as="geometry" />
        </mxCell>
        <mxCell id="YAkOCXov_fQmgBedK5I4-6" value="" style="line;strokeWidth=1;fillColor=none;align=left;verticalAlign=middle;spacingTop=-1;spacingLeft=3;spacingRight=3;rotatable=0;labelPosition=right;points=[];portConstraint=eastwest;comic=1;sketch=1;sketchStyle=comic;fontFamily=Comic Sans MS;fontSize=14;" parent="YAkOCXov_fQmgBedK5I4-2" vertex="1">
          <mxGeometry y="130" width="200" height="8" as="geometry" />
        </mxCell>
        <mxCell id="YAkOCXov_fQmgBedK5I4-7" value="+ describe()" style="text;strokeColor=none;fillColor=none;align=left;verticalAlign=top;spacingLeft=4;spacingRight=4;overflow=hidden;rotatable=0;points=[[0,0.5],[1,0.5]];portConstraint=eastwest;comic=1;sketch=1;sketchStyle=comic;fontFamily=Comic Sans MS;fontSize=14;" parent="YAkOCXov_fQmgBedK5I4-2" vertex="1">
          <mxGeometry y="138" width="200" height="26" as="geometry" />
        </mxCell>
        <mxCell id="YAkOCXov_fQmgBedK5I4-8" value="+ link_room(room, direction)" style="text;strokeColor=none;fillColor=none;align=left;verticalAlign=top;spacingLeft=4;spacingRight=4;overflow=hidden;rotatable=0;points=[[0,0.5],[1,0.5]];portConstraint=eastwest;comic=1;sketch=1;sketchStyle=comic;fontFamily=Comic Sans MS;fontSize=14;" parent="YAkOCXov_fQmgBedK5I4-2" vertex="1">
          <mxGeometry y="164" width="200" height="26" as="geometry" />
        </mxCell>
        <mxCell id="YAkOCXov_fQmgBedK5I4-9" value="+ move(direction): Room" style="text;strokeColor=none;fillColor=none;align=left;verticalAlign=top;spacingLeft=4;spacingRight=4;overflow=hidden;rotatable=0;points=[[0,0.5],[1,0.5]];portConstraint=eastwest;comic=1;sketch=1;sketchStyle=comic;fontFamily=Comic Sans MS;fontSize=14;" parent="YAkOCXov_fQmgBedK5I4-2" vertex="1">
          <mxGeometry y="190" width="200" height="26" as="geometry" />
        </mxCell>
        <mxCell id="YAkOCXov_fQmgBedK5I4-10" value="Character" style="swimlane;fontStyle=1;align=center;verticalAlign=top;childLayout=stackLayout;horizontal=1;startSize=26;horizontalStack=0;resizeParent=1;resizeParentMax=0;resizeLast=0;collapsible=1;marginBottom=0;comic=1;sketch=1;sketchStyle=comic;fontFamily=Comic Sans MS;fontSize=14;fillColor=#d5e8d4;strokeColor=#82b366;" parent="YAkOCXov_fQmgBedK5I4-1" vertex="1">
          <mxGeometry x="360" y="520" width="200" height="216" as="geometry" />
        </mxCell>
        <mxCell id="YAkOCXov_fQmgBedK5I4-11" value="+ name: str" style="text;strokeColor=none;fillColor=none;align=left;verticalAlign=top;spacingLeft=4;spacingRight=4;overflow=hidden;rotatable=0;points=[[0,0.5],[1,0.5]];portConstraint=eastwest;comic=1;sketch=1;sketchStyle=comic;fontFamily=Comic Sans MS;fontSize=14;" parent="YAkOCXov_fQmgBedK5I4-10" vertex="1">
          <mxGeometry y="26" width="200" height="26" as="geometry" />
        </mxCell>
        <mxCell id="YAkOCXov_fQmgBedK5I4-12" value="+ description: str" style="text;strokeColor=none;fillColor=none;align=left;verticalAlign=top;spacingLeft=4;spacingRight=4;overflow=hidden;rotatable=0;points=[[0,0.5],[1,0.5]];portConstraint=eastwest;comic=1;sketch=1;sketchStyle=comic;fontFamily=Comic Sans MS;fontSize=14;" parent="YAkOCXov_fQmgBedK5I4-10" vertex="1">
          <mxGeometry y="52" width="200" height="26" as="geometry" />
        </mxCell>
        <mxCell id="YAkOCXov_fQmgBedK5I4-13" value="+ converstation: str" style="text;strokeColor=none;fillColor=none;align=left;verticalAlign=top;spacingLeft=4;spacingRight=4;overflow=hidden;rotatable=0;points=[[0,0.5],[1,0.5]];portConstraint=eastwest;comic=1;sketch=1;sketchStyle=comic;fontFamily=Comic Sans MS;fontSize=14;" parent="YAkOCXov_fQmgBedK5I4-10" vertex="1">
          <mxGeometry y="78" width="200" height="26" as="geometry" />
        </mxCell>
        <mxCell id="YAkOCXov_fQmgBedK5I4-14" value="" style="line;strokeWidth=1;fillColor=none;align=left;verticalAlign=middle;spacingTop=-1;spacingLeft=3;spacingRight=3;rotatable=0;labelPosition=right;points=[];portConstraint=eastwest;comic=1;sketch=1;sketchStyle=comic;fontFamily=Comic Sans MS;fontSize=14;" parent="YAkOCXov_fQmgBedK5I4-10" vertex="1">
          <mxGeometry y="104" width="200" height="8" as="geometry" />
        </mxCell>
        <mxCell id="YAkOCXov_fQmgBedK5I4-15" value="+ describe()" style="text;strokeColor=none;fillColor=none;align=left;verticalAlign=top;spacingLeft=4;spacingRight=4;overflow=hidden;rotatable=0;points=[[0,0.5],[1,0.5]];portConstraint=eastwest;comic=1;sketch=1;sketchStyle=comic;fontFamily=Comic Sans MS;fontSize=14;" parent="YAkOCXov_fQmgBedK5I4-10" vertex="1">
          <mxGeometry y="112" width="200" height="26" as="geometry" />
        </mxCell>
        <mxCell id="YAkOCXov_fQmgBedK5I4-16" value="+ talk()" style="text;strokeColor=none;fillColor=none;align=left;verticalAlign=top;spacingLeft=4;spacingRight=4;overflow=hidden;rotatable=0;points=[[0,0.5],[1,0.5]];portConstraint=eastwest;comic=1;sketch=1;sketchStyle=comic;fontFamily=Comic Sans MS;fontSize=14;" parent="YAkOCXov_fQmgBedK5I4-10" vertex="1">
          <mxGeometry y="138" width="200" height="26" as="geometry" />
        </mxCell>
        <mxCell id="YAkOCXov_fQmgBedK5I4-17" value="+ hug()" style="text;strokeColor=none;fillColor=none;align=left;verticalAlign=top;spacingLeft=4;spacingRight=4;overflow=hidden;rotatable=0;points=[[0,0.5],[1,0.5]];portConstraint=eastwest;comic=1;sketch=1;sketchStyle=comic;fontFamily=Comic Sans MS;fontSize=14;" parent="YAkOCXov_fQmgBedK5I4-10" vertex="1">
          <mxGeometry y="164" width="200" height="26" as="geometry" />
        </mxCell>
        <mxCell id="YAkOCXov_fQmgBedK5I4-18" value="+ fight()" style="text;strokeColor=none;fillColor=none;align=left;verticalAlign=top;spacingLeft=4;spacingRight=4;overflow=hidden;rotatable=0;points=[[0,0.5],[1,0.5]];portConstraint=eastwest;comic=1;sketch=1;sketchStyle=comic;fontFamily=Comic Sans MS;fontSize=14;" parent="YAkOCXov_fQmgBedK5I4-10" vertex="1">
          <mxGeometry y="190" width="200" height="26" as="geometry" />
        </mxCell>
      </root>
    </mxGraphModel>
  </diagram>
  <diagram name="lesson_4_class_diagram" id="q-w2lFch4B6ppD-DKy6O">
    <mxGraphModel dx="954" dy="317" grid="1" gridSize="10" guides="1" tooltips="1" connect="1" arrows="1" fold="1" page="0" pageScale="1" pageWidth="827" pageHeight="1169" math="0" shadow="0">
      <root>
        <mxCell id="0OiI06Csp5IrBncpfBtx-0" />
        <mxCell id="0OiI06Csp5IrBncpfBtx-1" parent="0OiI06Csp5IrBncpfBtx-0" />
        <mxCell id="0OiI06Csp5IrBncpfBtx-2" value="Room" style="swimlane;fontStyle=1;align=center;verticalAlign=top;childLayout=stackLayout;horizontal=1;startSize=26;horizontalStack=0;resizeParent=1;resizeParentMax=0;resizeLast=0;collapsible=1;marginBottom=0;comic=1;sketch=1;sketchStyle=comic;fontFamily=Comic Sans MS;fontSize=14;fillColor=#d5e8d4;strokeColor=#82b366;" parent="0OiI06Csp5IrBncpfBtx-1" vertex="1">
          <mxGeometry x="120" y="520" width="200" height="216" as="geometry" />
        </mxCell>
        <mxCell id="0OiI06Csp5IrBncpfBtx-3" value="+ name: str" style="text;strokeColor=none;fillColor=none;align=left;verticalAlign=top;spacingLeft=4;spacingRight=4;overflow=hidden;rotatable=0;points=[[0,0.5],[1,0.5]];portConstraint=eastwest;comic=1;sketch=1;sketchStyle=comic;fontFamily=Comic Sans MS;fontSize=14;" parent="0OiI06Csp5IrBncpfBtx-2" vertex="1">
          <mxGeometry y="26" width="200" height="26" as="geometry" />
        </mxCell>
        <mxCell id="0OiI06Csp5IrBncpfBtx-4" value="+ description: str" style="text;strokeColor=none;fillColor=none;align=left;verticalAlign=top;spacingLeft=4;spacingRight=4;overflow=hidden;rotatable=0;points=[[0,0.5],[1,0.5]];portConstraint=eastwest;comic=1;sketch=1;sketchStyle=comic;fontFamily=Comic Sans MS;fontSize=14;" parent="0OiI06Csp5IrBncpfBtx-2" vertex="1">
          <mxGeometry y="52" width="200" height="26" as="geometry" />
        </mxCell>
        <mxCell id="0OiI06Csp5IrBncpfBtx-5" value="+ linked_rooms: dict" style="text;strokeColor=none;fillColor=none;align=left;verticalAlign=top;spacingLeft=4;spacingRight=4;overflow=hidden;rotatable=0;points=[[0,0.5],[1,0.5]];portConstraint=eastwest;comic=1;sketch=1;sketchStyle=comic;fontFamily=Comic Sans MS;fontSize=14;" parent="0OiI06Csp5IrBncpfBtx-2" vertex="1">
          <mxGeometry y="78" width="200" height="26" as="geometry" />
        </mxCell>
        <mxCell id="0OiI06Csp5IrBncpfBtx-6" value="+ character: Character" style="text;strokeColor=none;fillColor=none;align=left;verticalAlign=top;spacingLeft=4;spacingRight=4;overflow=hidden;rotatable=0;points=[[0,0.5],[1,0.5]];portConstraint=eastwest;comic=1;sketch=1;sketchStyle=comic;fontFamily=Comic Sans MS;fontSize=14;" parent="0OiI06Csp5IrBncpfBtx-2" vertex="1">
          <mxGeometry y="104" width="200" height="26" as="geometry" />
        </mxCell>
        <mxCell id="0OiI06Csp5IrBncpfBtx-7" value="" style="line;strokeWidth=1;fillColor=none;align=left;verticalAlign=middle;spacingTop=-1;spacingLeft=3;spacingRight=3;rotatable=0;labelPosition=right;points=[];portConstraint=eastwest;comic=1;sketch=1;sketchStyle=comic;fontFamily=Comic Sans MS;fontSize=14;" parent="0OiI06Csp5IrBncpfBtx-2" vertex="1">
          <mxGeometry y="130" width="200" height="8" as="geometry" />
        </mxCell>
        <mxCell id="0OiI06Csp5IrBncpfBtx-8" value="+ describe()" style="text;strokeColor=none;fillColor=none;align=left;verticalAlign=top;spacingLeft=4;spacingRight=4;overflow=hidden;rotatable=0;points=[[0,0.5],[1,0.5]];portConstraint=eastwest;comic=1;sketch=1;sketchStyle=comic;fontFamily=Comic Sans MS;fontSize=14;" parent="0OiI06Csp5IrBncpfBtx-2" vertex="1">
          <mxGeometry y="138" width="200" height="26" as="geometry" />
        </mxCell>
        <mxCell id="0OiI06Csp5IrBncpfBtx-9" value="+ link_room(room, direction)" style="text;strokeColor=none;fillColor=none;align=left;verticalAlign=top;spacingLeft=4;spacingRight=4;overflow=hidden;rotatable=0;points=[[0,0.5],[1,0.5]];portConstraint=eastwest;comic=1;sketch=1;sketchStyle=comic;fontFamily=Comic Sans MS;fontSize=14;" parent="0OiI06Csp5IrBncpfBtx-2" vertex="1">
          <mxGeometry y="164" width="200" height="26" as="geometry" />
        </mxCell>
        <mxCell id="0OiI06Csp5IrBncpfBtx-10" value="+ move(direction): Room" style="text;strokeColor=none;fillColor=none;align=left;verticalAlign=top;spacingLeft=4;spacingRight=4;overflow=hidden;rotatable=0;points=[[0,0.5],[1,0.5]];portConstraint=eastwest;comic=1;sketch=1;sketchStyle=comic;fontFamily=Comic Sans MS;fontSize=14;" parent="0OiI06Csp5IrBncpfBtx-2" vertex="1">
          <mxGeometry y="190" width="200" height="26" as="geometry" />
        </mxCell>
        <mxCell id="0OiI06Csp5IrBncpfBtx-11" value="Character" style="swimlane;fontStyle=1;align=center;verticalAlign=top;childLayout=stackLayout;horizontal=1;startSize=26;horizontalStack=0;resizeParent=1;resizeParentMax=0;resizeLast=0;collapsible=1;marginBottom=0;comic=1;sketch=1;sketchStyle=comic;fontFamily=Comic Sans MS;fontSize=14;fillColor=#d5e8d4;strokeColor=#82b366;" parent="0OiI06Csp5IrBncpfBtx-1" vertex="1">
          <mxGeometry x="360" y="520" width="200" height="216" as="geometry" />
        </mxCell>
        <mxCell id="0OiI06Csp5IrBncpfBtx-12" value="+ name: str" style="text;strokeColor=none;fillColor=none;align=left;verticalAlign=top;spacingLeft=4;spacingRight=4;overflow=hidden;rotatable=0;points=[[0,0.5],[1,0.5]];portConstraint=eastwest;comic=1;sketch=1;sketchStyle=comic;fontFamily=Comic Sans MS;fontSize=14;" parent="0OiI06Csp5IrBncpfBtx-11" vertex="1">
          <mxGeometry y="26" width="200" height="26" as="geometry" />
        </mxCell>
        <mxCell id="0OiI06Csp5IrBncpfBtx-13" value="+ description: str" style="text;strokeColor=none;fillColor=none;align=left;verticalAlign=top;spacingLeft=4;spacingRight=4;overflow=hidden;rotatable=0;points=[[0,0.5],[1,0.5]];portConstraint=eastwest;comic=1;sketch=1;sketchStyle=comic;fontFamily=Comic Sans MS;fontSize=14;" parent="0OiI06Csp5IrBncpfBtx-11" vertex="1">
          <mxGeometry y="52" width="200" height="26" as="geometry" />
        </mxCell>
        <mxCell id="0OiI06Csp5IrBncpfBtx-14" value="+ converstation: str" style="text;strokeColor=none;fillColor=none;align=left;verticalAlign=top;spacingLeft=4;spacingRight=4;overflow=hidden;rotatable=0;points=[[0,0.5],[1,0.5]];portConstraint=eastwest;comic=1;sketch=1;sketchStyle=comic;fontFamily=Comic Sans MS;fontSize=14;" parent="0OiI06Csp5IrBncpfBtx-11" vertex="1">
          <mxGeometry y="78" width="200" height="26" as="geometry" />
        </mxCell>
        <mxCell id="0OiI06Csp5IrBncpfBtx-15" value="" style="line;strokeWidth=1;fillColor=none;align=left;verticalAlign=middle;spacingTop=-1;spacingLeft=3;spacingRight=3;rotatable=0;labelPosition=right;points=[];portConstraint=eastwest;comic=1;sketch=1;sketchStyle=comic;fontFamily=Comic Sans MS;fontSize=14;" parent="0OiI06Csp5IrBncpfBtx-11" vertex="1">
          <mxGeometry y="104" width="200" height="8" as="geometry" />
        </mxCell>
        <mxCell id="0OiI06Csp5IrBncpfBtx-16" value="+ describe()" style="text;strokeColor=none;fillColor=none;align=left;verticalAlign=top;spacingLeft=4;spacingRight=4;overflow=hidden;rotatable=0;points=[[0,0.5],[1,0.5]];portConstraint=eastwest;comic=1;sketch=1;sketchStyle=comic;fontFamily=Comic Sans MS;fontSize=14;" parent="0OiI06Csp5IrBncpfBtx-11" vertex="1">
          <mxGeometry y="112" width="200" height="26" as="geometry" />
        </mxCell>
        <mxCell id="0OiI06Csp5IrBncpfBtx-17" value="+ talk()" style="text;strokeColor=none;fillColor=none;align=left;verticalAlign=top;spacingLeft=4;spacingRight=4;overflow=hidden;rotatable=0;points=[[0,0.5],[1,0.5]];portConstraint=eastwest;comic=1;sketch=1;sketchStyle=comic;fontFamily=Comic Sans MS;fontSize=14;" parent="0OiI06Csp5IrBncpfBtx-11" vertex="1">
          <mxGeometry y="138" width="200" height="26" as="geometry" />
        </mxCell>
        <mxCell id="0OiI06Csp5IrBncpfBtx-18" value="+ hug()" style="text;strokeColor=none;fillColor=none;align=left;verticalAlign=top;spacingLeft=4;spacingRight=4;overflow=hidden;rotatable=0;points=[[0,0.5],[1,0.5]];portConstraint=eastwest;comic=1;sketch=1;sketchStyle=comic;fontFamily=Comic Sans MS;fontSize=14;" parent="0OiI06Csp5IrBncpfBtx-11" vertex="1">
          <mxGeometry y="164" width="200" height="26" as="geometry" />
        </mxCell>
        <mxCell id="0OiI06Csp5IrBncpfBtx-19" value="+ fight()" style="text;strokeColor=none;fillColor=none;align=left;verticalAlign=top;spacingLeft=4;spacingRight=4;overflow=hidden;rotatable=0;points=[[0,0.5],[1,0.5]];portConstraint=eastwest;comic=1;sketch=1;sketchStyle=comic;fontFamily=Comic Sans MS;fontSize=14;" parent="0OiI06Csp5IrBncpfBtx-11" vertex="1">
          <mxGeometry y="190" width="200" height="26" as="geometry" />
        </mxCell>
        <mxCell id="0OiI06Csp5IrBncpfBtx-33" style="rounded=0;orthogonalLoop=1;jettySize=auto;html=1;exitX=0.5;exitY=0;exitDx=0;exitDy=0;strokeColor=none;" parent="0OiI06Csp5IrBncpfBtx-1" source="0OiI06Csp5IrBncpfBtx-20" target="0OiI06Csp5IrBncpfBtx-11" edge="1">
          <mxGeometry relative="1" as="geometry" />
        </mxCell>
        <mxCell id="0OiI06Csp5IrBncpfBtx-34" style="edgeStyle=none;rounded=0;orthogonalLoop=1;jettySize=auto;html=1;exitX=0.5;exitY=0;exitDx=0;exitDy=0;strokeWidth=2;sketch=1;sketchStyle=comic;entryX=0.4;entryY=1.077;entryDx=0;entryDy=0;entryPerimeter=0;" parent="0OiI06Csp5IrBncpfBtx-1" source="0OiI06Csp5IrBncpfBtx-20" target="0OiI06Csp5IrBncpfBtx-19" edge="1">
          <mxGeometry relative="1" as="geometry" />
        </mxCell>
        <mxCell id="0OiI06Csp5IrBncpfBtx-20" value="Enemy" style="swimlane;fontStyle=1;align=center;verticalAlign=top;childLayout=stackLayout;horizontal=1;startSize=26;horizontalStack=0;resizeParent=1;resizeParentMax=0;resizeLast=0;collapsible=1;marginBottom=0;comic=1;sketch=1;sketchStyle=comic;fontFamily=Comic Sans MS;fontSize=14;fillColor=#d5e8d4;strokeColor=#82b366;" parent="0OiI06Csp5IrBncpfBtx-1" vertex="1">
          <mxGeometry x="240" y="840" width="200" height="86" as="geometry" />
        </mxCell>
        <mxCell id="0OiI06Csp5IrBncpfBtx-21" value="+ weakness: str" style="text;strokeColor=none;fillColor=none;align=left;verticalAlign=top;spacingLeft=4;spacingRight=4;overflow=hidden;rotatable=0;points=[[0,0.5],[1,0.5]];portConstraint=eastwest;comic=1;sketch=1;sketchStyle=comic;fontFamily=Comic Sans MS;fontSize=14;" parent="0OiI06Csp5IrBncpfBtx-20" vertex="1">
          <mxGeometry y="26" width="200" height="26" as="geometry" />
        </mxCell>
        <mxCell id="0OiI06Csp5IrBncpfBtx-24" value="" style="line;strokeWidth=1;fillColor=none;align=left;verticalAlign=middle;spacingTop=-1;spacingLeft=3;spacingRight=3;rotatable=0;labelPosition=right;points=[];portConstraint=eastwest;comic=1;sketch=1;sketchStyle=comic;fontFamily=Comic Sans MS;fontSize=14;" parent="0OiI06Csp5IrBncpfBtx-20" vertex="1">
          <mxGeometry y="52" width="200" height="8" as="geometry" />
        </mxCell>
        <mxCell id="0OiI06Csp5IrBncpfBtx-28" value="+ fight(item): bool" style="text;strokeColor=none;fillColor=none;align=left;verticalAlign=top;spacingLeft=4;spacingRight=4;overflow=hidden;rotatable=0;points=[[0,0.5],[1,0.5]];portConstraint=eastwest;comic=1;sketch=1;sketchStyle=comic;fontFamily=Comic Sans MS;fontSize=14;" parent="0OiI06Csp5IrBncpfBtx-20" vertex="1">
          <mxGeometry y="60" width="200" height="26" as="geometry" />
        </mxCell>
        <mxCell id="0OiI06Csp5IrBncpfBtx-35" style="edgeStyle=none;rounded=0;sketch=1;orthogonalLoop=1;jettySize=auto;html=1;exitX=0.5;exitY=0;exitDx=0;exitDy=0;sketchStyle=comic;strokeWidth=2;entryX=0.6;entryY=1.077;entryDx=0;entryDy=0;entryPerimeter=0;" parent="0OiI06Csp5IrBncpfBtx-1" source="0OiI06Csp5IrBncpfBtx-29" target="0OiI06Csp5IrBncpfBtx-19" edge="1">
          <mxGeometry relative="1" as="geometry">
            <mxPoint x="510" y="750" as="targetPoint" />
          </mxGeometry>
        </mxCell>
        <mxCell id="0OiI06Csp5IrBncpfBtx-29" value="Friend" style="swimlane;fontStyle=1;align=center;verticalAlign=top;childLayout=stackLayout;horizontal=1;startSize=26;horizontalStack=0;resizeParent=1;resizeParentMax=0;resizeLast=0;collapsible=1;marginBottom=0;comic=1;sketch=1;sketchStyle=comic;fontFamily=Comic Sans MS;fontSize=14;fillColor=#d5e8d4;strokeColor=#82b366;" parent="0OiI06Csp5IrBncpfBtx-1" vertex="1">
          <mxGeometry x="480" y="840" width="200" height="86" as="geometry" />
        </mxCell>
        <mxCell id="0OiI06Csp5IrBncpfBtx-30" value="+ " style="text;strokeColor=none;fillColor=none;align=left;verticalAlign=top;spacingLeft=4;spacingRight=4;overflow=hidden;rotatable=0;points=[[0,0.5],[1,0.5]];portConstraint=eastwest;comic=1;sketch=1;sketchStyle=comic;fontFamily=Comic Sans MS;fontSize=14;" parent="0OiI06Csp5IrBncpfBtx-29" vertex="1">
          <mxGeometry y="26" width="200" height="26" as="geometry" />
        </mxCell>
        <mxCell id="0OiI06Csp5IrBncpfBtx-31" value="" style="line;strokeWidth=1;fillColor=none;align=left;verticalAlign=middle;spacingTop=-1;spacingLeft=3;spacingRight=3;rotatable=0;labelPosition=right;points=[];portConstraint=eastwest;comic=1;sketch=1;sketchStyle=comic;fontFamily=Comic Sans MS;fontSize=14;" parent="0OiI06Csp5IrBncpfBtx-29" vertex="1">
          <mxGeometry y="52" width="200" height="8" as="geometry" />
        </mxCell>
        <mxCell id="0OiI06Csp5IrBncpfBtx-32" value="+ hug()" style="text;strokeColor=none;fillColor=none;align=left;verticalAlign=top;spacingLeft=4;spacingRight=4;overflow=hidden;rotatable=0;points=[[0,0.5],[1,0.5]];portConstraint=eastwest;comic=1;sketch=1;sketchStyle=comic;fontFamily=Comic Sans MS;fontSize=14;" parent="0OiI06Csp5IrBncpfBtx-29" vertex="1">
          <mxGeometry y="60" width="200" height="26" as="geometry" />
        </mxCell>
      </root>
    </mxGraphModel>
  </diagram>
  <diagram name="lesson_4_child_classes" id="GBONXi6UV16mMsGhXWSs">
    <mxGraphModel dx="1418" dy="420" grid="1" gridSize="10" guides="1" tooltips="1" connect="1" arrows="1" fold="1" page="0" pageScale="1" pageWidth="827" pageHeight="1169" math="0" shadow="0">
      <root>
        <mxCell id="GYAcs8-HVwqzOuWsdUXs-0" />
        <mxCell id="GYAcs8-HVwqzOuWsdUXs-1" parent="GYAcs8-HVwqzOuWsdUXs-0" />
        <mxCell id="GYAcs8-HVwqzOuWsdUXs-11" value="Friend" style="swimlane;fontStyle=1;align=center;verticalAlign=top;childLayout=stackLayout;horizontal=1;startSize=26;horizontalStack=0;resizeParent=1;resizeParentMax=0;resizeLast=0;collapsible=1;marginBottom=0;comic=1;sketch=1;sketchStyle=comic;fontFamily=Comic Sans MS;fontSize=14;fillColor=#d5e8d4;strokeColor=#82b366;" parent="GYAcs8-HVwqzOuWsdUXs-1" vertex="1">
          <mxGeometry x="360" y="520" width="200" height="216" as="geometry" />
        </mxCell>
        <mxCell id="GYAcs8-HVwqzOuWsdUXs-12" value="+ name: str" style="text;strokeColor=none;fillColor=none;align=left;verticalAlign=top;spacingLeft=4;spacingRight=4;overflow=hidden;rotatable=0;points=[[0,0.5],[1,0.5]];portConstraint=eastwest;comic=1;sketch=1;sketchStyle=comic;fontFamily=Comic Sans MS;fontSize=14;" parent="GYAcs8-HVwqzOuWsdUXs-11" vertex="1">
          <mxGeometry y="26" width="200" height="26" as="geometry" />
        </mxCell>
        <mxCell id="GYAcs8-HVwqzOuWsdUXs-13" value="+ description: str" style="text;strokeColor=none;fillColor=none;align=left;verticalAlign=top;spacingLeft=4;spacingRight=4;overflow=hidden;rotatable=0;points=[[0,0.5],[1,0.5]];portConstraint=eastwest;comic=1;sketch=1;sketchStyle=comic;fontFamily=Comic Sans MS;fontSize=14;" parent="GYAcs8-HVwqzOuWsdUXs-11" vertex="1">
          <mxGeometry y="52" width="200" height="26" as="geometry" />
        </mxCell>
        <mxCell id="GYAcs8-HVwqzOuWsdUXs-14" value="+ converstation: str" style="text;strokeColor=none;fillColor=none;align=left;verticalAlign=top;spacingLeft=4;spacingRight=4;overflow=hidden;rotatable=0;points=[[0,0.5],[1,0.5]];portConstraint=eastwest;comic=1;sketch=1;sketchStyle=comic;fontFamily=Comic Sans MS;fontSize=14;" parent="GYAcs8-HVwqzOuWsdUXs-11" vertex="1">
          <mxGeometry y="78" width="200" height="26" as="geometry" />
        </mxCell>
        <mxCell id="GYAcs8-HVwqzOuWsdUXs-15" value="" style="line;strokeWidth=1;fillColor=none;align=left;verticalAlign=middle;spacingTop=-1;spacingLeft=3;spacingRight=3;rotatable=0;labelPosition=right;points=[];portConstraint=eastwest;comic=1;sketch=1;sketchStyle=comic;fontFamily=Comic Sans MS;fontSize=14;" parent="GYAcs8-HVwqzOuWsdUXs-11" vertex="1">
          <mxGeometry y="104" width="200" height="8" as="geometry" />
        </mxCell>
        <mxCell id="GYAcs8-HVwqzOuWsdUXs-16" value="+ describe()" style="text;strokeColor=none;fillColor=none;align=left;verticalAlign=top;spacingLeft=4;spacingRight=4;overflow=hidden;rotatable=0;points=[[0,0.5],[1,0.5]];portConstraint=eastwest;comic=1;sketch=1;sketchStyle=comic;fontFamily=Comic Sans MS;fontSize=14;" parent="GYAcs8-HVwqzOuWsdUXs-11" vertex="1">
          <mxGeometry y="112" width="200" height="26" as="geometry" />
        </mxCell>
        <mxCell id="GYAcs8-HVwqzOuWsdUXs-17" value="+ talk()" style="text;strokeColor=none;fillColor=none;align=left;verticalAlign=top;spacingLeft=4;spacingRight=4;overflow=hidden;rotatable=0;points=[[0,0.5],[1,0.5]];portConstraint=eastwest;comic=1;sketch=1;sketchStyle=comic;fontFamily=Comic Sans MS;fontSize=14;" parent="GYAcs8-HVwqzOuWsdUXs-11" vertex="1">
          <mxGeometry y="138" width="200" height="26" as="geometry" />
        </mxCell>
        <mxCell id="GYAcs8-HVwqzOuWsdUXs-18" value="+ hug()" style="text;strokeColor=none;fillColor=none;align=left;verticalAlign=top;spacingLeft=4;spacingRight=4;overflow=hidden;rotatable=0;points=[[0,0.5],[1,0.5]];portConstraint=eastwest;comic=1;sketch=1;sketchStyle=comic;fontFamily=Comic Sans MS;fontSize=14;fontStyle=1;fontColor=#007FFF;" parent="GYAcs8-HVwqzOuWsdUXs-11" vertex="1">
          <mxGeometry y="164" width="200" height="26" as="geometry" />
        </mxCell>
        <mxCell id="GYAcs8-HVwqzOuWsdUXs-19" value="+ fight()" style="text;strokeColor=none;fillColor=none;align=left;verticalAlign=top;spacingLeft=4;spacingRight=4;overflow=hidden;rotatable=0;points=[[0,0.5],[1,0.5]];portConstraint=eastwest;comic=1;sketch=1;sketchStyle=comic;fontFamily=Comic Sans MS;fontSize=14;" parent="GYAcs8-HVwqzOuWsdUXs-11" vertex="1">
          <mxGeometry y="190" width="200" height="26" as="geometry" />
        </mxCell>
        <mxCell id="GYAcs8-HVwqzOuWsdUXs-20" style="rounded=0;orthogonalLoop=1;jettySize=auto;html=1;exitX=0.5;exitY=0;exitDx=0;exitDy=0;strokeColor=none;" parent="GYAcs8-HVwqzOuWsdUXs-1" target="GYAcs8-HVwqzOuWsdUXs-11" edge="1">
          <mxGeometry relative="1" as="geometry">
            <mxPoint x="210" y="1020" as="sourcePoint" />
          </mxGeometry>
        </mxCell>
        <mxCell id="GYAcs8-HVwqzOuWsdUXs-31" value="Enemy" style="swimlane;fontStyle=1;align=center;verticalAlign=top;childLayout=stackLayout;horizontal=1;startSize=26;horizontalStack=0;resizeParent=1;resizeParentMax=0;resizeLast=0;collapsible=1;marginBottom=0;comic=1;sketch=1;sketchStyle=comic;fontFamily=Comic Sans MS;fontSize=14;fillColor=#d5e8d4;strokeColor=#82b366;" parent="GYAcs8-HVwqzOuWsdUXs-1" vertex="1">
          <mxGeometry x="120" y="520" width="200" height="242" as="geometry" />
        </mxCell>
        <mxCell id="GYAcs8-HVwqzOuWsdUXs-32" value="+ name: str" style="text;strokeColor=none;fillColor=none;align=left;verticalAlign=top;spacingLeft=4;spacingRight=4;overflow=hidden;rotatable=0;points=[[0,0.5],[1,0.5]];portConstraint=eastwest;comic=1;sketch=1;sketchStyle=comic;fontFamily=Comic Sans MS;fontSize=14;" parent="GYAcs8-HVwqzOuWsdUXs-31" vertex="1">
          <mxGeometry y="26" width="200" height="26" as="geometry" />
        </mxCell>
        <mxCell id="GYAcs8-HVwqzOuWsdUXs-33" value="+ description: str" style="text;strokeColor=none;fillColor=none;align=left;verticalAlign=top;spacingLeft=4;spacingRight=4;overflow=hidden;rotatable=0;points=[[0,0.5],[1,0.5]];portConstraint=eastwest;comic=1;sketch=1;sketchStyle=comic;fontFamily=Comic Sans MS;fontSize=14;" parent="GYAcs8-HVwqzOuWsdUXs-31" vertex="1">
          <mxGeometry y="52" width="200" height="26" as="geometry" />
        </mxCell>
        <mxCell id="GYAcs8-HVwqzOuWsdUXs-34" value="+ converstation: str" style="text;strokeColor=none;fillColor=none;align=left;verticalAlign=top;spacingLeft=4;spacingRight=4;overflow=hidden;rotatable=0;points=[[0,0.5],[1,0.5]];portConstraint=eastwest;comic=1;sketch=1;sketchStyle=comic;fontFamily=Comic Sans MS;fontSize=14;" parent="GYAcs8-HVwqzOuWsdUXs-31" vertex="1">
          <mxGeometry y="78" width="200" height="26" as="geometry" />
        </mxCell>
        <mxCell id="GYAcs8-HVwqzOuWsdUXs-40" value="+ weakness: str" style="text;strokeColor=none;fillColor=none;align=left;verticalAlign=top;spacingLeft=4;spacingRight=4;overflow=hidden;rotatable=0;points=[[0,0.5],[1,0.5]];portConstraint=eastwest;comic=1;sketch=1;sketchStyle=comic;fontFamily=Comic Sans MS;fontSize=14;" parent="GYAcs8-HVwqzOuWsdUXs-31" vertex="1">
          <mxGeometry y="104" width="200" height="26" as="geometry" />
        </mxCell>
        <mxCell id="GYAcs8-HVwqzOuWsdUXs-35" value="" style="line;strokeWidth=1;fillColor=none;align=left;verticalAlign=middle;spacingTop=-1;spacingLeft=3;spacingRight=3;rotatable=0;labelPosition=right;points=[];portConstraint=eastwest;comic=1;sketch=1;sketchStyle=comic;fontFamily=Comic Sans MS;fontSize=14;" parent="GYAcs8-HVwqzOuWsdUXs-31" vertex="1">
          <mxGeometry y="130" width="200" height="8" as="geometry" />
        </mxCell>
        <mxCell id="GYAcs8-HVwqzOuWsdUXs-36" value="+ describe()" style="text;strokeColor=none;fillColor=none;align=left;verticalAlign=top;spacingLeft=4;spacingRight=4;overflow=hidden;rotatable=0;points=[[0,0.5],[1,0.5]];portConstraint=eastwest;comic=1;sketch=1;sketchStyle=comic;fontFamily=Comic Sans MS;fontSize=14;" parent="GYAcs8-HVwqzOuWsdUXs-31" vertex="1">
          <mxGeometry y="138" width="200" height="26" as="geometry" />
        </mxCell>
        <mxCell id="GYAcs8-HVwqzOuWsdUXs-37" value="+ talk()" style="text;strokeColor=none;fillColor=none;align=left;verticalAlign=top;spacingLeft=4;spacingRight=4;overflow=hidden;rotatable=0;points=[[0,0.5],[1,0.5]];portConstraint=eastwest;comic=1;sketch=1;sketchStyle=comic;fontFamily=Comic Sans MS;fontSize=14;" parent="GYAcs8-HVwqzOuWsdUXs-31" vertex="1">
          <mxGeometry y="164" width="200" height="26" as="geometry" />
        </mxCell>
        <mxCell id="GYAcs8-HVwqzOuWsdUXs-38" value="+ hug()" style="text;strokeColor=none;fillColor=none;align=left;verticalAlign=top;spacingLeft=4;spacingRight=4;overflow=hidden;rotatable=0;points=[[0,0.5],[1,0.5]];portConstraint=eastwest;comic=1;sketch=1;sketchStyle=comic;fontFamily=Comic Sans MS;fontSize=14;" parent="GYAcs8-HVwqzOuWsdUXs-31" vertex="1">
          <mxGeometry y="190" width="200" height="26" as="geometry" />
        </mxCell>
        <mxCell id="GYAcs8-HVwqzOuWsdUXs-39" value="+ fight(item): bool" style="text;strokeColor=none;fillColor=none;align=left;verticalAlign=top;spacingLeft=4;spacingRight=4;overflow=hidden;rotatable=0;points=[[0,0.5],[1,0.5]];portConstraint=eastwest;comic=1;sketch=1;sketchStyle=comic;fontFamily=Comic Sans MS;fontSize=14;fontColor=#007FFF;fontStyle=1" parent="GYAcs8-HVwqzOuWsdUXs-31" vertex="1">
          <mxGeometry y="216" width="200" height="26" as="geometry" />
        </mxCell>
      </root>
    </mxGraphModel>
  </diagram>
  <diagram name="lesson_5_class_diagram" id="ejDVg936vUUgLq9QN5-F">
    <mxGraphModel dx="1418" dy="1535" grid="1" gridSize="10" guides="1" tooltips="1" connect="1" arrows="1" fold="1" page="0" pageScale="1" pageWidth="827" pageHeight="1169" math="0" shadow="0">
      <root>
        <mxCell id="2ldDJCGKhOKOF-DsXLdr-0" />
        <mxCell id="2ldDJCGKhOKOF-DsXLdr-1" parent="2ldDJCGKhOKOF-DsXLdr-0" />
        <mxCell id="2ldDJCGKhOKOF-DsXLdr-2" value="Room" style="swimlane;fontStyle=1;align=center;verticalAlign=top;childLayout=stackLayout;horizontal=1;startSize=26;horizontalStack=0;resizeParent=1;resizeParentMax=0;resizeLast=0;collapsible=1;marginBottom=0;comic=1;sketch=1;sketchStyle=comic;fontFamily=Comic Sans MS;fontSize=14;fillColor=#d5e8d4;strokeColor=#82b366;" parent="2ldDJCGKhOKOF-DsXLdr-1" vertex="1">
          <mxGeometry x="120" y="520" width="200" height="242" as="geometry" />
        </mxCell>
        <mxCell id="2ldDJCGKhOKOF-DsXLdr-3" value="+ name: str" style="text;strokeColor=none;fillColor=none;align=left;verticalAlign=top;spacingLeft=4;spacingRight=4;overflow=hidden;rotatable=0;points=[[0,0.5],[1,0.5]];portConstraint=eastwest;comic=1;sketch=1;sketchStyle=comic;fontFamily=Comic Sans MS;fontSize=14;" parent="2ldDJCGKhOKOF-DsXLdr-2" vertex="1">
          <mxGeometry y="26" width="200" height="26" as="geometry" />
        </mxCell>
        <mxCell id="2ldDJCGKhOKOF-DsXLdr-4" value="+ description: str" style="text;strokeColor=none;fillColor=none;align=left;verticalAlign=top;spacingLeft=4;spacingRight=4;overflow=hidden;rotatable=0;points=[[0,0.5],[1,0.5]];portConstraint=eastwest;comic=1;sketch=1;sketchStyle=comic;fontFamily=Comic Sans MS;fontSize=14;" parent="2ldDJCGKhOKOF-DsXLdr-2" vertex="1">
          <mxGeometry y="52" width="200" height="26" as="geometry" />
        </mxCell>
        <mxCell id="2ldDJCGKhOKOF-DsXLdr-5" value="+ linked_rooms: dict" style="text;strokeColor=none;fillColor=none;align=left;verticalAlign=top;spacingLeft=4;spacingRight=4;overflow=hidden;rotatable=0;points=[[0,0.5],[1,0.5]];portConstraint=eastwest;comic=1;sketch=1;sketchStyle=comic;fontFamily=Comic Sans MS;fontSize=14;" parent="2ldDJCGKhOKOF-DsXLdr-2" vertex="1">
          <mxGeometry y="78" width="200" height="26" as="geometry" />
        </mxCell>
        <mxCell id="2ldDJCGKhOKOF-DsXLdr-6" value="+ character: Character" style="text;strokeColor=none;fillColor=none;align=left;verticalAlign=top;spacingLeft=4;spacingRight=4;overflow=hidden;rotatable=0;points=[[0,0.5],[1,0.5]];portConstraint=eastwest;comic=1;sketch=1;sketchStyle=comic;fontFamily=Comic Sans MS;fontSize=14;" parent="2ldDJCGKhOKOF-DsXLdr-2" vertex="1">
          <mxGeometry y="104" width="200" height="26" as="geometry" />
        </mxCell>
        <mxCell id="OXHYMvqrrgtEE8lFg_Np-1" value="+ item: Item" style="text;strokeColor=none;fillColor=none;align=left;verticalAlign=top;spacingLeft=4;spacingRight=4;overflow=hidden;rotatable=0;points=[[0,0.5],[1,0.5]];portConstraint=eastwest;comic=1;sketch=1;sketchStyle=comic;fontFamily=Comic Sans MS;fontSize=14;" parent="2ldDJCGKhOKOF-DsXLdr-2" vertex="1">
          <mxGeometry y="130" width="200" height="26" as="geometry" />
        </mxCell>
        <mxCell id="2ldDJCGKhOKOF-DsXLdr-7" value="" style="line;strokeWidth=1;fillColor=none;align=left;verticalAlign=middle;spacingTop=-1;spacingLeft=3;spacingRight=3;rotatable=0;labelPosition=right;points=[];portConstraint=eastwest;comic=1;sketch=1;sketchStyle=comic;fontFamily=Comic Sans MS;fontSize=14;" parent="2ldDJCGKhOKOF-DsXLdr-2" vertex="1">
          <mxGeometry y="156" width="200" height="8" as="geometry" />
        </mxCell>
        <mxCell id="2ldDJCGKhOKOF-DsXLdr-8" value="+ describe()" style="text;strokeColor=none;fillColor=none;align=left;verticalAlign=top;spacingLeft=4;spacingRight=4;overflow=hidden;rotatable=0;points=[[0,0.5],[1,0.5]];portConstraint=eastwest;comic=1;sketch=1;sketchStyle=comic;fontFamily=Comic Sans MS;fontSize=14;" parent="2ldDJCGKhOKOF-DsXLdr-2" vertex="1">
          <mxGeometry y="164" width="200" height="26" as="geometry" />
        </mxCell>
        <mxCell id="2ldDJCGKhOKOF-DsXLdr-9" value="+ link_room(room, direction)" style="text;strokeColor=none;fillColor=none;align=left;verticalAlign=top;spacingLeft=4;spacingRight=4;overflow=hidden;rotatable=0;points=[[0,0.5],[1,0.5]];portConstraint=eastwest;comic=1;sketch=1;sketchStyle=comic;fontFamily=Comic Sans MS;fontSize=14;" parent="2ldDJCGKhOKOF-DsXLdr-2" vertex="1">
          <mxGeometry y="190" width="200" height="26" as="geometry" />
        </mxCell>
        <mxCell id="2ldDJCGKhOKOF-DsXLdr-10" value="+ move(direction): Room" style="text;strokeColor=none;fillColor=none;align=left;verticalAlign=top;spacingLeft=4;spacingRight=4;overflow=hidden;rotatable=0;points=[[0,0.5],[1,0.5]];portConstraint=eastwest;comic=1;sketch=1;sketchStyle=comic;fontFamily=Comic Sans MS;fontSize=14;" parent="2ldDJCGKhOKOF-DsXLdr-2" vertex="1">
          <mxGeometry y="216" width="200" height="26" as="geometry" />
        </mxCell>
        <mxCell id="2ldDJCGKhOKOF-DsXLdr-11" value="Character" style="swimlane;fontStyle=1;align=center;verticalAlign=top;childLayout=stackLayout;horizontal=1;startSize=26;horizontalStack=0;resizeParent=1;resizeParentMax=0;resizeLast=0;collapsible=1;marginBottom=0;comic=1;sketch=1;sketchStyle=comic;fontFamily=Comic Sans MS;fontSize=14;fillColor=#d5e8d4;strokeColor=#82b366;" parent="2ldDJCGKhOKOF-DsXLdr-1" vertex="1">
          <mxGeometry x="360" y="520" width="200" height="216" as="geometry" />
        </mxCell>
        <mxCell id="2ldDJCGKhOKOF-DsXLdr-12" value="+ name: str" style="text;strokeColor=none;fillColor=none;align=left;verticalAlign=top;spacingLeft=4;spacingRight=4;overflow=hidden;rotatable=0;points=[[0,0.5],[1,0.5]];portConstraint=eastwest;comic=1;sketch=1;sketchStyle=comic;fontFamily=Comic Sans MS;fontSize=14;" parent="2ldDJCGKhOKOF-DsXLdr-11" vertex="1">
          <mxGeometry y="26" width="200" height="26" as="geometry" />
        </mxCell>
        <mxCell id="2ldDJCGKhOKOF-DsXLdr-13" value="+ description: str" style="text;strokeColor=none;fillColor=none;align=left;verticalAlign=top;spacingLeft=4;spacingRight=4;overflow=hidden;rotatable=0;points=[[0,0.5],[1,0.5]];portConstraint=eastwest;comic=1;sketch=1;sketchStyle=comic;fontFamily=Comic Sans MS;fontSize=14;" parent="2ldDJCGKhOKOF-DsXLdr-11" vertex="1">
          <mxGeometry y="52" width="200" height="26" as="geometry" />
        </mxCell>
        <mxCell id="2ldDJCGKhOKOF-DsXLdr-14" value="+ converstation: str" style="text;strokeColor=none;fillColor=none;align=left;verticalAlign=top;spacingLeft=4;spacingRight=4;overflow=hidden;rotatable=0;points=[[0,0.5],[1,0.5]];portConstraint=eastwest;comic=1;sketch=1;sketchStyle=comic;fontFamily=Comic Sans MS;fontSize=14;" parent="2ldDJCGKhOKOF-DsXLdr-11" vertex="1">
          <mxGeometry y="78" width="200" height="26" as="geometry" />
        </mxCell>
        <mxCell id="2ldDJCGKhOKOF-DsXLdr-15" value="" style="line;strokeWidth=1;fillColor=none;align=left;verticalAlign=middle;spacingTop=-1;spacingLeft=3;spacingRight=3;rotatable=0;labelPosition=right;points=[];portConstraint=eastwest;comic=1;sketch=1;sketchStyle=comic;fontFamily=Comic Sans MS;fontSize=14;" parent="2ldDJCGKhOKOF-DsXLdr-11" vertex="1">
          <mxGeometry y="104" width="200" height="8" as="geometry" />
        </mxCell>
        <mxCell id="2ldDJCGKhOKOF-DsXLdr-16" value="+ describe()" style="text;strokeColor=none;fillColor=none;align=left;verticalAlign=top;spacingLeft=4;spacingRight=4;overflow=hidden;rotatable=0;points=[[0,0.5],[1,0.5]];portConstraint=eastwest;comic=1;sketch=1;sketchStyle=comic;fontFamily=Comic Sans MS;fontSize=14;" parent="2ldDJCGKhOKOF-DsXLdr-11" vertex="1">
          <mxGeometry y="112" width="200" height="26" as="geometry" />
        </mxCell>
        <mxCell id="2ldDJCGKhOKOF-DsXLdr-17" value="+ talk()" style="text;strokeColor=none;fillColor=none;align=left;verticalAlign=top;spacingLeft=4;spacingRight=4;overflow=hidden;rotatable=0;points=[[0,0.5],[1,0.5]];portConstraint=eastwest;comic=1;sketch=1;sketchStyle=comic;fontFamily=Comic Sans MS;fontSize=14;" parent="2ldDJCGKhOKOF-DsXLdr-11" vertex="1">
          <mxGeometry y="138" width="200" height="26" as="geometry" />
        </mxCell>
        <mxCell id="2ldDJCGKhOKOF-DsXLdr-18" value="+ hug()" style="text;strokeColor=none;fillColor=none;align=left;verticalAlign=top;spacingLeft=4;spacingRight=4;overflow=hidden;rotatable=0;points=[[0,0.5],[1,0.5]];portConstraint=eastwest;comic=1;sketch=1;sketchStyle=comic;fontFamily=Comic Sans MS;fontSize=14;" parent="2ldDJCGKhOKOF-DsXLdr-11" vertex="1">
          <mxGeometry y="164" width="200" height="26" as="geometry" />
        </mxCell>
        <mxCell id="2ldDJCGKhOKOF-DsXLdr-19" value="+ fight()" style="text;strokeColor=none;fillColor=none;align=left;verticalAlign=top;spacingLeft=4;spacingRight=4;overflow=hidden;rotatable=0;points=[[0,0.5],[1,0.5]];portConstraint=eastwest;comic=1;sketch=1;sketchStyle=comic;fontFamily=Comic Sans MS;fontSize=14;" parent="2ldDJCGKhOKOF-DsXLdr-11" vertex="1">
          <mxGeometry y="190" width="200" height="26" as="geometry" />
        </mxCell>
        <mxCell id="2ldDJCGKhOKOF-DsXLdr-20" style="rounded=0;orthogonalLoop=1;jettySize=auto;html=1;exitX=0.5;exitY=0;exitDx=0;exitDy=0;strokeColor=none;" parent="2ldDJCGKhOKOF-DsXLdr-1" source="2ldDJCGKhOKOF-DsXLdr-22" target="2ldDJCGKhOKOF-DsXLdr-11" edge="1">
          <mxGeometry relative="1" as="geometry" />
        </mxCell>
        <mxCell id="2ldDJCGKhOKOF-DsXLdr-21" style="edgeStyle=none;rounded=0;orthogonalLoop=1;jettySize=auto;html=1;exitX=0.5;exitY=0;exitDx=0;exitDy=0;strokeWidth=2;sketch=1;sketchStyle=comic;entryX=0.4;entryY=1.077;entryDx=0;entryDy=0;entryPerimeter=0;" parent="2ldDJCGKhOKOF-DsXLdr-1" source="2ldDJCGKhOKOF-DsXLdr-22" target="2ldDJCGKhOKOF-DsXLdr-19" edge="1">
          <mxGeometry relative="1" as="geometry" />
        </mxCell>
        <mxCell id="2ldDJCGKhOKOF-DsXLdr-22" value="Enemy" style="swimlane;fontStyle=1;align=center;verticalAlign=top;childLayout=stackLayout;horizontal=1;startSize=26;horizontalStack=0;resizeParent=1;resizeParentMax=0;resizeLast=0;collapsible=1;marginBottom=0;comic=1;sketch=1;sketchStyle=comic;fontFamily=Comic Sans MS;fontSize=14;fillColor=#d5e8d4;strokeColor=#82b366;" parent="2ldDJCGKhOKOF-DsXLdr-1" vertex="1">
          <mxGeometry x="240" y="840" width="200" height="86" as="geometry" />
        </mxCell>
        <mxCell id="2ldDJCGKhOKOF-DsXLdr-23" value="+ weakness: str" style="text;strokeColor=none;fillColor=none;align=left;verticalAlign=top;spacingLeft=4;spacingRight=4;overflow=hidden;rotatable=0;points=[[0,0.5],[1,0.5]];portConstraint=eastwest;comic=1;sketch=1;sketchStyle=comic;fontFamily=Comic Sans MS;fontSize=14;" parent="2ldDJCGKhOKOF-DsXLdr-22" vertex="1">
          <mxGeometry y="26" width="200" height="26" as="geometry" />
        </mxCell>
        <mxCell id="2ldDJCGKhOKOF-DsXLdr-24" value="" style="line;strokeWidth=1;fillColor=none;align=left;verticalAlign=middle;spacingTop=-1;spacingLeft=3;spacingRight=3;rotatable=0;labelPosition=right;points=[];portConstraint=eastwest;comic=1;sketch=1;sketchStyle=comic;fontFamily=Comic Sans MS;fontSize=14;" parent="2ldDJCGKhOKOF-DsXLdr-22" vertex="1">
          <mxGeometry y="52" width="200" height="8" as="geometry" />
        </mxCell>
        <mxCell id="2ldDJCGKhOKOF-DsXLdr-25" value="+ fight(item): bool" style="text;strokeColor=none;fillColor=none;align=left;verticalAlign=top;spacingLeft=4;spacingRight=4;overflow=hidden;rotatable=0;points=[[0,0.5],[1,0.5]];portConstraint=eastwest;comic=1;sketch=1;sketchStyle=comic;fontFamily=Comic Sans MS;fontSize=14;" parent="2ldDJCGKhOKOF-DsXLdr-22" vertex="1">
          <mxGeometry y="60" width="200" height="26" as="geometry" />
        </mxCell>
        <mxCell id="2ldDJCGKhOKOF-DsXLdr-26" style="edgeStyle=none;rounded=0;sketch=1;orthogonalLoop=1;jettySize=auto;html=1;exitX=0.5;exitY=0;exitDx=0;exitDy=0;sketchStyle=comic;strokeWidth=2;entryX=0.6;entryY=1.077;entryDx=0;entryDy=0;entryPerimeter=0;" parent="2ldDJCGKhOKOF-DsXLdr-1" source="2ldDJCGKhOKOF-DsXLdr-27" target="2ldDJCGKhOKOF-DsXLdr-19" edge="1">
          <mxGeometry relative="1" as="geometry">
            <mxPoint x="510" y="750" as="targetPoint" />
          </mxGeometry>
        </mxCell>
        <mxCell id="2ldDJCGKhOKOF-DsXLdr-27" value="Friend" style="swimlane;fontStyle=1;align=center;verticalAlign=top;childLayout=stackLayout;horizontal=1;startSize=26;horizontalStack=0;resizeParent=1;resizeParentMax=0;resizeLast=0;collapsible=1;marginBottom=0;comic=1;sketch=1;sketchStyle=comic;fontFamily=Comic Sans MS;fontSize=14;fillColor=#d5e8d4;strokeColor=#82b366;" parent="2ldDJCGKhOKOF-DsXLdr-1" vertex="1">
          <mxGeometry x="480" y="840" width="200" height="86" as="geometry" />
        </mxCell>
        <mxCell id="2ldDJCGKhOKOF-DsXLdr-28" value="+ " style="text;strokeColor=none;fillColor=none;align=left;verticalAlign=top;spacingLeft=4;spacingRight=4;overflow=hidden;rotatable=0;points=[[0,0.5],[1,0.5]];portConstraint=eastwest;comic=1;sketch=1;sketchStyle=comic;fontFamily=Comic Sans MS;fontSize=14;" parent="2ldDJCGKhOKOF-DsXLdr-27" vertex="1">
          <mxGeometry y="26" width="200" height="26" as="geometry" />
        </mxCell>
        <mxCell id="2ldDJCGKhOKOF-DsXLdr-29" value="" style="line;strokeWidth=1;fillColor=none;align=left;verticalAlign=middle;spacingTop=-1;spacingLeft=3;spacingRight=3;rotatable=0;labelPosition=right;points=[];portConstraint=eastwest;comic=1;sketch=1;sketchStyle=comic;fontFamily=Comic Sans MS;fontSize=14;" parent="2ldDJCGKhOKOF-DsXLdr-27" vertex="1">
          <mxGeometry y="52" width="200" height="8" as="geometry" />
        </mxCell>
        <mxCell id="2ldDJCGKhOKOF-DsXLdr-30" value="+ hug()" style="text;strokeColor=none;fillColor=none;align=left;verticalAlign=top;spacingLeft=4;spacingRight=4;overflow=hidden;rotatable=0;points=[[0,0.5],[1,0.5]];portConstraint=eastwest;comic=1;sketch=1;sketchStyle=comic;fontFamily=Comic Sans MS;fontSize=14;" parent="2ldDJCGKhOKOF-DsXLdr-27" vertex="1">
          <mxGeometry y="60" width="200" height="26" as="geometry" />
        </mxCell>
        <mxCell id="OXHYMvqrrgtEE8lFg_Np-2" value="Item" style="swimlane;fontStyle=1;align=center;verticalAlign=top;childLayout=stackLayout;horizontal=1;startSize=26;horizontalStack=0;resizeParent=1;resizeParentMax=0;resizeLast=0;collapsible=1;marginBottom=0;comic=1;sketch=1;sketchStyle=comic;fontFamily=Comic Sans MS;fontSize=14;fillColor=#d5e8d4;strokeColor=#82b366;" parent="2ldDJCGKhOKOF-DsXLdr-1" vertex="1">
          <mxGeometry x="600" y="520" width="200" height="112" as="geometry" />
        </mxCell>
        <mxCell id="OXHYMvqrrgtEE8lFg_Np-3" value="+ name: str" style="text;strokeColor=none;fillColor=none;align=left;verticalAlign=top;spacingLeft=4;spacingRight=4;overflow=hidden;rotatable=0;points=[[0,0.5],[1,0.5]];portConstraint=eastwest;comic=1;sketch=1;sketchStyle=comic;fontFamily=Comic Sans MS;fontSize=14;" parent="OXHYMvqrrgtEE8lFg_Np-2" vertex="1">
          <mxGeometry y="26" width="200" height="26" as="geometry" />
        </mxCell>
        <mxCell id="OXHYMvqrrgtEE8lFg_Np-4" value="+ description: str" style="text;strokeColor=none;fillColor=none;align=left;verticalAlign=top;spacingLeft=4;spacingRight=4;overflow=hidden;rotatable=0;points=[[0,0.5],[1,0.5]];portConstraint=eastwest;comic=1;sketch=1;sketchStyle=comic;fontFamily=Comic Sans MS;fontSize=14;" parent="OXHYMvqrrgtEE8lFg_Np-2" vertex="1">
          <mxGeometry y="52" width="200" height="26" as="geometry" />
        </mxCell>
        <mxCell id="OXHYMvqrrgtEE8lFg_Np-6" value="" style="line;strokeWidth=1;fillColor=none;align=left;verticalAlign=middle;spacingTop=-1;spacingLeft=3;spacingRight=3;rotatable=0;labelPosition=right;points=[];portConstraint=eastwest;comic=1;sketch=1;sketchStyle=comic;fontFamily=Comic Sans MS;fontSize=14;" parent="OXHYMvqrrgtEE8lFg_Np-2" vertex="1">
          <mxGeometry y="78" width="200" height="8" as="geometry" />
        </mxCell>
        <mxCell id="OXHYMvqrrgtEE8lFg_Np-7" value="+ describe()" style="text;strokeColor=none;fillColor=none;align=left;verticalAlign=top;spacingLeft=4;spacingRight=4;overflow=hidden;rotatable=0;points=[[0,0.5],[1,0.5]];portConstraint=eastwest;comic=1;sketch=1;sketchStyle=comic;fontFamily=Comic Sans MS;fontSize=14;" parent="OXHYMvqrrgtEE8lFg_Np-2" vertex="1">
          <mxGeometry y="86" width="200" height="26" as="geometry" />
        </mxCell>
      </root>
    </mxGraphModel>
  </diagram>
  <diagram name="lesson_7_class_diagram" id="-I4GuQoc81wqRQcNteCT">
    <mxGraphModel dx="954" dy="317" grid="1" gridSize="10" guides="1" tooltips="1" connect="1" arrows="1" fold="1" page="0" pageScale="1" pageWidth="827" pageHeight="1169" math="0" shadow="0">
      <root>
        <mxCell id="k3g9_PYJ2_Jj__ovf3NL-0" />
        <mxCell id="k3g9_PYJ2_Jj__ovf3NL-1" parent="k3g9_PYJ2_Jj__ovf3NL-0" />
        <mxCell id="k3g9_PYJ2_Jj__ovf3NL-2" value="Room" style="swimlane;fontStyle=1;align=center;verticalAlign=top;childLayout=stackLayout;horizontal=1;startSize=26;horizontalStack=0;resizeParent=1;resizeParentMax=0;resizeLast=0;collapsible=1;marginBottom=0;comic=1;sketch=1;sketchStyle=comic;fontFamily=Comic Sans MS;fontSize=14;fillColor=#d5e8d4;strokeColor=#82b366;" parent="k3g9_PYJ2_Jj__ovf3NL-1" vertex="1">
          <mxGeometry x="120" y="520" width="200" height="242" as="geometry" />
        </mxCell>
        <mxCell id="k3g9_PYJ2_Jj__ovf3NL-3" value="+ name: str" style="text;strokeColor=none;fillColor=none;align=left;verticalAlign=top;spacingLeft=4;spacingRight=4;overflow=hidden;rotatable=0;points=[[0,0.5],[1,0.5]];portConstraint=eastwest;comic=1;sketch=1;sketchStyle=comic;fontFamily=Comic Sans MS;fontSize=14;" parent="k3g9_PYJ2_Jj__ovf3NL-2" vertex="1">
          <mxGeometry y="26" width="200" height="26" as="geometry" />
        </mxCell>
        <mxCell id="k3g9_PYJ2_Jj__ovf3NL-4" value="+ description: str" style="text;strokeColor=none;fillColor=none;align=left;verticalAlign=top;spacingLeft=4;spacingRight=4;overflow=hidden;rotatable=0;points=[[0,0.5],[1,0.5]];portConstraint=eastwest;comic=1;sketch=1;sketchStyle=comic;fontFamily=Comic Sans MS;fontSize=14;" parent="k3g9_PYJ2_Jj__ovf3NL-2" vertex="1">
          <mxGeometry y="52" width="200" height="26" as="geometry" />
        </mxCell>
        <mxCell id="k3g9_PYJ2_Jj__ovf3NL-5" value="+ linked_rooms: dict" style="text;strokeColor=none;fillColor=none;align=left;verticalAlign=top;spacingLeft=4;spacingRight=4;overflow=hidden;rotatable=0;points=[[0,0.5],[1,0.5]];portConstraint=eastwest;comic=1;sketch=1;sketchStyle=comic;fontFamily=Comic Sans MS;fontSize=14;" parent="k3g9_PYJ2_Jj__ovf3NL-2" vertex="1">
          <mxGeometry y="78" width="200" height="26" as="geometry" />
        </mxCell>
        <mxCell id="k3g9_PYJ2_Jj__ovf3NL-6" value="+ character: Character" style="text;strokeColor=none;fillColor=none;align=left;verticalAlign=top;spacingLeft=4;spacingRight=4;overflow=hidden;rotatable=0;points=[[0,0.5],[1,0.5]];portConstraint=eastwest;comic=1;sketch=1;sketchStyle=comic;fontFamily=Comic Sans MS;fontSize=14;" parent="k3g9_PYJ2_Jj__ovf3NL-2" vertex="1">
          <mxGeometry y="104" width="200" height="26" as="geometry" />
        </mxCell>
        <mxCell id="k3g9_PYJ2_Jj__ovf3NL-7" value="+ item: Item" style="text;strokeColor=none;fillColor=none;align=left;verticalAlign=top;spacingLeft=4;spacingRight=4;overflow=hidden;rotatable=0;points=[[0,0.5],[1,0.5]];portConstraint=eastwest;comic=1;sketch=1;sketchStyle=comic;fontFamily=Comic Sans MS;fontSize=14;" parent="k3g9_PYJ2_Jj__ovf3NL-2" vertex="1">
          <mxGeometry y="130" width="200" height="26" as="geometry" />
        </mxCell>
        <mxCell id="k3g9_PYJ2_Jj__ovf3NL-8" value="" style="line;strokeWidth=1;fillColor=none;align=left;verticalAlign=middle;spacingTop=-1;spacingLeft=3;spacingRight=3;rotatable=0;labelPosition=right;points=[];portConstraint=eastwest;comic=1;sketch=1;sketchStyle=comic;fontFamily=Comic Sans MS;fontSize=14;" parent="k3g9_PYJ2_Jj__ovf3NL-2" vertex="1">
          <mxGeometry y="156" width="200" height="8" as="geometry" />
        </mxCell>
        <mxCell id="k3g9_PYJ2_Jj__ovf3NL-9" value="+ describe()" style="text;strokeColor=none;fillColor=none;align=left;verticalAlign=top;spacingLeft=4;spacingRight=4;overflow=hidden;rotatable=0;points=[[0,0.5],[1,0.5]];portConstraint=eastwest;comic=1;sketch=1;sketchStyle=comic;fontFamily=Comic Sans MS;fontSize=14;" parent="k3g9_PYJ2_Jj__ovf3NL-2" vertex="1">
          <mxGeometry y="164" width="200" height="26" as="geometry" />
        </mxCell>
        <mxCell id="k3g9_PYJ2_Jj__ovf3NL-10" value="+ link_room(room, direction)" style="text;strokeColor=none;fillColor=none;align=left;verticalAlign=top;spacingLeft=4;spacingRight=4;overflow=hidden;rotatable=0;points=[[0,0.5],[1,0.5]];portConstraint=eastwest;comic=1;sketch=1;sketchStyle=comic;fontFamily=Comic Sans MS;fontSize=14;" parent="k3g9_PYJ2_Jj__ovf3NL-2" vertex="1">
          <mxGeometry y="190" width="200" height="26" as="geometry" />
        </mxCell>
        <mxCell id="k3g9_PYJ2_Jj__ovf3NL-11" value="+ move(direction): Room" style="text;strokeColor=none;fillColor=none;align=left;verticalAlign=top;spacingLeft=4;spacingRight=4;overflow=hidden;rotatable=0;points=[[0,0.5],[1,0.5]];portConstraint=eastwest;comic=1;sketch=1;sketchStyle=comic;fontFamily=Comic Sans MS;fontSize=14;" parent="k3g9_PYJ2_Jj__ovf3NL-2" vertex="1">
          <mxGeometry y="216" width="200" height="26" as="geometry" />
        </mxCell>
        <mxCell id="k3g9_PYJ2_Jj__ovf3NL-12" value="Character" style="swimlane;fontStyle=1;align=center;verticalAlign=top;childLayout=stackLayout;horizontal=1;startSize=26;horizontalStack=0;resizeParent=1;resizeParentMax=0;resizeLast=0;collapsible=1;marginBottom=0;comic=1;sketch=1;sketchStyle=comic;fontFamily=Comic Sans MS;fontSize=14;fillColor=#d5e8d4;strokeColor=#82b366;" parent="k3g9_PYJ2_Jj__ovf3NL-1" vertex="1">
          <mxGeometry x="360" y="520" width="200" height="216" as="geometry" />
        </mxCell>
        <mxCell id="k3g9_PYJ2_Jj__ovf3NL-13" value="+ name: str" style="text;strokeColor=none;fillColor=none;align=left;verticalAlign=top;spacingLeft=4;spacingRight=4;overflow=hidden;rotatable=0;points=[[0,0.5],[1,0.5]];portConstraint=eastwest;comic=1;sketch=1;sketchStyle=comic;fontFamily=Comic Sans MS;fontSize=14;" parent="k3g9_PYJ2_Jj__ovf3NL-12" vertex="1">
          <mxGeometry y="26" width="200" height="26" as="geometry" />
        </mxCell>
        <mxCell id="k3g9_PYJ2_Jj__ovf3NL-14" value="+ description: str" style="text;strokeColor=none;fillColor=none;align=left;verticalAlign=top;spacingLeft=4;spacingRight=4;overflow=hidden;rotatable=0;points=[[0,0.5],[1,0.5]];portConstraint=eastwest;comic=1;sketch=1;sketchStyle=comic;fontFamily=Comic Sans MS;fontSize=14;" parent="k3g9_PYJ2_Jj__ovf3NL-12" vertex="1">
          <mxGeometry y="52" width="200" height="26" as="geometry" />
        </mxCell>
        <mxCell id="k3g9_PYJ2_Jj__ovf3NL-15" value="+ converstation: str" style="text;strokeColor=none;fillColor=none;align=left;verticalAlign=top;spacingLeft=4;spacingRight=4;overflow=hidden;rotatable=0;points=[[0,0.5],[1,0.5]];portConstraint=eastwest;comic=1;sketch=1;sketchStyle=comic;fontFamily=Comic Sans MS;fontSize=14;" parent="k3g9_PYJ2_Jj__ovf3NL-12" vertex="1">
          <mxGeometry y="78" width="200" height="26" as="geometry" />
        </mxCell>
        <mxCell id="k3g9_PYJ2_Jj__ovf3NL-16" value="" style="line;strokeWidth=1;fillColor=none;align=left;verticalAlign=middle;spacingTop=-1;spacingLeft=3;spacingRight=3;rotatable=0;labelPosition=right;points=[];portConstraint=eastwest;comic=1;sketch=1;sketchStyle=comic;fontFamily=Comic Sans MS;fontSize=14;" parent="k3g9_PYJ2_Jj__ovf3NL-12" vertex="1">
          <mxGeometry y="104" width="200" height="8" as="geometry" />
        </mxCell>
        <mxCell id="k3g9_PYJ2_Jj__ovf3NL-17" value="+ describe()" style="text;strokeColor=none;fillColor=none;align=left;verticalAlign=top;spacingLeft=4;spacingRight=4;overflow=hidden;rotatable=0;points=[[0,0.5],[1,0.5]];portConstraint=eastwest;comic=1;sketch=1;sketchStyle=comic;fontFamily=Comic Sans MS;fontSize=14;" parent="k3g9_PYJ2_Jj__ovf3NL-12" vertex="1">
          <mxGeometry y="112" width="200" height="26" as="geometry" />
        </mxCell>
        <mxCell id="k3g9_PYJ2_Jj__ovf3NL-18" value="+ talk()" style="text;strokeColor=none;fillColor=none;align=left;verticalAlign=top;spacingLeft=4;spacingRight=4;overflow=hidden;rotatable=0;points=[[0,0.5],[1,0.5]];portConstraint=eastwest;comic=1;sketch=1;sketchStyle=comic;fontFamily=Comic Sans MS;fontSize=14;" parent="k3g9_PYJ2_Jj__ovf3NL-12" vertex="1">
          <mxGeometry y="138" width="200" height="26" as="geometry" />
        </mxCell>
        <mxCell id="k3g9_PYJ2_Jj__ovf3NL-19" value="+ hug()" style="text;strokeColor=none;fillColor=none;align=left;verticalAlign=top;spacingLeft=4;spacingRight=4;overflow=hidden;rotatable=0;points=[[0,0.5],[1,0.5]];portConstraint=eastwest;comic=1;sketch=1;sketchStyle=comic;fontFamily=Comic Sans MS;fontSize=14;" parent="k3g9_PYJ2_Jj__ovf3NL-12" vertex="1">
          <mxGeometry y="164" width="200" height="26" as="geometry" />
        </mxCell>
        <mxCell id="k3g9_PYJ2_Jj__ovf3NL-20" value="+ fight(item): bool" style="text;strokeColor=none;fillColor=none;align=left;verticalAlign=top;spacingLeft=4;spacingRight=4;overflow=hidden;rotatable=0;points=[[0,0.5],[1,0.5]];portConstraint=eastwest;comic=1;sketch=1;sketchStyle=comic;fontFamily=Comic Sans MS;fontSize=14;" parent="k3g9_PYJ2_Jj__ovf3NL-12" vertex="1">
          <mxGeometry y="190" width="200" height="26" as="geometry" />
        </mxCell>
        <mxCell id="k3g9_PYJ2_Jj__ovf3NL-21" style="rounded=0;orthogonalLoop=1;jettySize=auto;html=1;exitX=0.5;exitY=0;exitDx=0;exitDy=0;strokeColor=none;" parent="k3g9_PYJ2_Jj__ovf3NL-1" source="k3g9_PYJ2_Jj__ovf3NL-23" target="k3g9_PYJ2_Jj__ovf3NL-12" edge="1">
          <mxGeometry relative="1" as="geometry" />
        </mxCell>
        <mxCell id="k3g9_PYJ2_Jj__ovf3NL-22" style="edgeStyle=none;rounded=0;orthogonalLoop=1;jettySize=auto;html=1;exitX=0.5;exitY=0;exitDx=0;exitDy=0;strokeWidth=2;sketch=1;sketchStyle=comic;entryX=0.4;entryY=1.077;entryDx=0;entryDy=0;entryPerimeter=0;" parent="k3g9_PYJ2_Jj__ovf3NL-1" source="k3g9_PYJ2_Jj__ovf3NL-23" target="k3g9_PYJ2_Jj__ovf3NL-20" edge="1">
          <mxGeometry relative="1" as="geometry" />
        </mxCell>
        <mxCell id="k3g9_PYJ2_Jj__ovf3NL-23" value="Enemy" style="swimlane;fontStyle=1;align=center;verticalAlign=top;childLayout=stackLayout;horizontal=1;startSize=26;horizontalStack=0;resizeParent=1;resizeParentMax=0;resizeLast=0;collapsible=1;marginBottom=0;comic=1;sketch=1;sketchStyle=comic;fontFamily=Comic Sans MS;fontSize=14;fillColor=#d5e8d4;strokeColor=#82b366;" parent="k3g9_PYJ2_Jj__ovf3NL-1" vertex="1">
          <mxGeometry x="240" y="840" width="200" height="138" as="geometry" />
        </mxCell>
        <mxCell id="k3g9_PYJ2_Jj__ovf3NL-24" value="+ num_of_enemy: int" style="text;strokeColor=none;fillColor=none;align=left;verticalAlign=top;spacingLeft=4;spacingRight=4;overflow=hidden;rotatable=0;points=[[0,0.5],[1,0.5]];portConstraint=eastwest;comic=1;sketch=1;sketchStyle=comic;fontFamily=Comic Sans MS;fontSize=14;fontStyle=4" parent="k3g9_PYJ2_Jj__ovf3NL-23" vertex="1">
          <mxGeometry y="26" width="200" height="26" as="geometry" />
        </mxCell>
        <mxCell id="k3g9_PYJ2_Jj__ovf3NL-37" value="+ weakness: str" style="text;strokeColor=none;fillColor=none;align=left;verticalAlign=top;spacingLeft=4;spacingRight=4;overflow=hidden;rotatable=0;points=[[0,0.5],[1,0.5]];portConstraint=eastwest;comic=1;sketch=1;sketchStyle=comic;fontFamily=Comic Sans MS;fontSize=14;" parent="k3g9_PYJ2_Jj__ovf3NL-23" vertex="1">
          <mxGeometry y="52" width="200" height="26" as="geometry" />
        </mxCell>
        <mxCell id="k3g9_PYJ2_Jj__ovf3NL-25" value="" style="line;strokeWidth=1;fillColor=none;align=left;verticalAlign=middle;spacingTop=-1;spacingLeft=3;spacingRight=3;rotatable=0;labelPosition=right;points=[];portConstraint=eastwest;comic=1;sketch=1;sketchStyle=comic;fontFamily=Comic Sans MS;fontSize=14;" parent="k3g9_PYJ2_Jj__ovf3NL-23" vertex="1">
          <mxGeometry y="78" width="200" height="8" as="geometry" />
        </mxCell>
        <mxCell id="k3g9_PYJ2_Jj__ovf3NL-26" value="+ fight(item): bool" style="text;strokeColor=none;fillColor=none;align=left;verticalAlign=top;spacingLeft=4;spacingRight=4;overflow=hidden;rotatable=0;points=[[0,0.5],[1,0.5]];portConstraint=eastwest;comic=1;sketch=1;sketchStyle=comic;fontFamily=Comic Sans MS;fontSize=14;" parent="k3g9_PYJ2_Jj__ovf3NL-23" vertex="1">
          <mxGeometry y="86" width="200" height="26" as="geometry" />
        </mxCell>
        <mxCell id="k3g9_PYJ2_Jj__ovf3NL-38" value="+ get_num_of_enemy(): int" style="text;strokeColor=none;fillColor=none;align=left;verticalAlign=top;spacingLeft=4;spacingRight=4;overflow=hidden;rotatable=0;points=[[0,0.5],[1,0.5]];portConstraint=eastwest;comic=1;sketch=1;sketchStyle=comic;fontFamily=Comic Sans MS;fontSize=14;" parent="k3g9_PYJ2_Jj__ovf3NL-23" vertex="1">
          <mxGeometry y="112" width="200" height="26" as="geometry" />
        </mxCell>
        <mxCell id="k3g9_PYJ2_Jj__ovf3NL-27" style="edgeStyle=none;rounded=0;sketch=1;orthogonalLoop=1;jettySize=auto;html=1;exitX=0.5;exitY=0;exitDx=0;exitDy=0;sketchStyle=comic;strokeWidth=2;entryX=0.6;entryY=1.077;entryDx=0;entryDy=0;entryPerimeter=0;" parent="k3g9_PYJ2_Jj__ovf3NL-1" source="k3g9_PYJ2_Jj__ovf3NL-28" target="k3g9_PYJ2_Jj__ovf3NL-20" edge="1">
          <mxGeometry relative="1" as="geometry">
            <mxPoint x="510" y="750" as="targetPoint" />
          </mxGeometry>
        </mxCell>
        <mxCell id="k3g9_PYJ2_Jj__ovf3NL-28" value="Friend" style="swimlane;fontStyle=1;align=center;verticalAlign=top;childLayout=stackLayout;horizontal=1;startSize=26;horizontalStack=0;resizeParent=1;resizeParentMax=0;resizeLast=0;collapsible=1;marginBottom=0;comic=1;sketch=1;sketchStyle=comic;fontFamily=Comic Sans MS;fontSize=14;fillColor=#d5e8d4;strokeColor=#82b366;" parent="k3g9_PYJ2_Jj__ovf3NL-1" vertex="1">
          <mxGeometry x="480" y="840" width="200" height="86" as="geometry" />
        </mxCell>
        <mxCell id="k3g9_PYJ2_Jj__ovf3NL-29" value="+ " style="text;strokeColor=none;fillColor=none;align=left;verticalAlign=top;spacingLeft=4;spacingRight=4;overflow=hidden;rotatable=0;points=[[0,0.5],[1,0.5]];portConstraint=eastwest;comic=1;sketch=1;sketchStyle=comic;fontFamily=Comic Sans MS;fontSize=14;" parent="k3g9_PYJ2_Jj__ovf3NL-28" vertex="1">
          <mxGeometry y="26" width="200" height="26" as="geometry" />
        </mxCell>
        <mxCell id="k3g9_PYJ2_Jj__ovf3NL-30" value="" style="line;strokeWidth=1;fillColor=none;align=left;verticalAlign=middle;spacingTop=-1;spacingLeft=3;spacingRight=3;rotatable=0;labelPosition=right;points=[];portConstraint=eastwest;comic=1;sketch=1;sketchStyle=comic;fontFamily=Comic Sans MS;fontSize=14;" parent="k3g9_PYJ2_Jj__ovf3NL-28" vertex="1">
          <mxGeometry y="52" width="200" height="8" as="geometry" />
        </mxCell>
        <mxCell id="k3g9_PYJ2_Jj__ovf3NL-31" value="+ hug()" style="text;strokeColor=none;fillColor=none;align=left;verticalAlign=top;spacingLeft=4;spacingRight=4;overflow=hidden;rotatable=0;points=[[0,0.5],[1,0.5]];portConstraint=eastwest;comic=1;sketch=1;sketchStyle=comic;fontFamily=Comic Sans MS;fontSize=14;" parent="k3g9_PYJ2_Jj__ovf3NL-28" vertex="1">
          <mxGeometry y="60" width="200" height="26" as="geometry" />
        </mxCell>
        <mxCell id="k3g9_PYJ2_Jj__ovf3NL-32" value="Item" style="swimlane;fontStyle=1;align=center;verticalAlign=top;childLayout=stackLayout;horizontal=1;startSize=26;horizontalStack=0;resizeParent=1;resizeParentMax=0;resizeLast=0;collapsible=1;marginBottom=0;comic=1;sketch=1;sketchStyle=comic;fontFamily=Comic Sans MS;fontSize=14;fillColor=#d5e8d4;strokeColor=#82b366;" parent="k3g9_PYJ2_Jj__ovf3NL-1" vertex="1">
          <mxGeometry x="600" y="520" width="200" height="112" as="geometry" />
        </mxCell>
        <mxCell id="k3g9_PYJ2_Jj__ovf3NL-33" value="+ name: str" style="text;strokeColor=none;fillColor=none;align=left;verticalAlign=top;spacingLeft=4;spacingRight=4;overflow=hidden;rotatable=0;points=[[0,0.5],[1,0.5]];portConstraint=eastwest;comic=1;sketch=1;sketchStyle=comic;fontFamily=Comic Sans MS;fontSize=14;" parent="k3g9_PYJ2_Jj__ovf3NL-32" vertex="1">
          <mxGeometry y="26" width="200" height="26" as="geometry" />
        </mxCell>
        <mxCell id="k3g9_PYJ2_Jj__ovf3NL-34" value="+ description: str" style="text;strokeColor=none;fillColor=none;align=left;verticalAlign=top;spacingLeft=4;spacingRight=4;overflow=hidden;rotatable=0;points=[[0,0.5],[1,0.5]];portConstraint=eastwest;comic=1;sketch=1;sketchStyle=comic;fontFamily=Comic Sans MS;fontSize=14;" parent="k3g9_PYJ2_Jj__ovf3NL-32" vertex="1">
          <mxGeometry y="52" width="200" height="26" as="geometry" />
        </mxCell>
        <mxCell id="k3g9_PYJ2_Jj__ovf3NL-35" value="" style="line;strokeWidth=1;fillColor=none;align=left;verticalAlign=middle;spacingTop=-1;spacingLeft=3;spacingRight=3;rotatable=0;labelPosition=right;points=[];portConstraint=eastwest;comic=1;sketch=1;sketchStyle=comic;fontFamily=Comic Sans MS;fontSize=14;" parent="k3g9_PYJ2_Jj__ovf3NL-32" vertex="1">
          <mxGeometry y="78" width="200" height="8" as="geometry" />
        </mxCell>
        <mxCell id="k3g9_PYJ2_Jj__ovf3NL-36" value="+ describe()" style="text;strokeColor=none;fillColor=none;align=left;verticalAlign=top;spacingLeft=4;spacingRight=4;overflow=hidden;rotatable=0;points=[[0,0.5],[1,0.5]];portConstraint=eastwest;comic=1;sketch=1;sketchStyle=comic;fontFamily=Comic Sans MS;fontSize=14;" parent="k3g9_PYJ2_Jj__ovf3NL-32" vertex="1">
          <mxGeometry y="86" width="200" height="26" as="geometry" />
        </mxCell>
      </root>
    </mxGraphModel>
  </diagram>
  <diagram name="ext_player_class_diagram" id="FLcB5ezZonIKNYQL2PJV">
    <mxGraphModel dx="1122" dy="444" grid="1" gridSize="10" guides="1" tooltips="1" connect="1" arrows="1" fold="1" page="0" pageScale="1" pageWidth="827" pageHeight="1169" math="0" shadow="0">
      <root>
        <mxCell id="2dcY2UK0rxDVaz8a12Cn-0" />
        <mxCell id="2dcY2UK0rxDVaz8a12Cn-1" parent="2dcY2UK0rxDVaz8a12Cn-0" />
        <mxCell id="mMjuc_s75-GrIap11Se9-7" value="" style="rounded=0;whiteSpace=wrap;html=1;hachureGap=4;fontFamily=Architects Daughter;fontSource=https%3A%2F%2Ffonts.googleapis.com%2Fcss%3Ffamily%3DArchitects%2BDaughter;strokeColor=none;" vertex="1" parent="2dcY2UK0rxDVaz8a12Cn-1">
          <mxGeometry x="110" y="510" width="940" height="480" as="geometry" />
        </mxCell>
        <mxCell id="2dcY2UK0rxDVaz8a12Cn-2" value="Room" style="swimlane;fontStyle=1;align=center;verticalAlign=top;childLayout=stackLayout;horizontal=1;startSize=26;horizontalStack=0;resizeParent=1;resizeParentMax=0;resizeLast=0;collapsible=1;marginBottom=0;comic=1;sketch=1;sketchStyle=comic;fontFamily=Comic Sans MS;fontSize=14;fillColor=#d5e8d4;strokeColor=#82b366;" vertex="1" parent="2dcY2UK0rxDVaz8a12Cn-1">
          <mxGeometry x="120" y="520" width="200" height="242" as="geometry" />
        </mxCell>
        <mxCell id="2dcY2UK0rxDVaz8a12Cn-3" value="+ name: str" style="text;strokeColor=none;fillColor=none;align=left;verticalAlign=top;spacingLeft=4;spacingRight=4;overflow=hidden;rotatable=0;points=[[0,0.5],[1,0.5]];portConstraint=eastwest;comic=1;sketch=1;sketchStyle=comic;fontFamily=Comic Sans MS;fontSize=14;" vertex="1" parent="2dcY2UK0rxDVaz8a12Cn-2">
          <mxGeometry y="26" width="200" height="26" as="geometry" />
        </mxCell>
        <mxCell id="2dcY2UK0rxDVaz8a12Cn-4" value="+ description: str" style="text;strokeColor=none;fillColor=none;align=left;verticalAlign=top;spacingLeft=4;spacingRight=4;overflow=hidden;rotatable=0;points=[[0,0.5],[1,0.5]];portConstraint=eastwest;comic=1;sketch=1;sketchStyle=comic;fontFamily=Comic Sans MS;fontSize=14;" vertex="1" parent="2dcY2UK0rxDVaz8a12Cn-2">
          <mxGeometry y="52" width="200" height="26" as="geometry" />
        </mxCell>
        <mxCell id="2dcY2UK0rxDVaz8a12Cn-5" value="+ linked_rooms: dict" style="text;strokeColor=none;fillColor=none;align=left;verticalAlign=top;spacingLeft=4;spacingRight=4;overflow=hidden;rotatable=0;points=[[0,0.5],[1,0.5]];portConstraint=eastwest;comic=1;sketch=1;sketchStyle=comic;fontFamily=Comic Sans MS;fontSize=14;" vertex="1" parent="2dcY2UK0rxDVaz8a12Cn-2">
          <mxGeometry y="78" width="200" height="26" as="geometry" />
        </mxCell>
        <mxCell id="2dcY2UK0rxDVaz8a12Cn-6" value="+ character: Character" style="text;strokeColor=none;fillColor=none;align=left;verticalAlign=top;spacingLeft=4;spacingRight=4;overflow=hidden;rotatable=0;points=[[0,0.5],[1,0.5]];portConstraint=eastwest;comic=1;sketch=1;sketchStyle=comic;fontFamily=Comic Sans MS;fontSize=14;" vertex="1" parent="2dcY2UK0rxDVaz8a12Cn-2">
          <mxGeometry y="104" width="200" height="26" as="geometry" />
        </mxCell>
        <mxCell id="2dcY2UK0rxDVaz8a12Cn-7" value="+ item: Item" style="text;strokeColor=none;fillColor=none;align=left;verticalAlign=top;spacingLeft=4;spacingRight=4;overflow=hidden;rotatable=0;points=[[0,0.5],[1,0.5]];portConstraint=eastwest;comic=1;sketch=1;sketchStyle=comic;fontFamily=Comic Sans MS;fontSize=14;" vertex="1" parent="2dcY2UK0rxDVaz8a12Cn-2">
          <mxGeometry y="130" width="200" height="26" as="geometry" />
        </mxCell>
        <mxCell id="2dcY2UK0rxDVaz8a12Cn-8" value="" style="line;strokeWidth=1;fillColor=none;align=left;verticalAlign=middle;spacingTop=-1;spacingLeft=3;spacingRight=3;rotatable=0;labelPosition=right;points=[];portConstraint=eastwest;comic=1;sketch=1;sketchStyle=comic;fontFamily=Comic Sans MS;fontSize=14;" vertex="1" parent="2dcY2UK0rxDVaz8a12Cn-2">
          <mxGeometry y="156" width="200" height="8" as="geometry" />
        </mxCell>
        <mxCell id="2dcY2UK0rxDVaz8a12Cn-9" value="+ describe()" style="text;strokeColor=none;fillColor=none;align=left;verticalAlign=top;spacingLeft=4;spacingRight=4;overflow=hidden;rotatable=0;points=[[0,0.5],[1,0.5]];portConstraint=eastwest;comic=1;sketch=1;sketchStyle=comic;fontFamily=Comic Sans MS;fontSize=14;" vertex="1" parent="2dcY2UK0rxDVaz8a12Cn-2">
          <mxGeometry y="164" width="200" height="26" as="geometry" />
        </mxCell>
        <mxCell id="2dcY2UK0rxDVaz8a12Cn-10" value="+ link_room(room, direction)" style="text;strokeColor=none;fillColor=none;align=left;verticalAlign=top;spacingLeft=4;spacingRight=4;overflow=hidden;rotatable=0;points=[[0,0.5],[1,0.5]];portConstraint=eastwest;comic=1;sketch=1;sketchStyle=comic;fontFamily=Comic Sans MS;fontSize=14;" vertex="1" parent="2dcY2UK0rxDVaz8a12Cn-2">
          <mxGeometry y="190" width="200" height="26" as="geometry" />
        </mxCell>
        <mxCell id="2dcY2UK0rxDVaz8a12Cn-11" value="+ move(direction): Room" style="text;strokeColor=none;fillColor=none;align=left;verticalAlign=top;spacingLeft=4;spacingRight=4;overflow=hidden;rotatable=0;points=[[0,0.5],[1,0.5]];portConstraint=eastwest;comic=1;sketch=1;sketchStyle=comic;fontFamily=Comic Sans MS;fontSize=14;" vertex="1" parent="2dcY2UK0rxDVaz8a12Cn-2">
          <mxGeometry y="216" width="200" height="26" as="geometry" />
        </mxCell>
        <mxCell id="2dcY2UK0rxDVaz8a12Cn-12" value="Character" style="swimlane;fontStyle=1;align=center;verticalAlign=top;childLayout=stackLayout;horizontal=1;startSize=26;horizontalStack=0;resizeParent=1;resizeParentMax=0;resizeLast=0;collapsible=1;marginBottom=0;comic=1;sketch=1;sketchStyle=comic;fontFamily=Comic Sans MS;fontSize=14;fillColor=#d5e8d4;strokeColor=#82b366;" vertex="1" parent="2dcY2UK0rxDVaz8a12Cn-1">
          <mxGeometry x="360" y="520" width="200" height="216" as="geometry" />
        </mxCell>
        <mxCell id="2dcY2UK0rxDVaz8a12Cn-13" value="+ name: str" style="text;strokeColor=none;fillColor=none;align=left;verticalAlign=top;spacingLeft=4;spacingRight=4;overflow=hidden;rotatable=0;points=[[0,0.5],[1,0.5]];portConstraint=eastwest;comic=1;sketch=1;sketchStyle=comic;fontFamily=Comic Sans MS;fontSize=14;" vertex="1" parent="2dcY2UK0rxDVaz8a12Cn-12">
          <mxGeometry y="26" width="200" height="26" as="geometry" />
        </mxCell>
        <mxCell id="2dcY2UK0rxDVaz8a12Cn-14" value="+ description: str" style="text;strokeColor=none;fillColor=none;align=left;verticalAlign=top;spacingLeft=4;spacingRight=4;overflow=hidden;rotatable=0;points=[[0,0.5],[1,0.5]];portConstraint=eastwest;comic=1;sketch=1;sketchStyle=comic;fontFamily=Comic Sans MS;fontSize=14;" vertex="1" parent="2dcY2UK0rxDVaz8a12Cn-12">
          <mxGeometry y="52" width="200" height="26" as="geometry" />
        </mxCell>
        <mxCell id="2dcY2UK0rxDVaz8a12Cn-15" value="+ converstation: str" style="text;strokeColor=none;fillColor=none;align=left;verticalAlign=top;spacingLeft=4;spacingRight=4;overflow=hidden;rotatable=0;points=[[0,0.5],[1,0.5]];portConstraint=eastwest;comic=1;sketch=1;sketchStyle=comic;fontFamily=Comic Sans MS;fontSize=14;" vertex="1" parent="2dcY2UK0rxDVaz8a12Cn-12">
          <mxGeometry y="78" width="200" height="26" as="geometry" />
        </mxCell>
        <mxCell id="2dcY2UK0rxDVaz8a12Cn-16" value="" style="line;strokeWidth=1;fillColor=none;align=left;verticalAlign=middle;spacingTop=-1;spacingLeft=3;spacingRight=3;rotatable=0;labelPosition=right;points=[];portConstraint=eastwest;comic=1;sketch=1;sketchStyle=comic;fontFamily=Comic Sans MS;fontSize=14;" vertex="1" parent="2dcY2UK0rxDVaz8a12Cn-12">
          <mxGeometry y="104" width="200" height="8" as="geometry" />
        </mxCell>
        <mxCell id="2dcY2UK0rxDVaz8a12Cn-17" value="+ describe()" style="text;strokeColor=none;fillColor=none;align=left;verticalAlign=top;spacingLeft=4;spacingRight=4;overflow=hidden;rotatable=0;points=[[0,0.5],[1,0.5]];portConstraint=eastwest;comic=1;sketch=1;sketchStyle=comic;fontFamily=Comic Sans MS;fontSize=14;" vertex="1" parent="2dcY2UK0rxDVaz8a12Cn-12">
          <mxGeometry y="112" width="200" height="26" as="geometry" />
        </mxCell>
        <mxCell id="2dcY2UK0rxDVaz8a12Cn-18" value="+ talk()" style="text;strokeColor=none;fillColor=none;align=left;verticalAlign=top;spacingLeft=4;spacingRight=4;overflow=hidden;rotatable=0;points=[[0,0.5],[1,0.5]];portConstraint=eastwest;comic=1;sketch=1;sketchStyle=comic;fontFamily=Comic Sans MS;fontSize=14;" vertex="1" parent="2dcY2UK0rxDVaz8a12Cn-12">
          <mxGeometry y="138" width="200" height="26" as="geometry" />
        </mxCell>
        <mxCell id="2dcY2UK0rxDVaz8a12Cn-19" value="+ hug()" style="text;strokeColor=none;fillColor=none;align=left;verticalAlign=top;spacingLeft=4;spacingRight=4;overflow=hidden;rotatable=0;points=[[0,0.5],[1,0.5]];portConstraint=eastwest;comic=1;sketch=1;sketchStyle=comic;fontFamily=Comic Sans MS;fontSize=14;" vertex="1" parent="2dcY2UK0rxDVaz8a12Cn-12">
          <mxGeometry y="164" width="200" height="26" as="geometry" />
        </mxCell>
        <mxCell id="2dcY2UK0rxDVaz8a12Cn-20" value="+ fight(item): bool" style="text;strokeColor=none;fillColor=none;align=left;verticalAlign=top;spacingLeft=4;spacingRight=4;overflow=hidden;rotatable=0;points=[[0,0.5],[1,0.5]];portConstraint=eastwest;comic=1;sketch=1;sketchStyle=comic;fontFamily=Comic Sans MS;fontSize=14;" vertex="1" parent="2dcY2UK0rxDVaz8a12Cn-12">
          <mxGeometry y="190" width="200" height="26" as="geometry" />
        </mxCell>
        <mxCell id="2dcY2UK0rxDVaz8a12Cn-21" style="rounded=0;orthogonalLoop=1;jettySize=auto;html=1;exitX=0.5;exitY=0;exitDx=0;exitDy=0;strokeColor=none;" edge="1" parent="2dcY2UK0rxDVaz8a12Cn-1" source="2dcY2UK0rxDVaz8a12Cn-23" target="2dcY2UK0rxDVaz8a12Cn-12">
          <mxGeometry relative="1" as="geometry" />
        </mxCell>
        <mxCell id="2dcY2UK0rxDVaz8a12Cn-22" style="edgeStyle=none;rounded=0;orthogonalLoop=1;jettySize=auto;html=1;exitX=0.5;exitY=0;exitDx=0;exitDy=0;strokeWidth=2;sketch=1;sketchStyle=comic;entryX=0.4;entryY=1.077;entryDx=0;entryDy=0;entryPerimeter=0;" edge="1" parent="2dcY2UK0rxDVaz8a12Cn-1" source="2dcY2UK0rxDVaz8a12Cn-23" target="2dcY2UK0rxDVaz8a12Cn-20">
          <mxGeometry relative="1" as="geometry" />
        </mxCell>
        <mxCell id="2dcY2UK0rxDVaz8a12Cn-23" value="Enemy" style="swimlane;fontStyle=1;align=center;verticalAlign=top;childLayout=stackLayout;horizontal=1;startSize=26;horizontalStack=0;resizeParent=1;resizeParentMax=0;resizeLast=0;collapsible=1;marginBottom=0;comic=1;sketch=1;sketchStyle=comic;fontFamily=Comic Sans MS;fontSize=14;fillColor=#d5e8d4;strokeColor=#82b366;" vertex="1" parent="2dcY2UK0rxDVaz8a12Cn-1">
          <mxGeometry x="240" y="840" width="200" height="138" as="geometry" />
        </mxCell>
        <mxCell id="2dcY2UK0rxDVaz8a12Cn-24" value="+ num_of_enemy: int" style="text;strokeColor=none;fillColor=none;align=left;verticalAlign=top;spacingLeft=4;spacingRight=4;overflow=hidden;rotatable=0;points=[[0,0.5],[1,0.5]];portConstraint=eastwest;comic=1;sketch=1;sketchStyle=comic;fontFamily=Comic Sans MS;fontSize=14;fontStyle=4" vertex="1" parent="2dcY2UK0rxDVaz8a12Cn-23">
          <mxGeometry y="26" width="200" height="26" as="geometry" />
        </mxCell>
        <mxCell id="2dcY2UK0rxDVaz8a12Cn-25" value="+ weakness: str" style="text;strokeColor=none;fillColor=none;align=left;verticalAlign=top;spacingLeft=4;spacingRight=4;overflow=hidden;rotatable=0;points=[[0,0.5],[1,0.5]];portConstraint=eastwest;comic=1;sketch=1;sketchStyle=comic;fontFamily=Comic Sans MS;fontSize=14;" vertex="1" parent="2dcY2UK0rxDVaz8a12Cn-23">
          <mxGeometry y="52" width="200" height="26" as="geometry" />
        </mxCell>
        <mxCell id="2dcY2UK0rxDVaz8a12Cn-26" value="" style="line;strokeWidth=1;fillColor=none;align=left;verticalAlign=middle;spacingTop=-1;spacingLeft=3;spacingRight=3;rotatable=0;labelPosition=right;points=[];portConstraint=eastwest;comic=1;sketch=1;sketchStyle=comic;fontFamily=Comic Sans MS;fontSize=14;" vertex="1" parent="2dcY2UK0rxDVaz8a12Cn-23">
          <mxGeometry y="78" width="200" height="8" as="geometry" />
        </mxCell>
        <mxCell id="2dcY2UK0rxDVaz8a12Cn-27" value="+ fight(item): bool" style="text;strokeColor=none;fillColor=none;align=left;verticalAlign=top;spacingLeft=4;spacingRight=4;overflow=hidden;rotatable=0;points=[[0,0.5],[1,0.5]];portConstraint=eastwest;comic=1;sketch=1;sketchStyle=comic;fontFamily=Comic Sans MS;fontSize=14;" vertex="1" parent="2dcY2UK0rxDVaz8a12Cn-23">
          <mxGeometry y="86" width="200" height="26" as="geometry" />
        </mxCell>
        <mxCell id="2dcY2UK0rxDVaz8a12Cn-28" value="+ get_num_of_enemy(): int" style="text;strokeColor=none;fillColor=none;align=left;verticalAlign=top;spacingLeft=4;spacingRight=4;overflow=hidden;rotatable=0;points=[[0,0.5],[1,0.5]];portConstraint=eastwest;comic=1;sketch=1;sketchStyle=comic;fontFamily=Comic Sans MS;fontSize=14;" vertex="1" parent="2dcY2UK0rxDVaz8a12Cn-23">
          <mxGeometry y="112" width="200" height="26" as="geometry" />
        </mxCell>
        <mxCell id="2dcY2UK0rxDVaz8a12Cn-29" style="edgeStyle=none;rounded=0;sketch=1;orthogonalLoop=1;jettySize=auto;html=1;exitX=0.5;exitY=0;exitDx=0;exitDy=0;sketchStyle=comic;strokeWidth=2;entryX=0.6;entryY=1.077;entryDx=0;entryDy=0;entryPerimeter=0;" edge="1" parent="2dcY2UK0rxDVaz8a12Cn-1" source="2dcY2UK0rxDVaz8a12Cn-30" target="2dcY2UK0rxDVaz8a12Cn-20">
          <mxGeometry relative="1" as="geometry">
            <mxPoint x="510" y="750" as="targetPoint" />
          </mxGeometry>
        </mxCell>
        <mxCell id="2dcY2UK0rxDVaz8a12Cn-30" value="Friend" style="swimlane;fontStyle=1;align=center;verticalAlign=top;childLayout=stackLayout;horizontal=1;startSize=26;horizontalStack=0;resizeParent=1;resizeParentMax=0;resizeLast=0;collapsible=1;marginBottom=0;comic=1;sketch=1;sketchStyle=comic;fontFamily=Comic Sans MS;fontSize=14;fillColor=#d5e8d4;strokeColor=#82b366;" vertex="1" parent="2dcY2UK0rxDVaz8a12Cn-1">
          <mxGeometry x="480" y="840" width="200" height="86" as="geometry" />
        </mxCell>
        <mxCell id="2dcY2UK0rxDVaz8a12Cn-31" value="+ " style="text;strokeColor=none;fillColor=none;align=left;verticalAlign=top;spacingLeft=4;spacingRight=4;overflow=hidden;rotatable=0;points=[[0,0.5],[1,0.5]];portConstraint=eastwest;comic=1;sketch=1;sketchStyle=comic;fontFamily=Comic Sans MS;fontSize=14;" vertex="1" parent="2dcY2UK0rxDVaz8a12Cn-30">
          <mxGeometry y="26" width="200" height="26" as="geometry" />
        </mxCell>
        <mxCell id="2dcY2UK0rxDVaz8a12Cn-32" value="" style="line;strokeWidth=1;fillColor=none;align=left;verticalAlign=middle;spacingTop=-1;spacingLeft=3;spacingRight=3;rotatable=0;labelPosition=right;points=[];portConstraint=eastwest;comic=1;sketch=1;sketchStyle=comic;fontFamily=Comic Sans MS;fontSize=14;" vertex="1" parent="2dcY2UK0rxDVaz8a12Cn-30">
          <mxGeometry y="52" width="200" height="8" as="geometry" />
        </mxCell>
        <mxCell id="2dcY2UK0rxDVaz8a12Cn-33" value="+ hug()" style="text;strokeColor=none;fillColor=none;align=left;verticalAlign=top;spacingLeft=4;spacingRight=4;overflow=hidden;rotatable=0;points=[[0,0.5],[1,0.5]];portConstraint=eastwest;comic=1;sketch=1;sketchStyle=comic;fontFamily=Comic Sans MS;fontSize=14;" vertex="1" parent="2dcY2UK0rxDVaz8a12Cn-30">
          <mxGeometry y="60" width="200" height="26" as="geometry" />
        </mxCell>
        <mxCell id="2dcY2UK0rxDVaz8a12Cn-34" value="Item" style="swimlane;fontStyle=1;align=center;verticalAlign=top;childLayout=stackLayout;horizontal=1;startSize=26;horizontalStack=0;resizeParent=1;resizeParentMax=0;resizeLast=0;collapsible=1;marginBottom=0;comic=1;sketch=1;sketchStyle=comic;fontFamily=Comic Sans MS;fontSize=14;fillColor=#d5e8d4;strokeColor=#82b366;" vertex="1" parent="2dcY2UK0rxDVaz8a12Cn-1">
          <mxGeometry x="600" y="520" width="200" height="112" as="geometry" />
        </mxCell>
        <mxCell id="2dcY2UK0rxDVaz8a12Cn-35" value="+ name: str" style="text;strokeColor=none;fillColor=none;align=left;verticalAlign=top;spacingLeft=4;spacingRight=4;overflow=hidden;rotatable=0;points=[[0,0.5],[1,0.5]];portConstraint=eastwest;comic=1;sketch=1;sketchStyle=comic;fontFamily=Comic Sans MS;fontSize=14;" vertex="1" parent="2dcY2UK0rxDVaz8a12Cn-34">
          <mxGeometry y="26" width="200" height="26" as="geometry" />
        </mxCell>
        <mxCell id="2dcY2UK0rxDVaz8a12Cn-36" value="+ description: str" style="text;strokeColor=none;fillColor=none;align=left;verticalAlign=top;spacingLeft=4;spacingRight=4;overflow=hidden;rotatable=0;points=[[0,0.5],[1,0.5]];portConstraint=eastwest;comic=1;sketch=1;sketchStyle=comic;fontFamily=Comic Sans MS;fontSize=14;" vertex="1" parent="2dcY2UK0rxDVaz8a12Cn-34">
          <mxGeometry y="52" width="200" height="26" as="geometry" />
        </mxCell>
        <mxCell id="2dcY2UK0rxDVaz8a12Cn-37" value="" style="line;strokeWidth=1;fillColor=none;align=left;verticalAlign=middle;spacingTop=-1;spacingLeft=3;spacingRight=3;rotatable=0;labelPosition=right;points=[];portConstraint=eastwest;comic=1;sketch=1;sketchStyle=comic;fontFamily=Comic Sans MS;fontSize=14;" vertex="1" parent="2dcY2UK0rxDVaz8a12Cn-34">
          <mxGeometry y="78" width="200" height="8" as="geometry" />
        </mxCell>
        <mxCell id="2dcY2UK0rxDVaz8a12Cn-38" value="+ describe()" style="text;strokeColor=none;fillColor=none;align=left;verticalAlign=top;spacingLeft=4;spacingRight=4;overflow=hidden;rotatable=0;points=[[0,0.5],[1,0.5]];portConstraint=eastwest;comic=1;sketch=1;sketchStyle=comic;fontFamily=Comic Sans MS;fontSize=14;" vertex="1" parent="2dcY2UK0rxDVaz8a12Cn-34">
          <mxGeometry y="86" width="200" height="26" as="geometry" />
        </mxCell>
        <mxCell id="mMjuc_s75-GrIap11Se9-0" value="Player" style="swimlane;fontStyle=1;align=center;verticalAlign=top;childLayout=stackLayout;horizontal=1;startSize=26;horizontalStack=0;resizeParent=1;resizeParentMax=0;resizeLast=0;collapsible=1;marginBottom=0;comic=1;sketch=1;sketchStyle=comic;fontFamily=Comic Sans MS;fontSize=14;fillColor=#d5e8d4;strokeColor=#82b366;" vertex="1" parent="2dcY2UK0rxDVaz8a12Cn-1">
          <mxGeometry x="840" y="520" width="200" height="138" as="geometry" />
        </mxCell>
        <mxCell id="mMjuc_s75-GrIap11Se9-1" value="+ backpack: [items]" style="text;strokeColor=none;fillColor=none;align=left;verticalAlign=top;spacingLeft=4;spacingRight=4;overflow=hidden;rotatable=0;points=[[0,0.5],[1,0.5]];portConstraint=eastwest;comic=1;sketch=1;sketchStyle=comic;fontFamily=Comic Sans MS;fontSize=14;" vertex="1" parent="mMjuc_s75-GrIap11Se9-0">
          <mxGeometry y="26" width="200" height="26" as="geometry" />
        </mxCell>
        <mxCell id="mMjuc_s75-GrIap11Se9-3" value="" style="line;strokeWidth=1;fillColor=none;align=left;verticalAlign=middle;spacingTop=-1;spacingLeft=3;spacingRight=3;rotatable=0;labelPosition=right;points=[];portConstraint=eastwest;comic=1;sketch=1;sketchStyle=comic;fontFamily=Comic Sans MS;fontSize=14;" vertex="1" parent="mMjuc_s75-GrIap11Se9-0">
          <mxGeometry y="52" width="200" height="8" as="geometry" />
        </mxCell>
        <mxCell id="mMjuc_s75-GrIap11Se9-4" value="+ ckeck_item_in()" style="text;strokeColor=none;fillColor=none;align=left;verticalAlign=top;spacingLeft=4;spacingRight=4;overflow=hidden;rotatable=0;points=[[0,0.5],[1,0.5]];portConstraint=eastwest;comic=1;sketch=1;sketchStyle=comic;fontFamily=Comic Sans MS;fontSize=14;" vertex="1" parent="mMjuc_s75-GrIap11Se9-0">
          <mxGeometry y="60" width="200" height="26" as="geometry" />
        </mxCell>
        <mxCell id="mMjuc_s75-GrIap11Se9-5" value="+ add_item()" style="text;strokeColor=none;fillColor=none;align=left;verticalAlign=top;spacingLeft=4;spacingRight=4;overflow=hidden;rotatable=0;points=[[0,0.5],[1,0.5]];portConstraint=eastwest;comic=1;sketch=1;sketchStyle=comic;fontFamily=Comic Sans MS;fontSize=14;" vertex="1" parent="mMjuc_s75-GrIap11Se9-0">
          <mxGeometry y="86" width="200" height="26" as="geometry" />
        </mxCell>
        <mxCell id="mMjuc_s75-GrIap11Se9-6" value="+ display_contents()" style="text;strokeColor=none;fillColor=none;align=left;verticalAlign=top;spacingLeft=4;spacingRight=4;overflow=hidden;rotatable=0;points=[[0,0.5],[1,0.5]];portConstraint=eastwest;comic=1;sketch=1;sketchStyle=comic;fontFamily=Comic Sans MS;fontSize=14;" vertex="1" parent="mMjuc_s75-GrIap11Se9-0">
          <mxGeometry y="112" width="200" height="26" as="geometry" />
        </mxCell>
      </root>
    </mxGraphModel>
  </diagram>
  <diagram id="z_aWacLSFYZKq2zVpfXV" name="class_diagrams">
    <mxGraphModel dx="954" dy="317" grid="1" gridSize="10" guides="1" tooltips="1" connect="1" arrows="1" fold="1" page="0" pageScale="1" pageWidth="827" pageHeight="1169" math="0" shadow="0">
      <root>
        <mxCell id="_UDvJPOhYdgQja0OrF9W-0" />
        <mxCell id="_UDvJPOhYdgQja0OrF9W-1" parent="_UDvJPOhYdgQja0OrF9W-0" />
        <mxCell id="LRRUqMupVAIU8vQMHWI4-0" value="Class Name" style="swimlane;fontStyle=1;align=center;verticalAlign=top;childLayout=stackLayout;horizontal=1;startSize=26;horizontalStack=0;resizeParent=1;resizeParentMax=0;resizeLast=0;collapsible=1;marginBottom=0;comic=1;sketch=1;sketchStyle=comic;fontFamily=Comic Sans MS;fontSize=14;fillColor=#d5e8d4;strokeColor=#82b366;" parent="_UDvJPOhYdgQja0OrF9W-1" vertex="1">
          <mxGeometry x="120" y="540" width="200" height="190" as="geometry" />
        </mxCell>
        <mxCell id="LRRUqMupVAIU8vQMHWI4-1" value="+ attibute: type" style="text;strokeColor=none;fillColor=none;align=left;verticalAlign=top;spacingLeft=4;spacingRight=4;overflow=hidden;rotatable=0;points=[[0,0.5],[1,0.5]];portConstraint=eastwest;comic=1;sketch=1;sketchStyle=comic;fontFamily=Comic Sans MS;fontSize=14;" parent="LRRUqMupVAIU8vQMHWI4-0" vertex="1">
          <mxGeometry y="26" width="200" height="26" as="geometry" />
        </mxCell>
        <mxCell id="LRRUqMupVAIU8vQMHWI4-7" value="+ attibute: type" style="text;strokeColor=none;fillColor=none;align=left;verticalAlign=top;spacingLeft=4;spacingRight=4;overflow=hidden;rotatable=0;points=[[0,0.5],[1,0.5]];portConstraint=eastwest;comic=1;sketch=1;sketchStyle=comic;fontFamily=Comic Sans MS;fontSize=14;" parent="LRRUqMupVAIU8vQMHWI4-0" vertex="1">
          <mxGeometry y="52" width="200" height="26" as="geometry" />
        </mxCell>
        <mxCell id="LRRUqMupVAIU8vQMHWI4-8" value="+ attibute: type" style="text;strokeColor=none;fillColor=none;align=left;verticalAlign=top;spacingLeft=4;spacingRight=4;overflow=hidden;rotatable=0;points=[[0,0.5],[1,0.5]];portConstraint=eastwest;comic=1;sketch=1;sketchStyle=comic;fontFamily=Comic Sans MS;fontSize=14;" parent="LRRUqMupVAIU8vQMHWI4-0" vertex="1">
          <mxGeometry y="78" width="200" height="26" as="geometry" />
        </mxCell>
        <mxCell id="LRRUqMupVAIU8vQMHWI4-4" value="" style="line;strokeWidth=1;fillColor=none;align=left;verticalAlign=middle;spacingTop=-1;spacingLeft=3;spacingRight=3;rotatable=0;labelPosition=right;points=[];portConstraint=eastwest;comic=1;sketch=1;sketchStyle=comic;fontFamily=Comic Sans MS;fontSize=14;" parent="LRRUqMupVAIU8vQMHWI4-0" vertex="1">
          <mxGeometry y="104" width="200" height="8" as="geometry" />
        </mxCell>
        <mxCell id="LRRUqMupVAIU8vQMHWI4-5" value="+ method(arguments): type" style="text;strokeColor=none;fillColor=none;align=left;verticalAlign=top;spacingLeft=4;spacingRight=4;overflow=hidden;rotatable=0;points=[[0,0.5],[1,0.5]];portConstraint=eastwest;comic=1;sketch=1;sketchStyle=comic;fontFamily=Comic Sans MS;fontSize=14;" parent="LRRUqMupVAIU8vQMHWI4-0" vertex="1">
          <mxGeometry y="112" width="200" height="26" as="geometry" />
        </mxCell>
        <mxCell id="LRRUqMupVAIU8vQMHWI4-9" value="+ method(arguments): type" style="text;strokeColor=none;fillColor=none;align=left;verticalAlign=top;spacingLeft=4;spacingRight=4;overflow=hidden;rotatable=0;points=[[0,0.5],[1,0.5]];portConstraint=eastwest;comic=1;sketch=1;sketchStyle=comic;fontFamily=Comic Sans MS;fontSize=14;" parent="LRRUqMupVAIU8vQMHWI4-0" vertex="1">
          <mxGeometry y="138" width="200" height="26" as="geometry" />
        </mxCell>
        <mxCell id="LRRUqMupVAIU8vQMHWI4-10" value="+ method(arguments): type" style="text;strokeColor=none;fillColor=none;align=left;verticalAlign=top;spacingLeft=4;spacingRight=4;overflow=hidden;rotatable=0;points=[[0,0.5],[1,0.5]];portConstraint=eastwest;comic=1;sketch=1;sketchStyle=comic;fontFamily=Comic Sans MS;fontSize=14;" parent="LRRUqMupVAIU8vQMHWI4-0" vertex="1">
          <mxGeometry y="164" width="200" height="26" as="geometry" />
        </mxCell>
      </root>
    </mxGraphModel>
  </diagram>
</mxfile>
